<?xml version="1.0" encoding="utf-8"?>
<!-- Generator: Adobe Illustrator 24.1.2, SVG Export Plug-In . SVG Version: 6.00 Build 0)  -->
<svg version="1.1" id="icons" xmlns="http://www.w3.org/2000/svg" xmlns:xlink="http://www.w3.org/1999/xlink" x="0px" y="0px"
	 width="340px" height="340px" viewBox="0 0 340 340" style="enable-background:new 0 0 340 340;" xml:space="preserve">
<style type="text/css">
	.st0{fill:#FFC257;}
	.st1{fill:#667387;}
	.st2{fill:#363B42;}
	.st3{fill:#E87B31;}
	.st4{fill:#B9784B;}
	.st5{fill:#7F5334;}
	.st6{fill:#FFECD2;}
	.st7{fill:#93A1B5;}
	.st8{fill:#CC8554;}
</style>
<path class="st0" d="M171.4,301.5c0,0,5.7,5.3,10.4,15.7c1.6,3.5,5.8,5.1,9.3,3.5c0,0,0.1,0,0.1-0.1l0,0c3.4-1.6,4.9-5.5,3.5-9
	c-3.7-9.5-10.2-17.7-18.7-23.4L171.4,301.5z"/>
<path class="st0" d="M164.7,289.2c-7.3,5.1-13.4,11.7-17.8,19.5c-1.5,2.8-0.8,6.3,1.6,8.3l0,0c2.8,2.5,7.1,2.1,9.6-0.7
	c0.2-0.2,0.4-0.5,0.5-0.7c3-4.6,7.5-10.5,12.8-14.2L164.7,289.2z"/>
<path class="st0" d="M234.6,208.3L170,277.7l-64.6-69.4L93,207.1c0,0,1,85.1,77,91.4c76-6.2,77.8-93.7,77.8-93.7L234.6,208.3z"/>
<path class="st0" d="M170,272.4L170,272.4c4,0,7.3,3.3,7.3,7.3v17.6c0,4-3.3,7.3-7.3,7.3l0,0c-4,0-7.3-3.3-7.3-7.3v-17.6
	C162.7,275.7,166,272.4,170,272.4z"/>
<path class="st1" d="M189.7,77.9c-2.2-0.9-4.1-2.4-5.4-4.3l-1-1.3c-2.4-3.4-6.3-5.3-10.4-5.3h-5.9c-4.1,0-8,2-10.4,5.3l-1,1.3
	c-1.4,1.9-3.2,3.4-5.4,4.3c-6.6,2.8-13,6-19.1,9.5c0,0-41.4,29.5-53.4,55.9c0,0,20.3,32.9,92.3,32.9s92.9-33.4,92.9-33.4
	C251.6,117.7,211.7,89,211.7,89C204.7,84.8,197.3,81.1,189.7,77.9z"/>
<path class="st2" d="M211.7,89c0.1,8.7-1.8,32.4-26.2,40.9c-9.3,3.2-19.5,3.2-28.8-0.2c-25.6-9.3-25.9-35.6-25.6-42.4
	c-18.3,10.4-42.9,28.5-54.9,54.9c0,0,21.8,33.9,93.8,33.9s93.8-33.9,93.8-33.9C252.4,117.2,229.6,99.7,211.7,89z"/>
<path class="st2" d="M53.6,182.7c0,0-12.1,11-13.9,32h58.2C97.9,214.7,71.2,183,53.6,182.7z"/>
<path class="st1" d="M87.3,208.6l-20.9-2.1c-8.7-0.2-17.5,0.6-26,2.4c-3.6,0.8-7.1,3.1-8.2,6.7c-1.2,3.7-2.1,7.5-2.7,11.4
	c0,0-0.3,8.4-0.1,12.8h60.5C89.9,239.8,100.2,213.1,87.3,208.6z"/>
<path class="st2" d="M87.8,208c-7.1-1-14.2-1.5-21.3-1.6l7,5.9c1.7,1.5,2,4,0.5,5.8c-0.7,0.9-1.7,1.4-2.9,1.5
	c-14.1,1.1-28.1,3.5-41.7,7.4c-0.7,4.2-0.9,8.6-0.7,12.8h62.3C91.1,239.8,100.6,212.5,87.8,208z"/>
<path class="st1" d="M93.3,256.4l0-13c-0.3-2.8-0.9-5.5-1.7-8.2c-1.8-5.5-7-9.3-12.8-9.2c-11.9,0.1-36.5,1.6-54.6,11.5
	c-3.3,1.7-5.4,5-5.8,8.7l-1,10.8l-0.2,11.2L93.3,256.4z"/>
<path class="st2" d="M93.3,243.4c-9.8-1-44.5-2.9-75.9,13.6l-1,11L94,256.3C94.1,252,93.9,247.7,93.3,243.4z"/>
<path class="st3" d="M223.9,245.2c0,0,7.6-5.9,17.4-6.3c3.6-11,5.8-22.4,6.4-34l-13.2,3.5L193,253h21.6L223.9,245.2z"/>
<path class="st3" d="M105.4,208.3L93,207.1c0.5,11.1,2.5,22.1,5.9,32.6c4.6,0.1,15.8,1.6,25.5,13.3H147L105.4,208.3z"/>
<path class="st1" d="M87.4,250.1c0,0,10,1.5,10.5,13v8.7c0,5-3.9,9.2-8.9,9.5c-15.3,1.1-47.2,4.4-69.4,14.5
	c-3.4,1.6-7.4,0.1-8.9-3.3c-0.4-0.9-0.6-1.8-0.6-2.8v-14c0-4.9,2.9-9.4,7.4-11.4C30.4,258.1,58.7,246.8,87.4,250.1z"/>
<path class="st4" d="M210,212.5H130l-18.6,15.1c11.8,62.1,58.7,62.1,58.7,62.1s46.9,0,58.7-62.1L210,212.5z"/>
<path class="st5" d="M170,212.5h-40l-18.6,15.1c1.1,5.9,2.7,11.8,4.8,17.5c4.2,1.1,9.1,1.2,13.1-2.4c0,0,17.9,18.6,40.8,18.6
	s40.8-18.6,40.8-18.6c4,3.5,9,3.5,13.1,2.4c2.1-5.7,3.6-11.5,4.8-17.5L210,212.5H170z"/>
<path class="st2" d="M195.2,254.4c-9.7-13.6-25.2-12.5-25.2-12.5s-15.5-1-25.2,12.5c-2.8,3.9-1.8,9.3,2,12c1.5,1,3.2,1.6,5,1.6h36.4
	c4.8,0,8.6-3.9,8.6-8.6C196.8,257.6,196.3,255.8,195.2,254.4L195.2,254.4z"/>
<path class="st2" d="M286.4,182.7c0,0,12.1,11,13.9,32h-58.2C242.1,214.7,268.8,183,286.4,182.7z"/>
<path class="st1" d="M252.7,208.6l20.9-2.1c8.7-0.2,17.5,0.6,26,2.4c3.6,0.8,7.1,3.1,8.2,6.7c1.2,3.7,2.1,7.5,2.7,11.4
	c0,0,0.5,8.4,0.2,12.8h-61.1C249.6,239.8,239.8,213.1,252.7,208.6z"/>
<path class="st2" d="M310.5,226.9c-13.6-3.8-27.6-6.3-41.7-7.4c-2.3-0.2-4-2.1-3.8-4.4c0.1-1.1,0.6-2.1,1.5-2.9l7-5.9
	c-7.1,0.1-14.3,0.6-21.3,1.6c-12.8,4.5-3.3,31.8-3.3,31.8h62.3C311.4,235.5,311.2,231.2,310.5,226.9z"/>
<path class="st1" d="M246.7,256.4l0-13c0.3-2.8,0.9-5.5,1.7-8.2c1.8-5.5,7-9.3,12.8-9.2c11.9,0.1,36.5,1.6,54.6,11.5
	c3.3,1.7,5.4,5,5.8,8.7l1,10.8l0.3,10.9L246.7,256.4z"/>
<path class="st2" d="M322.6,257c-31.5-16.5-66.1-14.6-75.9-13.6c-0.5,4.3-0.8,8.6-0.7,12.9l77.6,11.7L322.6,257z"/>
<path class="st4" d="M230.5,167.4l-60.5,8.8l-60.5-8.8l-25.4,35.2c0,0,8,17.1,21.8,27.6c6.5,4.9,15.4,5,22.1,0.3l10.4-7.3
	c0.7-0.5,1.4-0.9,2.2-1.2c0.5-0.2,1.1,0,1.3,0.5c0.1,0.3,0.1,0.7-0.1,1c-2,3.1-4.2,8.3-0.7,12.4c7.3,8.1,16.8,14,27.3,17
	c1,0.3,2,0.3,2.9,0c10.5-2.9,20-8.8,27.3-17c3.7-4.4,1.8-9.2-0.2-12.2c-0.3-0.5-0.2-1.1,0.3-1.4c0.3-0.2,0.7-0.2,1-0.1
	c0.6,0.3,1.2,0.6,1.8,1l10.4,7.3c6.6,4.7,15.6,4.6,22.1-0.3c13.8-10.4,21.8-27.6,21.8-27.6L230.5,167.4z"/>
<path class="st5" d="M248.2,215.3c0.1-0.2,0.3-0.4,0.4-0.6c0.4-0.6,0.8-1.2,1.2-1.7c0-0.1,0.1-0.1,0.1-0.2l0,0
	c2.2-3.2,4.2-6.6,5.9-10.2l-25.3-35.2l-60.5,8.8l-60.5-8.8l-25.4,35.2c1.7,3.5,3.7,6.9,5.9,10.2l0,0c0,0.1,0.1,0.2,0.2,0.2
	c0.4,0.6,0.8,1.2,1.3,1.8c0.1,0.1,0.2,0.2,0.3,0.4c0.4,0.5,0.8,1,1.2,1.6c0.2,0.2,0.3,0.4,0.5,0.6c0.1,0.1,0.2,0.2,0.2,0.3h0
	c3.5,4.7,7.7,8.9,12.3,12.5c6.5,4.9,15.4,5,22.1,0.3c-5.7,1.7-13.3-2.7-13.3-2.7c-16.9-9.3-10-19.5-10-19.5l-0.1,0
	c0.8-1,1.5-2.2,2.3-3.4l13.3-17.7c0,0,16.3,7.2,50,7.2l0,0h0.5l0,0c33.6-0.1,50-7.2,50-7.2l13.3,17.7c0.7,1.1,1.4,2.1,2,3h0
	c0,0,6.4,10.6-10.5,19.9c0,0-8.3,5.4-13.3,2.7c6.6,4.7,15.6,4.6,22.1-0.3c4.7-3.7,8.9-8,12.5-12.8l0,0c0,0,0.1-0.1,0.1-0.1
	c0.1-0.2,0.3-0.4,0.4-0.6C247.5,216.2,247.9,215.8,248.2,215.3z"/>
<path class="st2" d="M224.3,169.1c2,9.7,1,16.7-1,21.6c-2.6,6.4-8.9,10.6-15.8,10.7c-4.1,0.1-8.2-0.2-12.3-0.9
	c-5.2-0.9-9.7-4.3-11.9-9.2l-5.1-11.3l0.2-5.1l45.8-6.6V169.1z"/>
<path class="st1" d="M272.6,105.7c-4.4,9.4-15.8,30.3-35.1,44.2c0,0-11.3,10-19.5,12.4l30.6,41.5c3.5,4.7,8.7,6.6,13.6,3.4
	c1-0.5,2-1,3.1-1.4c13.7-9.5,35.7-28.6,43.9-58.3c1.6-5.7,0-11.8-4.2-16.1l-26.5-26.7c-1.4-1.4-3.8-1.5-5.2,0
	C273,104.9,272.8,105.3,272.6,105.7z"/>
<ellipse transform="matrix(0.1602 -0.9871 0.9871 0.1602 74.9238 383.6803)" class="st2" cx="262.9" cy="147.8" rx="9.2" ry="9.2"/>
<path class="st1" d="M254,250c-2.3,0.2-4.6,1-6.5,2.3c-2.6,1.8-5.2,5.1-5.5,10.8v8.7c0,5,3.9,9.2,8.9,9.5
	c15.3,1.1,47.2,4.4,69.4,14.5c3.4,1.6,7.4,0.1,8.9-3.3c0.4-0.9,0.6-1.8,0.6-2.8v-14c0-4.9-2.9-9.4-7.4-11.4
	C309.8,258.2,282.2,247.2,254,250z"/>
<path class="st2" d="M115.7,169.1c-2,9.7-1,16.7,1,21.6c2.6,6.4,8.9,10.6,15.8,10.7c4.1,0.1,8.2-0.2,12.3-0.9
	c5.2-0.9,9.7-4.3,11.9-9.2l5.1-11.3l-0.2-5.1l-45.8-6.6L115.7,169.1z"/>
<path class="st1" d="M67.4,105.7c4.5,9.5,16,30.6,35.5,44.5c0,0,11.4,9.4,19.4,11.8l-30.9,42.3c-3.5,4.7-9.2,5.9-14.1,2.7l-2.5-1.1
	c-13.7-9.4-35.8-28.6-44-58.4c-1.6-5.7,0-11.8,4.2-16.1l26.5-26.7c1.4-1.4,3.8-1.5,5.2,0C67,104.9,67.2,105.3,67.4,105.7z"/>
<circle class="st2" cx="77.1" cy="147.8" r="9.2"/>
<path class="st2" d="M77.3,207.5c4.9,3.2,11.4,2,14.9-2.7l32.2-44.1c-7.7-2.3-15-5.9-21.5-10.6c-0.1,0.1-0.2,0.2-0.3,0.4
	c-2.5,2.9-6.3,9.1-6.4,19c0,1.4,0.4,2.7,1.3,3.8c1.7,2.2,1.7,5.4-0.1,7.6l-18.2,22.8c-1.1,1.4-2.7,2.2-4.4,2.1
	C75.7,206.4,76.5,207,77.3,207.5z"/>
<path class="st2" d="M261.5,203.7l-18.2-22.8c-1.8-2.2-1.8-5.3-0.1-7.6c0.8-1.1,1.3-2.4,1.3-3.8c-0.1-9.9-4-16.1-6.4-19
	c-0.2-0.2-0.4-0.5-0.7-0.7c-6.6,4.9-14.1,8.5-22,10.9l32.2,44.1c3.5,4.7,10,5.9,14.9,2.7c0.8-0.5,1.7-1.1,2.6-1.7
	C263.8,205.6,262.4,204.8,261.5,203.7z"/>
<path class="st4" d="M236,163.3c-3.1-10.9-9.6-15.5-14.6-17.4c-3.2-1.2-6.7-1.3-9.9-0.3l-41.5,13l-41.5-13c-3.2-1-6.7-0.9-9.9,0.3
	c-5,1.9-11.5,6.5-14.6,17.4c-1.1,4.1,1,8.4,4.9,10.1c10.1,4.2,31.7,11.5,61.1,11.5s51-7.3,61.1-11.5
	C235,171.7,237.1,167.4,236,163.3z"/>
<path class="st5" d="M226.5,148.7c-1.6-1.1-3.3-2.1-5.1-2.8c-3.2-1.2-6.7-1.3-9.9-0.3l-41.5,13l-41.5-13c-3.2-1-6.7-0.9-9.9,0.3
	c-1.3,0.5-2.5,1.1-3.7,1.9c3.7,5.3,19.4,24,55.5,24C201.4,171.7,219.2,156.6,226.5,148.7z"/>
<path class="st0" d="M243.2,19.1c-6.7,2.7-12.5,7-17,12.6c-3.4,4.1-8.7,6.1-14,5.3c-2.1-0.3-4.3-0.3-6.5,0c-3.8,0.5-6.5,4.1-6,7.9
	c0.2,1.6,1,3.1,2.2,4.2c27.5,25.1,13.4,63,13.4,63c-11.5,31.9-45.4,29.2-45.4,29.2s-33.9,2.6-45.4-29.2c0,0-14.1-37.9,13.4-63
	c2.9-2.6,3.1-7.1,0.5-9.9c-1.1-1.2-2.6-2-4.2-2.2c-2.2-0.3-4.3-0.3-6.5,0c-5.3,0.8-10.6-1.2-14-5.3c-4.5-5.6-10.3-9.9-17-12.6
	c-2.5-1-5.4,0.2-6.5,2.7c-0.6,1.4-0.5,3,0.3,4.3l0.2,0.4c5.5,9.9,7.8,21.2,6.7,32.5C95.4,82.6,94,161.5,170,164.9
	c76-3.4,74.6-82.2,72.4-105.8c-1.1-11.3,1.3-22.6,6.7-32.5c0.1-0.1,0.1-0.3,0.2-0.4c1.4-2.4,0.5-5.4-1.8-6.8
	C246.2,18.6,244.6,18.5,243.2,19.1z"/>
<path class="st3" d="M181.6,155.7c5.5-4.2,8.8-10.7,8.9-17.7c-6.5,2.5-13.5,3.7-20.6,3.5c-7,0.3-14-0.9-20.6-3.5
	c0.1,6.9,3.4,13.5,8.9,17.7c3.4,2.5,7.4,3.9,11.6,4.1C174.2,159.6,178.2,158.2,181.6,155.7z"/>
<path class="st2" d="M295.1,156.1c-2.2,0-4-1.8-4-4s1.8-4,4-4c1.1,0,2.1,0.4,2.8,1.2c1.6,1.6,1.6,4.1,0,5.7
	C297.2,155.7,296.2,156.1,295.1,156.1z"/>
<path class="st2" d="M281.7,177.1c-1.1,0-2.1-0.4-2.8-1.2c-0.2-0.2-0.3-0.4-0.5-0.6c-0.3-0.4-0.5-0.9-0.6-1.4c-0.1-0.5-0.1-1,0-1.6
	c0.1-0.5,0.3-1,0.6-1.4c0.3-0.4,0.7-0.8,1.1-1.1c0.4-0.3,0.9-0.5,1.4-0.6c0.5-0.1,1-0.1,1.6,0c0.5,0.1,1,0.3,1.4,0.6
	c0.2,0.1,0.4,0.3,0.6,0.5c0.2,0.2,0.3,0.4,0.5,0.6c0.1,0.2,0.3,0.5,0.4,0.7c0.1,0.2,0.2,0.5,0.2,0.8c0.1,0.5,0.1,1,0,1.6
	c-0.1,0.3-0.1,0.5-0.2,0.8c-0.1,0.2-0.2,0.5-0.4,0.7c-0.3,0.4-0.7,0.8-1.1,1.1c-0.2,0.1-0.5,0.3-0.7,0.4c-0.2,0.1-0.5,0.2-0.8,0.2
	C282.2,177.1,282,177.1,281.7,177.1z"/>
<path class="st2" d="M264.8,194.2c-0.3,0-0.5,0-0.8-0.1c-0.3-0.1-0.5-0.1-0.7-0.2c-0.2-0.1-0.5-0.2-0.7-0.4
	c-0.2-0.1-0.4-0.3-0.6-0.5c-0.2-0.2-0.4-0.4-0.5-0.6c-0.1-0.2-0.3-0.4-0.4-0.7c-0.1-0.2-0.2-0.5-0.2-0.8c-0.1-0.5-0.1-1,0-1.6
	c0.1-0.5,0.3-1,0.6-1.4c0.1-0.2,0.3-0.4,0.5-0.6c0.2-0.2,0.4-0.3,0.6-0.5c0.2-0.1,0.5-0.3,0.7-0.4c0.2-0.1,0.5-0.2,0.7-0.2
	c0.5-0.1,1.1-0.1,1.6,0c0.3,0.1,0.5,0.1,0.8,0.2c0.2,0.1,0.5,0.2,0.7,0.4c0.2,0.2,0.4,0.3,0.6,0.5c0.2,0.2,0.4,0.4,0.5,0.6
	c0.3,0.4,0.5,0.9,0.6,1.4c0.1,0.5,0.1,1,0,1.6c-0.1,0.5-0.3,1-0.6,1.4c-0.1,0.2-0.3,0.4-0.5,0.6c-0.2,0.2-0.4,0.3-0.6,0.5
	c-0.2,0.1-0.4,0.3-0.7,0.4c-0.2,0.1-0.5,0.2-0.8,0.2C265.3,194.1,265,194.2,264.8,194.2z"/>
<path class="st2" d="M294.1,220.5c-0.3,0-0.5,0-0.8-0.1c-0.3-0.1-0.5-0.1-0.8-0.2c-0.2-0.1-0.5-0.2-0.7-0.4
	c-0.2-0.1-0.4-0.3-0.6-0.5c-0.2-0.2-0.3-0.4-0.5-0.6c-0.3-0.4-0.5-0.9-0.6-1.4c-0.1-0.3-0.1-0.5-0.1-0.8c0-1.1,0.4-2.1,1.2-2.8
	c0.2-0.2,0.4-0.3,0.6-0.5c0.2-0.1,0.4-0.3,0.7-0.4c2-0.8,4.4,0.1,5.2,2.2c0.6,1.5,0.3,3.2-0.9,4.3c-0.2,0.2-0.4,0.3-0.6,0.5
	c-0.2,0.1-0.4,0.3-0.7,0.4c-0.2,0.1-0.5,0.2-0.8,0.2C294.6,220.5,294.4,220.5,294.1,220.5z"/>
<path class="st2" d="M300.3,245.4c-2.2,0-4-1.8-4-4c0-1.1,0.4-2.1,1.2-2.8c0.2-0.2,0.4-0.4,0.6-0.5c0.2-0.1,0.4-0.3,0.7-0.4
	c0.2-0.1,0.5-0.2,0.8-0.2c0.5-0.1,1-0.1,1.6,0c0.3,0.1,0.5,0.1,0.8,0.2c0.2,0.1,0.5,0.2,0.7,0.4c0.2,0.1,0.4,0.3,0.6,0.5
	c1.6,1.6,1.6,4.1,0,5.6c-0.2,0.2-0.4,0.4-0.6,0.5c-0.4,0.3-0.9,0.5-1.4,0.6C300.8,245.4,300.5,245.4,300.3,245.4z"/>
<path class="st2" d="M275.2,240.5c-1.3,0-2.6-0.7-3.3-1.8c-0.3-0.4-0.5-0.9-0.6-1.4c-0.1-0.5-0.1-1,0-1.6c0.1-0.5,0.3-1,0.6-1.4
	c1.2-1.8,3.7-2.3,5.5-1.1c0.2,0.1,0.4,0.3,0.6,0.5c0.2,0.2,0.3,0.4,0.5,0.6c0.1,0.2,0.3,0.5,0.4,0.7c0.1,0.2,0.2,0.5,0.2,0.8
	c0.1,0.5,0.1,1,0,1.6c-0.1,0.3-0.1,0.5-0.2,0.8c-0.1,0.2-0.2,0.5-0.4,0.7c-0.2,0.2-0.3,0.4-0.5,0.6
	C277.3,240.1,276.3,240.5,275.2,240.5z"/>
<path class="st2" d="M272.6,269.4c-0.3,0-0.5,0-0.8-0.1c-0.3-0.1-0.5-0.1-0.8-0.2c-0.2-0.1-0.5-0.2-0.7-0.4
	c-0.2-0.1-0.4-0.3-0.6-0.5c-0.2-0.2-0.4-0.4-0.5-0.6c-0.1-0.2-0.3-0.4-0.4-0.7c-0.1-0.2-0.2-0.5-0.2-0.8c-0.1-0.3-0.1-0.5-0.1-0.8
	c0-0.3,0-0.5,0.1-0.8c0.1-0.3,0.1-0.5,0.2-0.8c0.1-0.2,0.2-0.5,0.4-0.7c0.1-0.2,0.3-0.4,0.5-0.6c0.9-0.9,2.3-1.4,3.6-1.1
	c0.3,0.1,0.5,0.1,0.7,0.2c0.5,0.2,0.9,0.5,1.3,0.9c0.2,0.2,0.4,0.4,0.5,0.6c0.1,0.2,0.3,0.4,0.4,0.7c0.1,0.2,0.2,0.5,0.2,0.8
	c0,0.3,0.1,0.5,0.1,0.8C276.7,267.6,274.9,269.4,272.6,269.4C272.7,269.4,272.7,269.4,272.6,269.4L272.6,269.4z"/>
<path class="st2" d="M302.8,276.1c-2.2,0-4-1.8-4-4c0-1.1,0.4-2.1,1.2-2.8c1.6-1.6,4.1-1.6,5.7,0c1.6,1.6,1.6,4.1,0,5.7
	C304.9,275.7,303.9,276.1,302.8,276.1z"/>
<path class="st2" d="M45.9,220.5c-0.3,0-0.5,0-0.8-0.1c-0.3-0.1-0.5-0.1-0.8-0.2c-0.2-0.1-0.5-0.2-0.7-0.4c-0.2-0.1-0.4-0.3-0.6-0.5
	c-0.2-0.2-0.4-0.4-0.5-0.6c-0.1-0.2-0.3-0.4-0.4-0.7c-0.1-0.2-0.2-0.5-0.2-0.8c-0.1-0.3-0.1-0.5-0.1-0.8c0-1.1,0.4-2.1,1.2-2.8
	c0.2-0.2,0.4-0.4,0.6-0.5c0.2-0.1,0.4-0.3,0.7-0.4c0.2-0.1,0.5-0.2,0.8-0.2c2.2-0.4,4.3,1,4.7,3.1c0.3,1.3-0.1,2.7-1.1,3.6
	c-0.2,0.2-0.4,0.3-0.6,0.5c-0.2,0.1-0.4,0.3-0.7,0.4c-0.2,0.1-0.5,0.2-0.8,0.2C46.4,220.5,46.1,220.5,45.9,220.5z"/>
<path class="st2" d="M39.7,245.4c-0.3,0-0.5,0-0.8-0.1c-0.3-0.1-0.5-0.1-0.8-0.2c-0.2-0.1-0.5-0.2-0.7-0.4c-0.2-0.1-0.4-0.3-0.6-0.5
	c-1.6-1.6-1.6-4.1,0-5.6c0.2-0.2,0.4-0.4,0.6-0.5c0.2-0.1,0.4-0.3,0.7-0.4c0.2-0.1,0.5-0.2,0.8-0.2c0.5-0.1,1-0.1,1.6,0
	c0.3,0.1,0.5,0.1,0.8,0.2c0.2,0.1,0.5,0.2,0.7,0.4c0.2,0.1,0.4,0.3,0.6,0.5c1.6,1.6,1.6,4.1,0,5.7C41.8,245,40.8,245.4,39.7,245.4
	L39.7,245.4z"/>
<path class="st2" d="M64.8,240.5c-1.1,0-2.1-0.4-2.8-1.2c-0.2-0.2-0.3-0.4-0.5-0.6c-0.1-0.2-0.3-0.5-0.4-0.7
	c-0.1-0.2-0.2-0.5-0.2-0.8c-0.1-0.5-0.1-1,0-1.6c0.1-0.3,0.1-0.5,0.2-0.8c0.1-0.2,0.2-0.5,0.4-0.7c0.2-0.2,0.3-0.4,0.5-0.6
	c1.6-1.6,4.1-1.6,5.7,0s1.6,4.1,0,5.7c-0.2,0.2-0.4,0.3-0.6,0.5c-0.2,0.1-0.4,0.3-0.7,0.4c-0.2,0.1-0.5,0.2-0.8,0.2
	C65.3,240.5,65,240.5,64.8,240.5z"/>
<path class="st2" d="M67.3,269.4c-2.2,0-4-1.8-4-4c0,0,0,0,0,0c0-0.3,0-0.5,0.1-0.8c0.1-0.3,0.1-0.5,0.2-0.8
	c0.1-0.2,0.2-0.5,0.4-0.7c0.1-0.2,0.3-0.4,0.5-0.6c0.4-0.4,0.8-0.7,1.3-0.9c0.2-0.1,0.5-0.2,0.7-0.2c0.5-0.1,1.1-0.1,1.6,0
	c0.3,0.1,0.5,0.1,0.8,0.2c0.2,0.1,0.5,0.2,0.7,0.4c0.4,0.3,0.8,0.7,1.1,1.1c0.1,0.2,0.3,0.4,0.4,0.7c0.1,0.2,0.2,0.5,0.2,0.8
	c0.1,0.3,0.1,0.5,0.1,0.8C71.3,267.6,69.6,269.4,67.3,269.4z"/>
<path class="st2" d="M37.2,276.1c-2.2,0-4-1.8-4-4c0-2.2,1.8-4,4-4s4,1.8,4,4C41.2,274.3,39.4,276.1,37.2,276.1
	C37.2,276.1,37.2,276.1,37.2,276.1z"/>
<path class="st2" d="M44.9,156.1c-2.2,0-4-1.8-4-4c0-2.2,1.8-4,4-4c2.2,0,4,1.8,4,4c0,1.1-0.4,2.1-1.2,2.8
	C47,155.7,45.9,156.1,44.9,156.1z"/>
<path class="st2" d="M58.3,177.1c-0.3,0-0.5,0-0.8-0.1c-0.3-0.1-0.5-0.1-0.8-0.2c-0.2-0.1-0.5-0.2-0.7-0.4c-0.4-0.3-0.8-0.7-1.1-1.1
	c-0.1-0.2-0.3-0.5-0.4-0.7c-0.1-0.2-0.2-0.5-0.2-0.8c-0.1-0.5-0.1-1,0-1.6c0.1-0.3,0.1-0.5,0.2-0.8c0.1-0.2,0.2-0.5,0.4-0.7
	c0.2-0.2,0.3-0.4,0.5-0.6c0.2-0.2,0.4-0.3,0.6-0.5c0.4-0.3,0.9-0.5,1.4-0.6c0.5-0.1,1-0.1,1.6,0c0.5,0.1,1,0.3,1.4,0.6
	c0.2,0.1,0.4,0.3,0.6,0.5c0.2,0.2,0.3,0.4,0.5,0.6c0.1,0.2,0.3,0.5,0.4,0.7c0.1,0.2,0.2,0.5,0.2,0.8c0.1,0.5,0.1,1,0,1.6
	c-0.1,0.3-0.1,0.5-0.2,0.8c-0.1,0.2-0.2,0.5-0.4,0.7c-0.3,0.4-0.7,0.8-1.1,1.1c-0.2,0.1-0.5,0.3-0.7,0.4c-0.2,0.1-0.5,0.2-0.8,0.2
	C58.8,177.1,58.5,177.1,58.3,177.1z"/>
<path class="st2" d="M75.2,194.2c-2.2,0-4-1.8-4-4l0,0c0-0.3,0-0.5,0.1-0.8c0.1-0.5,0.3-1,0.6-1.4c0.1-0.2,0.3-0.4,0.5-0.6
	c0.9-0.9,2.3-1.3,3.6-1.1c0.3,0.1,0.5,0.1,0.7,0.2c0.5,0.2,0.9,0.5,1.3,0.9c0.2,0.2,0.4,0.4,0.5,0.6c0.3,0.4,0.5,0.9,0.6,1.4
	c0.1,0.5,0.1,1,0,1.6c-0.1,0.5-0.3,1-0.6,1.4c-0.1,0.2-0.3,0.4-0.5,0.6C77.3,193.7,76.3,194.1,75.2,194.2z"/>
<path class="st2" d="M235.4,187.8l4.8,6.5c27.3-15.1,48.3-39.5,59.2-68.8l-6.3-6.4C283,148.4,262.5,172.9,235.4,187.8z"/>
<path class="st2" d="M47.1,119.2l-6.3,6.4c10.8,29.3,31.8,53.7,59.2,68.8l4.8-6.5C77.5,172.9,57,148.4,47.1,119.2z"/>
<path class="st0" d="M183.9,126.9c-4.9-7.6-13.9-7.6-13.9-7.6s-8.9,0-13.9,7.6c-4.9,7.7-2.9,17.9,4.5,23.2c2.8,1.9,6,3,9.3,3.1
	c3.3-0.2,6.6-1.2,9.3-3.1C186.8,144.8,188.8,134.6,183.9,126.9z"/>
<path class="st6" d="M168.6,130.6c1-1.7,2.4-3.1,4.3-4c0.6-0.3,0.8-1,0.5-1.6c-0.2-0.3-0.4-0.5-0.8-0.6c-0.9-0.2-1.7-0.4-2.6-0.4
	c0,0-6.8-0.7-10,5.5c-3,5.8-2.1,13,3.3,16.7c2,1.4,4.3,2.2,6.7,2.3h0c0.6-0.1,1.1-0.6,1.1-1.3c0-0.3-0.2-0.6-0.4-0.8
	C167.9,144,164.1,138.9,168.6,130.6z"/>
<path class="st7" d="M138.3,95.4c0.8,3.2,1.9,6.4,3.4,9.4c1.2,2.3,4,3.2,6.3,2.1c0.8-0.4,1.5-1.1,2-1.9c3.2-5.8,7-11.2,11.3-16.2
	c1.3-1.5,1.2-3.7-0.3-5c-0.9-0.8-2-1.1-3.2-0.8c-6.3,1.4-12.3,4-17.6,7.5C138.6,91.6,137.8,93.5,138.3,95.4z"/>
<path class="st8" d="M165.8,210.9v27.5c0,2-1.7,3.7-3.7,3.7c-0.5,0-0.9-0.1-1.4-0.3c-3.3-1.2-6.4-2.9-9.3-5
	c-3.3-2.6-4.6-6.9-3.4-10.9c2.1-6.5,5.5-12.6,9.9-17.8c0.8-1,2.1-1.6,3.4-1.6l0,0C163.8,206.5,165.8,208.5,165.8,210.9
	C165.8,210.9,165.8,210.9,165.8,210.9z"/>
</svg>
