<?xml version="1.0" standalone="no"?>
<!DOCTYPE svg PUBLIC "-//W3C//DTD SVG 20010904//EN"
 "http://www.w3.org/TR/2001/REC-SVG-20010904/DTD/svg10.dtd">
<svg version="1.0" xmlns="http://www.w3.org/2000/svg"
 width="200.000000pt" height="200.000000pt" viewBox="0 0 200.000000 200.000000"
 preserveAspectRatio="xMidYMid meet">

<g transform="translate(0.000000,200.000000) scale(0.100000,-0.100000)"
fill="#000000" stroke="none">
<path d="M845 1994 c-11 -3 -51 -12 -90 -21 -38 -9 -108 -32 -155 -52 -274
-118 -477 -349 -566 -646 -25 -82 -27 -105 -28 -265 -1 -199 11 -264 73 -410
118 -275 352 -479 646 -566 123 -36 343 -45 461 -19 112 24 157 40 254 87 112
55 300 196 300 226 0 6 6 15 13 19 24 15 101 127 143 208 22 44 54 125 70 180
27 93 29 112 29 265 0 187 -13 257 -74 400 -95 220 -283 414 -496 511 -140 63
-226 81 -400 85 -88 1 -169 1 -180 -2z m370 -133 c105 -27 245 -97 334 -166
39 -31 71 -59 71 -63 0 -21 -70 -123 -115 -168 -39 -39 -66 -56 -105 -68 -101
-30 -109 -17 -65 92 14 34 25 72 25 85 0 35 -44 116 -96 175 -71 81 -86 65
-34 -38 37 -73 38 -120 4 -188 -23 -47 -74 -102 -93 -102 -4 0 -16 16 -27 35
-23 44 -42 46 -36 5 9 -60 -58 -92 -108 -52 -13 10 -26 35 -30 58 l-7 39 -18
-37 c-23 -46 -37 -48 -68 -5 -60 82 -64 145 -14 272 19 50 32 92 30 95 -7 7
-122 -119 -141 -155 -18 -34 -21 -108 -9 -211 10 -86 5 -90 -79 -66 -44 12
-68 27 -100 60 -46 47 -114 167 -114 200 0 13 25 37 76 72 115 80 222 120 404
154 54 10 238 -4 315 -23z m-865 -299 c0 -48 29 -140 56 -182 37 -56 97 -97
176 -121 85 -25 119 -53 111 -92 -5 -23 -13 -29 -62 -42 -173 -46 -209 -58
-242 -81 -64 -44 -106 -144 -144 -339 l-22 -120 -28 60 c-105 232 -97 538 22
764 47 91 54 101 64 101 5 0 9 5 9 11 0 13 42 68 53 68 4 1 7 -12 7 -27z
m1407 -113 c117 -193 153 -456 93 -677 l-23 -84 -36 109 c-62 187 -131 268
-256 304 -172 50 -284 93 -272 105 2 2 56 17 119 33 125 32 181 56 214 93 21
23 82 125 96 161 12 28 29 16 65 -44z m-690 -508 c32 -47 29 -81 -8 -117 l-31
-29 -29 35 c-35 41 -38 86 -8 124 27 34 47 30 76 -13z m-482 -5 c19 -13 19
-15 2 -33 -9 -11 -41 -37 -72 -59 -32 -23 -59 -51 -65 -68 -18 -52 23 -170
137 -394 112 -220 111 -216 18 -169 -103 51 -246 169 -298 244 l-27 39 30 73
c17 40 30 78 30 83 0 29 102 238 132 269 29 33 80 39 113 15z m982 -1 c32 -22
70 -94 118 -220 65 -172 65 -179 11 -251 -72 -97 -186 -193 -293 -248 -39 -19
-45 -5 -15 35 26 36 39 61 116 214 65 132 70 145 74 221 5 97 -6 124 -78 185
-27 23 -50 48 -50 55 0 24 86 31 117 9z m-123 -163 c24 -46 -6 -167 -86 -347
-41 -91 -76 -202 -77 -241 -1 -18 -12 -24 -68 -39 -102 -26 -272 -31 -374 -10
-46 9 -85 18 -86 19 -1 1 -11 44 -23 96 -11 52 -35 129 -52 170 -44 106 -67
194 -75 276 -10 126 18 112 135 -65 88 -134 158 -207 230 -240 47 -22 56 -23
88 -12 36 13 194 161 207 194 3 9 11 17 17 17 5 0 10 5 10 10 0 6 12 27 28 48
15 21 38 64 51 95 28 65 52 74 75 29z"/>
</g>
</svg>
