<?xml version="1.0" encoding="utf-8"?>
<!-- Generator: Adobe Illustrator 24.1.2, SVG Export Plug-In . SVG Version: 6.00 Build 0)  -->
<svg version="1.1" xmlns="http://www.w3.org/2000/svg" xmlns:xlink="http://www.w3.org/1999/xlink" x="0px" y="0px"
     width="40px" height="40px" viewBox="0 0 40 40" style="enable-background:new 0 0 40 40;" xml:space="preserve">
<style type="text/css">
	.st0{fill:#292929;}
	.st1{display:none;}
	.st2{display:inline;fill:#CC0000;}
	.st3{font-family:'L5R-Icons';}
	.st4{font-size:21px;}
	.st5{display:inline;}
	.st6{fill:#CC0000;}
	.st7{font-size:30px;}
</style>
<g id="ring_x5F_blank">
	<g>
		<rect x="0.5" y="0.5" width="39" height="39"/>
		<path class="st0" d="M39,1v38H1V1H39 M40,0H0v40h40V0L40,0z"/>
	</g>
</g>
<g id="ring_x5F_et" class="st1">
	<text transform="matrix(1 0 0 1 16.9819 21.7003)" class="st2 st3 st4"></text>
	<g class="st5">
		<text transform="matrix(1 0 0 1 2.4357 36.7121)" class="st6 st3 st4"></text>
	</g>
</g>
<g id="ring_x5F_et_1_">
	<g>
		<path class="st6" d="M17.74,12.94c-0.23-1.54,0.09-3.09,0.96-4.63s2.13-2.88,3.77-4c1.65-1.12,3.37-1.64,5.15-1.56
			c-0.83,0.26-1.64,0.56-2.42,0.9c-0.78,0.33-1.46,0.8-2.03,1.4s-1,1.4-1.27,2.39c-0.27,1-0.33,2.28-0.16,3.83
			c0.29-0.03,0.57-0.01,0.86,0.04s0.57,0.16,0.84,0.31c0.64,0.37,1.06,0.91,1.25,1.62s0.1,1.39-0.29,2.03
			c-0.33,0.59-0.81,0.99-1.45,1.2s-1.25,0.19-1.86-0.05C19.09,15.66,17.97,14.5,17.74,12.94z M21.27,18.99
			c0.68,0.51,1.43,0.85,2.25,1.05s1.71,0.16,2.7-0.1c1-0.25,2.13-0.83,3.4-1.76c-0.18-0.23-0.31-0.49-0.41-0.77
			s-0.14-0.57-0.14-0.87c0-0.74,0.26-1.37,0.79-1.9s1.16-0.79,1.9-0.79c0.67,0,1.25,0.22,1.75,0.67s0.8,0.99,0.89,1.63
			c0.34,2.12-0.1,3.67-1.33,4.66s-2.73,1.48-4.5,1.5S25,21.88,23.2,21c-1.79-0.86-3.1-2.08-3.92-3.65
			C19.92,17.94,20.58,18.49,21.27,18.99z M31.17,8.64c-0.19,0.22-0.42,0.41-0.68,0.57c-0.64,0.37-1.32,0.46-2.03,0.27
			s-1.25-0.61-1.62-1.25c-0.34-0.59-0.45-1.21-0.32-1.87s0.45-1.18,0.97-1.58c1.67-1.35,3.23-1.74,4.7-1.17s2.64,1.62,3.54,3.15
			s1.42,3.28,1.57,5.28s-0.25,3.74-1.21,5.23c0.19-0.86,0.33-1.71,0.43-2.54c0.11-0.85,0.04-1.67-0.21-2.47s-0.72-1.56-1.44-2.29
			c-0.72-0.74-1.81-1.42-3.26-2.05C31.52,8.18,31.36,8.42,31.17,8.64z"/>
	</g>
	<g>
		<g>
			<path class="st6" d="M14.43,17.94c0.23-0.17,0.49-0.26,0.78-0.26c0.38,0,0.71,0.15,0.98,0.45s0.41,0.66,0.41,1.07
				c0,0.42-0.14,0.78-0.41,1.08s-0.6,0.44-0.98,0.44c-2.43,0.18-4.42,0.76-5.97,1.74c-1.54,1-2.6,2.16-3.17,3.49
				s-0.63,2.71-0.17,4.14s1.46,2.68,3.04,3.73c0.21-1.37,0.52-2.4,0.94-3.1s0.91-1.2,1.45-1.5s1.12-0.49,1.73-0.55
				c0.62-0.05,1.22-0.12,1.83-0.21l-0.57,4.41l1.93,1.99c1.48-1.08,2.52-2.14,3.12-3.18s0.84-2.06,0.71-3.08s-0.59-2.01-1.38-2.99
				c-0.81-0.98-1.88-1.96-3.22-2.91c2.02,0.9,3.58,1.87,4.68,2.91s1.7,2.15,1.83,3.34s-0.25,2.46-1.13,3.81
				c-0.88,1.34-2.27,2.76-4.18,4.27l-3.81-3.38l-0.06-3.12c-0.68,0.03-1.25,0.53-1.69,1.52s-0.69,2.75-0.73,5.31
				c-2.82-2.23-4.68-4.29-5.6-6.19c-0.9-1.89-1.09-3.61-0.56-5.17s1.66-2.95,3.41-4.18c1.74-1.23,3.84-2.3,6.32-3.22
				C14.03,18.33,14.2,18.11,14.43,17.94z"/>
		</g>
	</g>
</g>
<g id="ring_x5F_o" class="st1">
	<g class="st5">
		<text transform="matrix(1 0 0 1 5 33.5908)" class="st6 st3 st7"></text>
	</g>
</g>
<g id="ring_x5F_ot" class="st1">
	<text transform="matrix(1 0 0 1 16.9819 21.7003)" class="st2 st3 st4"></text>
	<g class="st5">
		<text transform="matrix(1 0 0 1 2.4357 36.7121)" class="st6 st3 st4"></text>
	</g>
</g>
<g id="ring_x5F_s" class="st1">
	<g class="st5">
		<text transform="matrix(1 0 0 1 5 33.5908)" class="st6 st3 st7"></text>
	</g>
</g>
<g id="ring_x5F_st" class="st1">
	<text transform="matrix(1 0 0 1 16.9819 21.7003)" class="st2 st3 st4"></text>
	<g class="st5">
		<text transform="matrix(1 0 0 1 2.4357 36.7121)" class="st6 st3 st4"></text>
	</g>
</g>
</svg>
