<?xml version="1.0" encoding="utf-8"?>
<!-- Generator: Adobe Illustrator 24.1.2, SVG Export Plug-In . SVG Version: 6.00 Build 0)  -->
<svg version="1.1" id="Calque_1" xmlns="http://www.w3.org/2000/svg" xmlns:xlink="http://www.w3.org/1999/xlink" x="0px" y="0px"
	 width="512px" height="512px" viewBox="0 0 512 512" style="enable-background:new 0 0 512 512;" xml:space="preserve">
<style type="text/css">
	.st0{fill:#CCCCCC;}
	.st1{fill:#FFF8C5;}
	.st2{fill:#666666;}
	.st3{fill:#999999;}
</style>
<g transform="translate(0,0)">
	<path class="st0" d="M437.4,90.5c-8.5,27.1-19.1,42.8-30.4,51.7c9.5,86.2-6.9,139.6-36.2,176.1c-29.5,36.7-70.6,55.7-107.8,76.8
		l-0.3-0.6c-25,65.3-80.1,86.5-90.4,96.2c22.8-4.8,59.3-12.9,99.3-27.1l13.9-25.7l14.8,12l19.4-24.2l18.9,8.6
		c45.4-24.3,87.8-58.1,112.5-105.4l-29.9-31.1c0,0,23.2,9.6,37.3,15.2c16-38.7,20.6-85.6,7.1-142.6l-19.7-8.5l14.7-10.4
		C454.9,132.2,447.2,111.9,437.4,90.5L437.4,90.5z"/>
</g>
<rect x="334.6" y="106.1" transform="matrix(0.5713 -0.8207 0.8207 0.5713 47.0077 332.2939)" class="st1" width="14" height="30"/>
<rect x="197.5" y="303.1" transform="matrix(0.5713 -0.8207 0.8207 0.5713 -173.4397 304.1939)" class="st1" width="14" height="30"/>
<path class="st2" d="M410.1,19.2c-30.3,24.2-54,38.4-64.2,48.6c-3.3,3.3-6.3,9-6.9,13.7c-0.6,4.7,0,7.4,3.7,9.9l0,0l26.2,18.3
	c3.3,2.3,5.4,1.8,9.3-0.8c3.9-2.5,7.7-7.9,9-11.8C392.2,82.1,397.5,56.5,410.1,19.2L410.1,19.2z"/>
<polygon class="st3" points="223.7,80.4 246.3,130.3 258.5,126.7 284.8,145 305.4,115.4 279.1,97.1 278.3,84.4 "/>
<polygon class="st3" points="153.8,180.9 176.6,230.5 188.8,226.8 215.1,245.1 234.6,217.1 208.5,198.5 207.8,185.6 "/>
<path class="st1" d="M337.9,184.3l-2,2.8l7.1,12.1l16.6-1.7c0.6-3.9,0.6-7.3-0.2-12.7C351.5,184.6,345.6,184.6,337.9,184.3z"/>
<g>
	<path class="st1" d="M389.8,151c-10.2,2.9-20.4,2.4-29.9,1.6l-9.7,13.9c4.5,0,9.6,0.1,17.1,0.4l7,0.3l1.4,6.9
		c3.1,15.4,2.4,23.2,0.2,33.5l-1.4,6.4l-41.2,4.3l-8.8-15l-39.8,57.2c7.5,7,12.3,17,16.9,27.7c5.5,12.9,9.9,27,13.2,37.7l-17.2,5.3
		c-3.3-10.6-7.5-24.2-12.6-35.9c-3.5-8.1-7.6-15.1-11-19.5L259.4,297c11.2-5.1,14.5-1.9,15.2,11.4c1.2,23.7-0.7,44.2-4.8,62.1
		c32.7-18.1,64.3-35.5,86.9-63.6C382,275.4,397.4,229.9,389.8,151z M371,241.5c-3.2,22.3-9.3,40.6-34.4,57l-6.2,4l-5.2-5.2
		c-7.1-7.2-13-15.6-16.6-24.3c-3.6-8.7-5.5-18.5,0-27.1c5.6-8.7,15.2-12.3,24.7-14c4.8-0.8,9.7-1.2,14.7-1.2v0c5,0,9.9,0.2,14.7,0.6
		l9.6,0.7L371,241.5z"/>
	<path class="st1" d="M336.4,249.6c-7,1.2-11.1,3.5-12.6,5.9c-0.5,0.7-1,4.6,1.5,10.5c1.7,4,4.5,8.6,7.9,12.8
		c12.5-9.4,16.1-17.6,18.4-30c-1.4,0-2.7,0-4,0C343.5,248.8,339.7,249,336.4,249.6z"/>
</g>
<rect x="178" y="204.6" transform="matrix(0.5713 -0.8207 0.8207 0.5713 -63.2206 318.2288)" class="st2" width="190" height="30"/>
<polygon class="st2" points="177.9,330.1 63.8,494 100.3,494 202.5,347.2 "/>
</svg>
