<?xml version="1.0" encoding="utf-8"?>
<!-- Generator: Adobe Illustrator 24.1.2, SVG Export Plug-In . SVG Version: 6.00 Build 0)  -->
<svg version="1.1" id="Calque_1" xmlns="http://www.w3.org/2000/svg" xmlns:xlink="http://www.w3.org/1999/xlink" x="0px" y="0px"
	 width="512px" height="512px" viewBox="0 0 512 512" style="enable-background:new 0 0 512 512;" xml:space="preserve">
<style type="text/css">
	.st0{fill:#75655A;}
	.st1{fill:#FFFCE1;}
</style>
<g transform="translate(0,0)">
	<path class="st0" d="M473.8,38.2c-1.9-1.8-3.9-3.5-6.1-4.9L462,43.6l2.4-12.2c-5.3-2.6-10.9-3.5-16.1-1.7l-0.8,0.8
		c0.7,7.7,4.9,16.1,11.4,22.5s14.8,10.7,22.5,11.4l0.8-0.8C485.1,55.2,480.9,45.3,473.8,38.2L473.8,38.2z M432.7,45.4L277.9,200.1
		l6.7,6.7l40.3-40.3l-31.5,49.1l18.4,18.4L466.6,79.3c-1.9-0.7-3.7-1.6-5.5-2.5l-26.5,13.7l18.6-18.6c-2.5-1.8-4.8-3.9-7-6.1
		C440.4,60,435.7,53,432.7,45.4L432.7,45.4z M218.8,327.2l-7.8-7.6l-26.3-26.3l-155,155c-3.4,10.2,3.4,22.4,13,29.3l61-61
		l-53.1,65.2c4.3,1.5,8.9,1.8,13,0.5L218.8,327.2L218.8,327.2z"/>
</g>
<polygon class="st1" points="265.2,212.9 249,229.1 297.6,245.3 265.2,212.9 "/>
<polygon class="st1" points="285.7,260.3 234.7,243.3 223.5,254.5 274.4,271.5 "/>
<polygon class="st1" points="260.2,285.7 242.4,279.8 231.4,314.5 "/>
<polygon class="st1" points="225.3,274.1 209.3,268.8 197.4,280.7 217,300.3 "/>
</svg>
