<?xml version="1.0" encoding="utf-8"?>
<!-- Generator: Adobe Illustrator 24.1.2, SVG Export Plug-In . SVG Version: 6.00 Build 0)  -->
<svg version="1.1" id="Calque_1" xmlns="http://www.w3.org/2000/svg" xmlns:xlink="http://www.w3.org/1999/xlink" x="0px" y="0px"
	 width="512px" height="512px" viewBox="0 0 512 512" style="enable-background:new 0 0 512 512;" xml:space="preserve">
<style type="text/css">
	.st0{fill:#75655A;}
	.st1{fill:#FFFCE1;}
	.st2{fill:#CCCCCC;}
	.st3{fill:#D3BD98;}
</style>
<g transform="translate(0,0)">
	<path class="st0" d="M331.7,20.4c-0.6,0-1.2,0.1-1.8,0.3c-27.7,11.5-47.3,57.5-29.9,76.7c33.5,38.9,72.8,55.6,90.1,128.4
		c2.6,20.1,1.2,40.1,0,60.3c-17.3,72.9-56.6,89.5-90.1,128.4c-17.4,19.2,2.2,65.1,29.9,76.7c9,3.8,28-26.2,21.8-25.2
		c-16.3,2.5-37.8-20.9-28.4-28.9c38.5-32.6,105.5-100.1,100.3-135.6c-2.2-15.1-9.4-30.4-15.6-45.5c6.2-15.2,13.4-30.5,15.6-45.5
		c5.2-35.5-61.8-102.9-100.3-135.6c-9.4-8,12-31.4,28.4-28.9C357.6,46.9,341.2,20.6,331.7,20.4L331.7,20.4z"/>
</g>
<polygon class="st1" points="303,125.6 303,386.4 321,368.9 321,143.1 "/>
<polygon class="st1" points="152,428.7 129,451.7 129,490.3 152,467.3 175,490.3 175,451.7 "/>
<polygon class="st2" points="152,24.2 130.6,77.8 152,99.3 173.4,77.8 "/>
<polygon class="st3" points="143,115.7 143,412.3 152,403.3 161,412.3 161,115.7 158.4,118.4 152,124.7 "/>
</svg>
