<?xml version="1.0" encoding="utf-8"?>
<!-- Generator: Adobe Illustrator 24.1.2, SVG Export Plug-In . SVG Version: 6.00 Build 0)  -->
<svg version="1.1" xmlns="http://www.w3.org/2000/svg" xmlns:xlink="http://www.w3.org/1999/xlink" x="0px" y="0px" width="512px"
	 height="512px" viewBox="0 0 512 512" style="enable-background:new 0 0 512 512;" xml:space="preserve">
<style type="text/css">
	.st0{fill:#75655A;}
	.st1{fill:#CCCCCC;}
	.st2{fill:#999999;}
	.st3{fill:#FFFCE1;}
</style>
<g id="Calque_1">
	<path class="st0" d="M360.4,110.1l-85.9,64.3l-168.1,188l-83,92.9l33.3,33.3l90.2-80.6l190.7-170.5l64.4-86L360.4,110.1z
		 M135.3,389.3l-8.8-0.7l-1.2-14.6l201.9-201.9l31.6-18.9l-18.9,31.6L135.3,389.3z"/>
	<path class="st1" d="M493.5,102c-0.3-4.4-1-9-4.8-12.8l-65.9-65.9c-3.8-3.8-8.4-4.5-12.8-4.8c-1.1-0.1-2.2-0.1-3.3-0.1l0,0
		c-3.4,0-6.9,0.4-10.3,1c-4.6,0.8-9,1.8-12.8,3.1c-3.8,1.3-6.8,2.3-9.7,4.6c-1.9,1.5-2.9,3.8-2.7,6.2l5,62.3
		c0.1,1.7,0.9,3.3,2.1,4.5l33.7,33.6c1.2,1.2,2.8,2,4.5,2.1l62.3,5c2.4,0.2,4.7-0.8,6.2-2.7c2.3-2.9,3.4-5.9,4.6-9.7
		c1.3-3.8,2.3-8.3,3.1-12.8C493.4,111.1,493.8,106.5,493.5,102z M478.5,113.3c-0.6,3.8-1.6,7.6-2.6,10.7c-0.4,1.3-0.5,1.3-0.9,2.2
		l-54.8-4.4l-29.9-29.9L385.8,37c0.9-0.4,0.9-0.5,2.2-0.9c3-1,6.9-2,10.7-2.6c2.8-0.5,5.7-0.7,8.1-0.8l0,0c0.8,0,1.6,0,2.3,0.1
		c2.4,0.2,3.7,0.9,3.7,0.8l65.7,65.7c-0.1,0,0.6,1.3,0.8,3.7C479.3,105.7,479.1,109.5,478.5,113.3z"/>
	<path class="st2" d="M203.9,58.3C158,48.2,120.3,44.1,94.8,22.8c-1.7-1.6-3.5-3-5.2-4.7L78.8,28.8l0,0
		c24.7,18.3,71.7,45.8,102.9,60.8c28.5,13.7,60.2,30.7,96.3,59.7l50.8-38.1C284.9,79.5,241.9,66.6,203.9,58.3z"/>
	<path class="st2" d="M489.2,417.2c-21.3-25.5-25.4-63.2-35.5-109.1c-8.3-38-21.2-81-53.1-125l-38.1,50.8c0,0,0,0,0,0
		c29,36.1,46,67.8,59.7,96.3c15,31.2,42.7,78.1,61,102.8H483c0.1,0.1,0.1,0.1,0.2,0.2l0.2-0.2h0v0l10.6-10.6
		C492.2,420.7,490.8,419,489.2,417.2z"/>
</g>
<g id="Calque_2">
	<polygon class="st3" points="100.4,43.6 126.5,388.6 470.3,414.1 483.2,433.2 109.8,404.2 78.9,28.9 	"/>
	<rect x="107.1" y="384.1" class="st2" width="22.9" height="22.9"/>
</g>
</svg>
