<?xml version="1.0" encoding="utf-8"?>
<!-- Generator: Adobe Illustrator 24.1.2, SVG Export Plug-In . SVG Version: 6.00 Build 0)  -->
<svg version="1.1" xmlns="http://www.w3.org/2000/svg" xmlns:xlink="http://www.w3.org/1999/xlink" x="0px" y="0px" width="512px"
	 height="512px" viewBox="0 0 512 512" style="enable-background:new 0 0 512 512;" xml:space="preserve">
<style type="text/css">
	.st0{fill:#D1D1D1;}
	.st1{fill:#999999;}
	.st2{fill:#666666;}
</style>
<g id="Calque_2">
	<path class="st0" d="M268.9,266.4c0,0,69.7,104.1,93.4,115.6c-6.1,1.6-13.1,1.7-20.5,0.8c-13.6-1.8-29.6-7.3-48.8-16.2
		c-32.6-15.2-74.2-40.6-124.7-76.6c4.5,14.9,12.7,28.9,24.5,40.7c38.4,38.4,295.7,156.8,295.7,156.8S370.3,230.1,331.9,191.7
		c-11.8-11.8-25.9-20-40.8-24.5c36.1,50.5,61.5,92.1,76.7,124.7c8.9,19.1,14.4,35.2,16.2,48.8c1,7.4,0.9,14.3-0.8,20.5
		C371.7,337.5,268.9,266.4,268.9,266.4"/>
</g>
<g id="Calque_1">
	<g transform="translate(0,0)">
		<path class="st1" d="M447.5,444.2C431,411.3,302.8,214.8,265,163c-0.8,0-1.6,0-2.5,0c-0.8,0-1.6,0-2.5,0
			c-10.8,0.3-21.6,2.3-31.9,6.1c-15-25-29.9-49.4-43.1-70.3C166.4,69.3,150,45.9,144,39.9c-14.2-14.2-32.8-21.3-51.4-21.3l0,0
			c-18.6,0-37.2,7.1-51.5,21.3c-28.5,28.5-28.5,74.4,0,102.9c6,6,29.4,22.4,58.9,41.1c20.9,13.2,45.2,28.1,70.3,43.1
			c-4.4,11.8-6.4,24.3-6.1,36.8C215.9,301.6,414.6,427.7,447.5,444.2L447.5,444.2L447.5,444.2L447.5,444.2z M86.3,42.3
			c23.4,0,42.2,18.8,42.2,42.2c0,23.4-18.8,42.2-42.2,42.2c-23.4,0-42.2-18.8-42.2-42.2S62.9,42.3,86.3,42.3L86.3,42.3z
			 M155.6,117.4c20.3,0,36.5,16.3,36.5,36.5c0,20.3-16.3,36.5-36.5,36.5c-20.3,0-36.5-16.3-36.5-36.5
			C119,133.7,135.3,117.4,155.6,117.4L155.6,117.4z M210.9,180.1c16.1,0,29,12.9,29,29s-12.9,29-29,29s-29-12.9-29-29
			C181.9,193,194.8,180.1,210.9,180.1z M254.6,233.3c10.9,0,19.6,8.7,19.6,19.6s-8.7,19.6-19.6,19.6c-10.9,0-19.6-8.7-19.6-19.6
			C235,242,243.7,233.3,254.6,233.3L254.6,233.3z"/>
	</g>
	<path class="st2" d="M26.4,121.7c3.3,6.5,7.5,12.8,12.6,18.9c0.7,0.7,1.4,1.5,2.1,2.2c6,6,29.4,22.4,58.9,41.1
		c20.9,13.2,45.2,28.1,70.3,43.1l158.3,100.3L228.2,169.1c-15-25-29.9-49.4-43.1-70.3C166.4,69.3,150,45.9,144,39.9
		c-15.1-12.7-32.5-20.4-50.1-21.3c-0.4,0-0.9,0-1.3,0l0,0c-18.6,0-37.2,7.1-51.5,21.3C18.9,62.1,14,94.8,26.4,121.7z M254.6,233.3
		L254.6,233.3c10.9,0,19.6,8.7,19.6,19.6s-8.7,19.6-19.6,19.6c-10.9,0-19.6-8.7-19.6-19.6C235,242,243.7,233.3,254.6,233.3z
		 M239.9,209.1c0,16.1-12.9,29-29,29s-29-12.9-29-29c0-16.1,12.9-29,29-29S239.9,193,239.9,209.1z M155.6,117.4L155.6,117.4
		c20.3,0,36.5,16.3,36.5,36.5c0,20.3-16.3,36.5-36.5,36.5c-20.3,0-36.5-16.3-36.5-36.5C119,133.7,135.3,117.4,155.6,117.4z
		 M86.3,42.3L86.3,42.3c23.4,0,42.2,18.8,42.2,42.2c0,23.4-18.8,42.2-42.2,42.2c-23.4,0-42.2-18.8-42.2-42.2S62.9,42.3,86.3,42.3z"
		/>
</g>
</svg>
