<?xml version="1.0" encoding="utf-8"?>
<!-- Generator: Adobe Illustrator 24.1.2, SVG Export Plug-In . SVG Version: 6.00 Build 0)  -->
<svg version="1.1" id="Calque_1" xmlns="http://www.w3.org/2000/svg" xmlns:xlink="http://www.w3.org/1999/xlink" x="0px" y="0px"
	 width="512px" height="512px" viewBox="0 0 512 512" style="enable-background:new 0 0 512 512;" xml:space="preserve">
<style type="text/css">
	.st0{fill:#CCCCCC;}
	.st1{fill:#FFFCE1;}
	.st2{fill:#4F4A47;}
	.st3{fill:#B7B3AE;}
</style>
<g transform="translate(0,0)">
	<path class="st0" d="M315.4,186.6c-4.8,1.9-7.4,8.1-6.2,15.4l2.3,15.1c0.4,2.4,1.1,4.7,2.1,6.6l-3.4,3.7l-8.2-3.6
		c-4.5-2-9-2.4-12.5-1c-2.3,0.9-4,2.5-4.9,4.6l-18.7,42.2c-1.4,3.2-0.7,7,2,10.2c1.7,2.1,4.2,3.8,7.1,5.1l7.5,3.3l-4.6,15.8
		l-5.6-0.2c-2.9-0.1-5.7,0.3-8,1.2c-4.1,1.6-6.7,4.8-6.9,8.5l-1.9,46.1c-0.1,3.5,1.9,6.7,5.6,8.7c2.4,1.3,5.3,2,8.5,2.2l2.9,0.1
		l-3.4,11.7c-4.2-2.1-8.4-2.6-11.7-1.3c-1.8,0.7-3.3,1.9-4.2,3.5l-24.3,39.3c-1.7,2.7-1.7,6,0,9.3l-6.2,2.4
		c-4.7-9.8-13.3-16.7-23.2-19.7l4.2-18.3l-9.8-25.4l-8.5,3.3l-8.7-22.5l-45.3,17.6l8.7,22.5l-7.1,2.7l9.8,25.4l14.7,10.1
		c-6.3,9.8-8.1,22.3-3.6,34c7.5,19.2,29.2,28.8,48.4,21.4c16.5-6.4,25.9-23.3,23.5-40.1l12.3-4.8l10.5,6.5c5.9,3,13.9,4.8,17.7-1.1
		l24.3-39.3c3.1-5.1,0.2-12-6.9-16.4l-4.6-2.9l5-17.4h0.5c2.9,0.1,5.7-0.3,8-1.2c4.1-1.6,6.7-4.8,6.9-8.5l1.9-46.1
		c0.1-3.5-1.9-6.7-5.6-8.7c-1.8-1-4-1.7-6.3-2l3.5-12.2c3,0.6,5.8,0.5,8.2-0.4c2.3-0.9,4-2.5,4.9-4.6l18.7-42.2
		c1.8-4.1,0-8.8-4.3-12.4l2.7-2.9c0.1,0,0.2,0,0.4,0l45.7-6.9c0.6-0.1,1.2-0.2,1.8-0.5c4.7-1.8,7.2-7.7,6.3-14.8l2.9,0.3
		c-0.1,2.6,0.7,5,2.4,6.8l32.5,32.8c2.6,2.6,6.6,3.2,10.8,1.6c2.3-0.9,4.7-2.5,6.7-4.5l1.4-1.4l1.4,2.4c-1.6,1-3,2.1-4.1,3.4
		c-2.8,3.2-3.6,6.9-2.2,10.1l18,42.5c0.4,1,1,1.9,1.8,2.6l-1.4,4.7c-4-0.5-8,0-11.7,1.4c-12.2,4.7-18.4,18.5-13.8,30.7l-27.9,22.5
		c-0.8,1.2-0.4,2.9,1,3.9l36.9,25.6c1.4,0.9,3.1,0.7,4-0.5l12.1-36c0-0.1,0.1-0.2,0.1-0.2c1.7-0.3,3.4-0.7,5-1.3
		c12.3-4.8,18.5-18.7,13.7-31.1c-1.7-4.4-4.7-8.2-8.6-11l1.8-6.3c6.4-1.7,12.9-5,18.4-7.3c7.7-3.3,11.7-9.6,9.4-15.1l-18-42.5
		c-2.3-5.5-9.5-7.2-17.3-3.8l-6.6,2.8l-3.6-5.9l1.1-1.1c2.3-2.2,3.9-4.8,4.8-7.3c1.4-4,0.8-7.7-1.7-10.2l-32.5-32.8
		c-2.6-2.6-6.6-3.2-10.8-1.6c-2.3,0.9-4.7,2.5-6.7,4.5l-10.6,10.5l-10.4-1.1l-0.6-3.9c-0.5-3.1-1.5-6-3.1-8.2
		c-2.4-3.5-5.8-5.1-9.3-4.6L317,186C316.5,186.2,315.9,186.3,315.4,186.6L315.4,186.6z M321.5,198.2l40.7-6.1
		c0.3,0.9,0.4,1.6,0.6,2.5l-3-0.3c-2.2-0.2-4.1,0.9-4.3,2.5l-0.6,5.5c-0.2,1.6,1.5,3.1,3.6,3.4l6,0.6c0.3,1.5,0.5,3.1,0.5,4.6
		l-28.3,4.3l0.5-0.6c1.5-1.6,1.7-3.8,0.5-5l-4.1-3.7c-1.2-1.1-3.4-0.7-4.9,0.9l-5.3,5.9C323.1,207.9,321.5,202.9,321.5,198.2
		L321.5,198.2z M295,234.7c2.1,0.6,4,1.6,6.2,2.5l-3.5,3.8c-1.5,1.6-1.7,3.8-0.5,5l4.1,3.7c1.2,1.1,3.4,0.7,4.9-0.9l6-6.5
		c0.1,0.1,0.2,0.1,0.3,0.2l-14.8,33.4c-0.1-1.4-0.8-2.6-1.9-2.9l-5.3-1.5c-3.1,0.3-3.7,2.1-4.4,4.6c-2.5-1.2-5.3-2.1-7.6-3.6
		L295,234.7z M407,194.3l23.8,24.1c-2.4-0.1-4.4,1.9-6.5,3.2c-1.4,0.9-1.6,3.1-0.5,5l3.6,5.8c-1.6,1.6-3.2,3.4-5,4.7l-27.1-27.4
		l9.2,1c2.2,0.2,4.1-0.9,4.3-2.5l0.6-5.5c0.2-1.6-1.5-3.1-3.6-3.4l-3.5-0.4C403.8,197.3,405.3,195.6,407,194.3L407,194.3z
		 M269.9,316.4c1.5-0.2,2.8-0.1,4.4,0l-0.7,2.3c-0.6,2.1,0.2,4.2,1.8,4.7l5.3,1.5c1.6,0.5,3.4-0.9,4-3l1.4-5c1,0,2,0.1,2.8,0.3
		l-1.6,39.6c-0.3-0.7-0.9-1.2-1.6-1.4l-5.3-1.5c-1.6-0.5-3.4,0.9-4,3l-0.4,1.2c-2.6-0.2-5.4,0-7.9-0.5L269.9,316.4z M459.5,249.2
		l16,38c-3.4,1.9-7.2,3.2-10.9,4.8l1.2-4.1c0.6-2.1-0.2-4.2-1.8-4.7l-5.3-1.5c-1.6-0.5-3.4,0.9-4,3l-0.4,1.5l-12.4-29.5
		c0.1-0.1,0.2-0.1,0.3-0.2l5.8,9.4c1.1,1.9,3.2,2.7,4.6,1.9l4.7-2.9c1.4-0.9,1.6-3.1,0.5-5l-4.9-8.1
		C455,251,457.2,249.8,459.5,249.2L459.5,249.2z M439.3,318.9c1.9-0.7,3.9-1.1,5.9-1L442,329c-0.6,2.1,0.2,4.2,1.8,4.7l5.3,1.5
		c1.6,0.5,3.4-0.9,4-3l2.7-9.4c1.3,1.4,2.3,3,2.9,4.7c3,7.7-0.8,16.4-8.5,19.4s-16.4-0.8-19.4-8.5
		C427.7,330.6,431.6,321.9,439.3,318.9L439.3,318.9z M262.6,393.2c1.1,0.4,1.9,0.9,2.9,1.6c-0.8,2.7-3.8,9.9-0.1,11.1l5.3,1.5
		c3.8-0.4,4-3.2,4.9-6.4c1.1,0.6,2.2,1.4,3.2,2.2l-21.7,35c-1.5-0.6-2.7-1.5-4.2-2.4c1.5-0.9,2.3-2.5,1.8-3.8l-2-5.2
		c-0.6-1.5-2.7-2.1-4.8-1.3l-6.9,2.7l-0.1-0.1L262.6,393.2z M169.2,439.1l21.5,14.8l5.7-24.5c5.5,1.8,10.3,5.7,13.2,11l-4.7,1.8
		c-2.1,0.8-3.2,2.7-2.6,4.2l2,5.2c0.6,1.5,2.7,2.1,4.8,1.3l3.3-1.3c-0.1,9.3-5.7,18.1-14.9,21.7c-12,4.7-25.6-1.3-30.2-13.3
		C164.4,452.9,165.4,445.2,169.2,439.1L169.2,439.1z"/>
</g>
<rect x="74.2" y="206.1" transform="matrix(0.9323 -0.3617 0.3617 0.9323 -72.229 50.3932)" class="st1" width="48.6" height="24.1"/>
<rect x="86.2" y="237.2" transform="matrix(0.9323 -0.3617 0.3617 0.9323 -82.679 56.8378)" class="st1" width="48.6" height="24.1"/>
<rect x="98.3" y="268.2" transform="matrix(0.9323 -0.3617 0.3617 0.9323 -93.0597 63.3125)" class="st1" width="48.6" height="24.1"/>
<rect x="110.3" y="299.3" transform="matrix(0.9323 -0.3618 0.3618 0.9323 -103.5267 69.7887)" class="st1" width="48.6" height="24.1"/>
<rect x="122.1" y="329.6" transform="matrix(0.9323 -0.3617 0.3617 0.9323 -113.6672 76.0721)" class="st1" width="48.6" height="24.1"/>
<rect x="44.7" y="84.5" transform="matrix(0.9323 -0.3617 0.3617 0.9323 -46.7836 34.5823)" class="st2" width="48.6" height="115.5"/>
<path class="st0" d="M35.4,53.5c-7.7,3-12.1,5-12.1,5L30,75.7l47-18.8c0,0,12.5,31.2,25.1,63.7C142,93.4,209.8,60.1,301.3,61.4
	C217.3-10,77.1,37.1,35.4,53.5z"/>
<path class="st3" d="M157.7,431.1"/>
<path class="st3" d="M169.2,439.1"/>
<path class="st3" d="M196.4,429.4"/>
<path class="st3" d="M199.6,415.7"/>
<polygon class="st2" points="190.7,453.9 142.9,421 133.1,395.6 140.2,392.9 131.5,370.4 176.7,352.8 185.5,375.3 193.9,372 
	203.8,397.4 "/>
</svg>
