<?xml version="1.0" encoding="utf-8"?>
<!-- Generator: Adobe Illustrator 24.1.2, SVG Export Plug-In . SVG Version: 6.00 Build 0)  -->
<svg version="1.1" id="Calque_1" xmlns="http://www.w3.org/2000/svg" xmlns:xlink="http://www.w3.org/1999/xlink" x="0px" y="0px"
	 width="512px" height="512px" viewBox="0 0 512 512" style="enable-background:new 0 0 512 512;" xml:space="preserve">
<style type="text/css">
	.st0{fill:#CCCCCC;}
	.st1{fill:#D3BD98;}
	.st2{fill:#999999;}
</style>
<g transform="translate(0,0)">
	<path class="st0" d="M426.3,40.1 M373.9,41.1l-260,274.6l81.7,81.7L471.8,139L373.9,41.1L373.9,41.1z M370.8,91.6
		c13,0,25.9,4.9,35.7,14.7c19.7,19.7,19.7,51.8,0,71.5c-19.7,19.7-51.8,19.7-71.5,0c-19.7-19.7-19.7-51.8,0-71.5
		C344.9,96.5,357.8,91.6,370.8,91.6L370.8,91.6z M286.9,177.1c12.5,0,25.1,4.8,34.6,14.3c19,19,19.1,50.1,0.1,69.1
		c-19,19-50.1,18.9-69.1-0.1c-19-19-19.1-50.1-0.1-69.1C261.8,181.8,274.4,177.1,286.9,177.1L286.9,177.1z M453.5,181.7
		 M202.6,263.3c12,0.1,24,4.7,33.2,13.8c18.3,18.3,18.5,48.1,0.3,66.3c-18.2,18.2-48,17.9-66.3-0.3c-18.3-18.3-18.5-48.1-0.3-66.3
		C178.6,267.7,190.6,263.2,202.6,263.3L202.6,263.3z M366,263.5 M277.9,345.9 M119.1,347.3"/>
</g>
<polyline class="st1" points="119.1,347.3 18.9,447.5 18.9,494.9 64.6,494.9 165.7,393.9 119.1,347.3 119.1,347.3 "/>
<path class="st2" d="M202.6,281.9c-7.2,0-14.3,2.7-19.8,8.1c-10.9,10.9-10.9,28.6,0.3,39.8c11.2,11.2,28.9,11.3,39.8,0.3
	c10.9-10.9,10.9-28.6-0.3-39.8C217,284.7,209.7,281.9,202.6,281.9L202.6,281.9z"/>
<path class="st2" d="M286.9,195.7c-7.7,0-15.4,2.9-21.3,8.8c-11.8,11.8-11.8,30.8,0.1,42.7c11.9,11.9,30.9,12,42.7,0.1
	c11.8-11.8,11.8-30.8-0.1-42.7C302.3,198.7,294.6,195.7,286.9,195.7L286.9,195.7z"/>
<path class="st2" d="M370.8,110.2c-8.1,0-16.3,3.1-22.5,9.4c-12.5,12.5-12.5,32.5,0,45.1c12.5,12.5,32.5,12.5,45.1,0
	c12.5-12.5,12.5-32.5,0-45.1C387.1,113.3,378.9,110.2,370.8,110.2z"/>
<polygon class="st2" points="246.5,16.3 290.2,102.2 330.9,59.3 "/>
<polyline class="st2" points="426.3,40.1 426.3,40.1 412.8,53.6 459.6,100.4 473.1,86.9 426.3,40.1 "/>
<polygon class="st2" points="167.4,105 209.5,187.5 248.4,146.4 167.4,105 "/>
<polyline class="st2" points="453.5,181.7 453.5,181.7 410,222.3 496.6,266.4 453.5,181.7 "/>
<polygon class="st2" points="88.9,194.9 128.9,272.6 165.3,234.1 88.9,194.9 "/>
<polyline class="st2" points="366,263.5 324.1,302.7 407.9,345.5 366,263.5 366,263.5 "/>
<polyline class="st2" points="277.9,345.9 277.9,345.9 238.2,383 318,424 277.9,345.9 "/>
</svg>
