<?xml version="1.0" encoding="utf-8"?>
<!-- Generator: Adobe Illustrator 24.1.2, SVG Export Plug-In . SVG Version: 6.00 Build 0)  -->
<svg version="1.1" xmlns="http://www.w3.org/2000/svg" xmlns:xlink="http://www.w3.org/1999/xlink" x="0px" y="0px" width="512px"
	 height="512px" viewBox="0 0 512 512" style="enable-background:new 0 0 512 512;" xml:space="preserve">
<style type="text/css">
	.st0{fill:#4F4A47;}
	.st1{fill:#CCCCCC;}
	.st2{fill:#FFFCE1;}
	.st3{fill:#FCE770;}
</style>
<g id="Calque_1">
	<g transform="translate(0,0)">
		<path class="st0" d="M154.1,184.7c-2.9,0-5.8,0.4-8.6,1l-51.3,143c15.8,0.5,31.1,6.5,43.6,14.8l51-142
			C179.3,189.6,166.2,184.6,154.1,184.7L154.1,184.7z M403.8,193.2c-10.5,0.1-20.1,4-27,9.9l20.4,147.8c9.6-4.6,20.2-6.9,30.7-7.4
			c1.1-0.1,2.2-0.1,3.4-0.1c3.9,0,7.7,0.2,11.4,0.6l-20.3-147C416.1,194.3,409.8,193.1,403.8,193.2L403.8,193.2z M69.6,436.6
			c-3.1-0.1-5.9,0.3-8.3,1c-4.8,1.5-7.6,4.1-8.7,7.2c-1.1,3.2-0.6,6.9,2.1,11.1c2.8,4.2,7.8,8.4,14.4,10.7c6.6,2.4,13.2,2.4,18,0.9
			c4.8-1.5,7.6-4.1,8.7-7.2c1.1-3.2,0.6-6.9-2.1-11.1c-2.8-4.2-7.8-8.4-14.4-10.7C75.9,437.3,72.7,436.7,69.6,436.6L69.6,436.6z
			 M440.2,457.6c-1.6,0-3.4,0.1-5.1,0.3c-6.9,1-12.8,4-16.4,7.5c-3.6,3.5-4.8,7.1-4.4,10.5c0.5,3.4,2.6,6.4,7.1,8.9
			c4.4,2.4,10.8,3.8,17.8,2.8c6.9-1,12.8-4,16.4-7.5c3.6-3.5,4.8-7.1,4.4-10.5c-0.5-3.4-2.6-6.4-7.1-8.9
			C449.6,458.9,445.2,457.7,440.2,457.6L440.2,457.6z"/>
	</g>
	<path class="st1" d="M403.7,96c-3.4-5.8-7.9-10.5-13-13.8c0.4-3.4,0.2-6.8-0.6-10.1c-1.8-7.1-6-13.8-12.1-19.3
		c-6.1-5.5-13.2-9.1-20.4-10.1c-2.3-0.3-4.7-0.4-7-0.2c-1.5-3.4-3.8-6.3-6.5-8.7c-5.5-4.9-12.7-8.1-20.8-9.3c-2-0.3-4.1-0.5-6-0.5
		l0,0c-6-0.1-11.6,1.1-16.6,3.5c-2.8,1.4-5.5,3.2-7.8,5.5c-0.4-0.2-0.8-0.4-1.2-0.6c-6.7-3.1-14.5-4-22.7-2.7
		c-8.1,1.3-15.3,4.6-20.7,9.6c-2,1.9-3.8,4.1-5.2,6.6c-6.6-1.4-13.7-0.9-20.8,1.5c-7.8,2.6-14.4,7-18.9,12.8
		c-4.2,5.4-6.7,12.5-5,19.7c-5.7,2.5-10.9,6.7-15.3,12.1c-3.3,4.2-5.8,8.8-7.3,13.4c0.4,0,0.9,0,1.3,0c5.8,0,11.6,0.9,17.1,2.5
		c0.8-1.6,1.7-3.2,3-4.8v0c3.1-3.9,7-6.5,9.9-7.4c1.1-0.4,2-0.5,2.7-0.5c1.2-0.1,1.8,0.3,2.2,0.5c0.6,0.5,1.4,1.6,1.1,4.7
		c-0.3,3.1-1.8,7.4-4.9,11.4c-0.4,0.5-0.8,1-1.2,1.4c5.3,2.9,10.1,6.6,14.2,11.1c0.4-0.4,0.7-0.9,1.1-1.3c5.1-6.5,8.2-13.8,8.8-21.1
		c0.1-1.8,0.1-3.6-0.1-5.4c2.3-0.4,4.7-1,7-1.7c7.8-2.6,14.4-7,18.9-12.8c0.9-1.2,1.7-2.4,2.5-3.7c5.4,1.5,11.4,1.8,17.5,0.8
		c8.1-1.3,15.3-4.6,20.7-9.6c0.6-0.6,1.2-1.1,1.7-1.8c4.8,3.2,10.5,5.3,16.8,6.2c6,0.9,11.8,0.6,17-0.9c2.1,6.2,6,11.9,11.4,16.8
		c3.3,3,6.9,5.4,10.7,7.2c-0.1,0.8-0.2,1.6-0.2,2.4c-0.4,7.3,1.7,15,5.9,22l0.1,0.1c4.9-3.6,10.4-6.3,16.2-8.1
		c-0.3-0.4-0.5-0.8-0.8-1.2c-2.6-4.3-3.5-8.8-3.4-11.9c0-0.1,0-0.2,0-0.3c2.8-0.4,5.6-1.3,8-2.7c2.5,1.6,5.2,4.3,7.4,7.8
		c1.1,1.9,1.9,3.8,2.5,5.6c2.4-0.2,4.7-0.3,7.1-0.2c3.9,0.1,7.8,0.6,11.6,1.5C408.7,106.7,406.8,101.2,403.7,96z M242.5,71
		c-1.9,2.5-5.6,5.2-10.4,6.8c-4.8,1.6-9.4,1.6-12.4,0.8c-3-0.8-3.8-2-4.1-2.7c-0.2-0.7-0.3-2.1,1.7-4.6c1.9-2.5,5.6-5.2,10.4-6.8
		c3-1,5.9-1.4,8.4-1.3l0,0c1.5,0,2.9,0.2,4,0.5c0.5,0.1,1,0.3,1.4,0.5c0.7,1.5,1.5,3,2.5,4.3C243.7,69.2,243.3,70,242.5,71z
		 M285.2,56.4c-2.3,2.1-6.4,4.2-11.3,5c-4.9,0.8-9.5,0-12.3-1.3c-0.2-0.1-0.4-0.2-0.6-0.3c-0.7-1.7-1.5-3.3-2.6-4.7
		c0.3-0.7,1-1.5,2.1-2.6c2.3-2.1,6.4-4.2,11.3-5c1.2-0.2,2.4-0.3,3.6-0.3l0,0c3.5-0.1,6.6,0.6,8.7,1.6c1.7,0.8,2.6,1.5,3,2.1
		c0.1,0.7,0.3,1.4,0.5,2.1C287.3,53.8,286.8,54.9,285.2,56.4z M334.4,51.4c-0.1,0.8-0.7,2-3.5,3.4c-2.8,1.3-7.4,2.1-12.3,1.4
		c-5-0.7-9.1-2.8-11.4-4.9c-0.8-0.8-1.4-1.4-1.8-2l0,0c-0.1-0.9-0.3-1.7-0.6-2.5c0.2-0.8,1-1.9,3.5-3c2.1-1,5.2-1.7,8.7-1.7
		c1.2,0,2.4,0.1,3.6,0.3c5,0.7,9.1,2.8,11.4,4.9C334.3,49.3,334.5,50.7,334.4,51.4z M365.3,80.4c-0.5,0.3-0.9,0.6-1.4,0.9
		c-2.4-0.9-5.1-2.5-7.5-4.7c-3.7-3.4-6-7.4-6.7-10.4c-0.8-3-0.2-4.3,0.3-4.9c0.4-0.4,1.2-0.9,2.8-1l0,0c0.6,0,1.2,0,2,0.1
		c3.1,0.5,7.3,2.3,11,5.7s6,7.4,6.7,10.4c0.1,0.4,0.2,0.8,0.2,1.2C370.3,78.2,367.7,79,365.3,80.4z"/>
</g>
<g id="Calque_3">
	<path class="st2" d="M97.4,347.1l4.9,25.3l21.3-16.4C115.6,351.5,106.3,348.2,97.4,347.1L97.4,347.1z"/>
	<path class="st2" d="M432.6,361.6c-8.2,0.1-16.8,1.5-24.3,4.3l16,20.2l11.3-24.4C434.6,361.6,433.6,361.6,432.6,361.6L432.6,361.6z
		"/>
	<polygon class="st2" points="82,362.6 69.5,397.7 86.3,384.7 82,362.6 	"/>
	<polygon class="st2" points="125.8,377 106.1,392.1 111.1,417.9 125.8,377 	"/>
	<polygon class="st2" points="447.4,378.8 436.8,401.9 453.5,423 447.4,378.8 	"/>
	<polygon class="st2" points="402.1,387.2 407.1,423.1 415.8,404.4 402.1,387.2 	"/>
	<path class="st2" d="M90.1,404.5l-18.4,14.2c4.5,0.3,9.1,1.3,13.6,2.9c3.2,1.1,6.1,2.5,8.9,4.2L90.1,404.5z"/>
	<path class="st2" d="M428.3,420.2L416.8,445c4.8-2.4,10.1-4.1,15.9-4.9c3.8-0.5,7.6-0.6,11.2-0.3L428.3,420.2L428.3,420.2z"/>
</g>
<g id="Calque_2">
	<path class="st3" d="M177.1,123.5c-3.5,0-6.7,0.7-9.8,1.6l-15,41.7c14.9-0.5,30.6,4.6,43.2,15.8l15.1-42c-4-6.3-11-11.7-19.2-14.7
		C186.7,124.3,181.8,123.5,177.1,123.5L177.1,123.5z"/>
	<path class="st3" d="M395.3,128.6c-1.9,0-3.7,0.1-5.6,0.4c-8.6,1.2-16.5,5.1-21.8,10.4l6.1,43.9c13-7.4,29.2-10.1,45.6-6l-6.1-44.2
		c-4.6-2.6-10.3-4.3-16.4-4.5C396.6,128.6,395.9,128.6,395.3,128.6L395.3,128.6z"/>
</g>
</svg>
