<?xml version="1.0" encoding="utf-8"?>
<!-- Generator: Adobe Illustrator 24.1.2, SVG Export Plug-In . SVG Version: 6.00 Build 0)  -->
<svg version="1.1" id="Calque_1" xmlns="http://www.w3.org/2000/svg" xmlns:xlink="http://www.w3.org/1999/xlink" x="0px" y="0px"
	 width="512px" height="512px" viewBox="0 0 512 512" style="enable-background:new 0 0 512 512;" xml:space="preserve">
<style type="text/css">
	.st0{fill:#F5EBE6;stroke:#665A4D;stroke-width:4;stroke-linecap:round;stroke-linejoin:round;stroke-miterlimit:10;}
	.st1{fill:#666666;}
</style>
<g transform="translate(0,0)">
	<path class="st0" d="M227.2,21.8c-1.8,0-3.7,0-5.6,0.2c-15.3,0.9-30.8,5.3-39.5,10.9v73.2c2.9-0.1,5.8-0.1,8.7-0.1
		c23.4,0,47.1,3.3,68.5,9.5V28C252.3,24.3,240.1,21.8,227.2,21.8L227.2,21.8z M308,30.9c-11.9,0.1-23.1,2.4-30,5.6v77.6v7.7
		c38.5,15.7,64.8,42.5,58.7,78.8l-1,5.7l-5.6,1.7c-17.5,5.3-34.9,9.7-52.2,13.3v25.2c25.6-0.7,51.3-2.7,77.1-6.1V42.5
		c-8.3-5.6-23.5-10.2-38.8-11.3C313.5,31,310.7,30.9,308,30.9L308,30.9z M143.2,46.3c-1.2,0-2.4,0-3.6,0c-4.2,0.1-8.5,0.5-12.9,1.2
		C111,50,95.2,56.1,86.3,62.9v73c18.8-15.8,46.7-25.1,77.1-28.5v-58C158.7,47.6,151.5,46.4,143.2,46.3z M401.6,49.8
		c-10.8,0.1-20.7,1.9-27,4.7v183.2c25.1-4,50.2-9.4,75.1-16.4l2-158.4c-8.4-5.9-23.6-11-39-12.6C408.9,49.9,405.2,49.7,401.6,49.8
		L401.6,49.8z M178.8,124c-53.7,0.7-101.4,20.4-97.9,66.6c15.8-3.9,30.8-5.9,44.9-6.1c34.8-0.5,64.2,9.7,87.3,27.6
		c34.6-3.1,69.9-10,105.4-20.3C318.8,150.5,244.5,123.1,178.8,124L178.8,124z M130,202.6c-1.3,0-2.6,0-3.9,0
		c-17.3,0.4-36.4,4-57.6,11C74.3,267.5,94.8,320.1,127,357c6.2,7.1,12.9,13.7,19.9,19.6c29.3,9.3,69.3,12.9,110.5,12.1
		c3.8-55.8-8.7-108.4-36.2-142.7C199.9,219.4,170.1,202.7,130,202.6L130,202.6z M259.3,224.9c-9.4,1.6-18.7,3-28,4.1
		c1.5,1.7,3,3.5,4.5,5.3c3.1,3.9,6.1,8.1,8.9,12.3c9.9,0.1,19.9,0.1,29.9-0.1h-15.2L259.3,224.9L259.3,224.9z M451.1,240.2
		c-65.4,17.8-131.5,25.4-195.9,25.3c17,35.1,23.8,78.1,21,122.6c42.5-2.1,85-8.2,118.2-16C421.2,339.4,441.8,295,451.1,240.2
		L451.1,240.2z"/>
</g>
<path class="st1" d="M400.5,389.9c-38.3,9.1-88,16.1-136.9,17.5c-47.7,1.4-94.3-2.2-129.4-15.3V471c27.2,12.6,76.4,20.2,127.3,20.3
	c51.2,0.1,104.2-7.2,139-20.8V389.9L400.5,389.9z"/>
</svg>
