<?xml version="1.0" encoding="utf-8"?>
<!-- Generator: Adobe Illustrator 24.1.2, SVG Export Plug-In . SVG Version: 6.00 Build 0)  -->
<svg version="1.1" id="Calque_1" xmlns="http://www.w3.org/2000/svg" xmlns:xlink="http://www.w3.org/1999/xlink" x="0px" y="0px"
     width="93.64px" height="38.25px" viewBox="0 0 93.64 38.25" style="enable-background:new 0 0 93.64 38.25;" xml:space="preserve">
<style type="text/css">
	.st0{fill:#FFFFFF;}
	.st1{fill:none;stroke:#C3C3BB;stroke-width:0.334;}
	.st2{fill:none;stroke:#C3C3BB;}
</style>
<polygon class="st0" points="6.71,1.63 6.71,4.96 3.37,4.96 3.37,3.29 5.04,3.29 5.04,6.63 1.71,6.63 1.71,31.63 5.04,31.63
	5.04,34.96 3.37,34.96 3.37,33.29 6.71,33.29 6.71,36.63 86.93,36.63 86.93,33.29 90.26,33.29 90.26,34.96 88.6,34.96 88.6,31.63
	91.93,31.63 91.93,6.63 88.6,6.63 88.6,3.29 90.26,3.29 90.26,4.96 86.93,4.96 86.93,1.63 "/>
<path class="st1" d="M5.87,1.63v2.5H4.21c0,0.56,0,1.11,0,1.67h-2.5H0.87v0.83v25v0.83h0.83h2.5v1.67c0.55,0,1.11,0,1.67,0v2.5v0.83
	h0.83h80.22h0.83v-0.83v-2.5h1.67c0-0.55,0-1.11,0-1.67h2.5h0.83v-0.83v-25V5.79h-0.83h-2.5V4.13c-0.55,0-1.11,0-1.67,0v-2.5V0.79
	h-0.83H6.71H5.87V1.63z"/>
<polygon class="st2" points="7.21,2.13 7.21,4.96 7.21,5.46 6.71,5.46 3.37,5.46 2.87,5.46 2.87,4.96 2.87,3.29 2.87,2.79
	3.37,2.79 5.04,2.79 5.54,2.79 5.54,3.29 5.54,6.63 5.54,7.13 5.04,7.13 2.21,7.13 2.21,31.13 5.04,31.13 5.54,31.13 5.54,31.63
	5.54,34.96 5.54,35.46 5.04,35.46 3.37,35.46 2.87,35.46 2.87,34.96 2.87,33.29 2.87,32.79 3.37,32.79 6.71,32.79 7.21,32.79
	7.21,33.29 7.21,36.13 86.43,36.13 86.43,33.29 86.43,32.79 86.93,32.79 90.26,32.79 90.76,32.79 90.76,33.29 90.76,34.96
	90.76,35.46 90.26,35.46 88.6,35.46 88.1,35.46 88.1,34.96 88.1,31.63 88.1,31.13 88.6,31.13 91.43,31.13 91.43,7.13 88.6,7.13
	88.1,7.13 88.1,6.63 88.1,3.29 88.1,2.79 88.6,2.79 90.26,2.79 90.76,2.79 90.76,3.29 90.76,4.96 90.76,5.46 90.26,5.46 86.93,5.46
	86.43,5.46 86.43,4.96 86.43,2.13 "/>
</svg>
