<?xml version="1.0" encoding="UTF-8" standalone="no"?>
<!-- Created with Inkscape (http://www.inkscape.org/) -->
<svg
   xmlns:dc="http://purl.org/dc/elements/1.1/"
   xmlns:cc="http://web.resource.org/cc/"
   xmlns:rdf="http://www.w3.org/1999/02/22-rdf-syntax-ns#"
   xmlns:svg="http://www.w3.org/2000/svg"
   xmlns="http://www.w3.org/2000/svg"
   xmlns:sodipodi="http://inkscape.sourceforge.net/DTD/sodipodi-0.dtd"
   xmlns:inkscape="http://www.inkscape.org/namespaces/inkscape"
   width="150pt"
   height="150pt"
   id="svg2"
   sodipodi:version="0.32"
   inkscape:version="0.43"
   version="1.0"
   sodipodi:docbase="/home/Omni/Desktop/HU SVG/kangxi radicals yong style svg"
   sodipodi:docname="182 - 風 - 风 - feng1 - wind.svg">
  <defs
     id="defs4" />
  <sodipodi:namedview
     id="base"
     pagecolor="#ffffff"
     bordercolor="#666666"
     borderopacity="1.0"
     inkscape:pageopacity="0.0"
     inkscape:pageshadow="2"
     inkscape:zoom="1.4831711"
     inkscape:cx="179.08379"
     inkscape:cy="114.84045"
     inkscape:document-units="px"
     inkscape:current-layer="layer1"
     inkscape:window-width="1016"
     inkscape:window-height="709"
     inkscape:window-x="0"
     inkscape:window-y="0"
     showguides="true"
     inkscape:guide-bbox="true" />
  <metadata
     id="metadata7">
    <rdf:RDF>
      <cc:Work
         rdf:about="">
        <dc:format>image/svg+xml</dc:format>
        <dc:type
           rdf:resource="http://purl.org/dc/dcmitype/StillImage" />
      </cc:Work>
    </rdf:RDF>
  </metadata>
  <g
     inkscape:label="Layer 1"
     inkscape:groupmode="layer"
     id="layer1">
    <path
       style="fill:#9e6ea8;fill-opacity:1;fill-rule:evenodd;stroke:none;stroke-width:0.2;stroke-linecap:butt;stroke-linejoin:miter;stroke-miterlimit:4;stroke-dasharray:none;stroke-opacity:1"
       d="M 44.522343,13.126293 C 59.482073,11.786253 60.199933,13.337393 73.757613,11.997343 C 83.664063,11.693423 109.80167,11.118687 124.68259,8.117601 C 131.26525,6.585221 129.79158,5.0506938 134.97235,6.3223938 C 139.61718,8.0948038 143.83037,9.2288482 147.77411,14.740029 C 149.76745,17.571129 148.93478,22.229858 143.45058,21.789518 C 135.78232,21.363508 133.85254,20.470157 126.18435,20.044147 C 102.00781,21.156242 87.937936,20.413693 80.068136,21.667699 C 65.229137,21.804187 55.942183,22.223645 53.173083,21.371605 C 49.551843,19.454525 46.631853,18.472165 43.010613,16.555084 C 41.333523,15.723744 42.226903,13.723993 44.522343,13.126293 z "
       id="path1928"
       sodipodi:nodetypes="ccccccccccc" />
    <path
       sodipodi:nodetypes="ccccccc"
       id="path1940"
       d="M 124.65381,37.756672 C 121.61818,38.754868 114.66145,45.369489 98.159357,52.805592 C 85.229649,58.781332 71.863911,61.868243 61.38433,59.184123 C 58.536996,57.716829 58.038621,57.520056 60.229161,56.185834 C 72.137454,53.540575 85.848085,49.01791 90.618182,46.44888 C 103.36402,40.573662 109.92968,33.810876 110.87121,30.363264 C 113.0788,26.527193 130.93097,34.414226 124.65381,37.756672 z "
       style="fill:#9e6ea8;fill-opacity:1;fill-rule:evenodd;stroke:#9e6ea8;stroke-width:0.44477409px;stroke-linecap:butt;stroke-linejoin:miter;stroke-opacity:1" />
    <path
       style="fill:#9e6ea8;fill-opacity:1;fill-rule:evenodd;stroke:#9e6ea8;stroke-width:0.44477409px;stroke-linecap:butt;stroke-linejoin:miter;stroke-opacity:1"
       d="M 90.599026,47.540754 C 92.633656,46.028544 96.630605,49.304334 99.387932,51.857384 C 102.36911,54.348284 100.57487,58.826619 99.310165,69.990037 C 97.774405,100.27857 99.129465,120.50185 99.129465,151.24205 C 99.376922,160.60325 94.926695,161.25151 93.367356,161.39818 C 92.345486,160.50977 87.439026,167.06968 85.965436,156.60545 C 85.951066,144.52945 87.111046,135.16363 87.277306,127.42393 C 87.277306,103.35375 89.462537,77.165406 87.746107,66.917075 C 87.399147,64.397398 87.409026,57.980819 86.249016,55.370814 C 84.850636,53.236414 88.765906,50.342314 90.599026,47.540754 z "
       id="path1639"
       sodipodi:nodetypes="cccccccccc" />
    <path
       style="fill:#9e6ea8;fill-opacity:1;fill-rule:evenodd;stroke:#9e6ea8;stroke-width:0.38111117px;stroke-linecap:butt;stroke-linejoin:miter;stroke-opacity:1"
       d="M 67.293606,155.89695 C 72.673179,156.06865 76.926379,155.75629 85.047918,154.61328 C 96.112639,152.82778 101.76481,152.84761 111.53711,152.5011 C 115.27013,152.17027 117.71473,152.82021 120.22651,153.10423 C 124.86501,154.00705 122.24329,155.42228 119.2956,155.63397 C 107.73799,158.44045 98.405572,160.36247 83.680254,166.06918 C 80.549887,167.43362 77.315171,168.94183 75.160315,170.21317 C 73.043766,171.6455 69.08055,173.20098 67.4121,172.23126 C 61.895561,170.29478 60.710774,155.9105 67.293606,155.89695 z "
       id="path1647"
       sodipodi:nodetypes="ccccccccc" />
    <path
       style="fill:#9e6ea8;fill-opacity:1;fill-rule:evenodd;stroke:#9e6ea8;stroke-width:0.30793294px;stroke-linecap:butt;stroke-linejoin:miter;stroke-opacity:1"
       d="M 136.34841,168.01242 C 133.40833,164.64587 131.44966,161.86782 128.15581,156.42116 C 123.85465,148.94139 120.89668,145.36253 116.09341,139.076 C 114.42056,136.62299 112.61764,135.24171 111.07845,133.72278 C 107.92724,131.01603 108.13639,133.04602 109.49774,134.97011 C 113.22193,143.02763 116.51004,149.44445 119.51524,160.26385 C 120.0306,162.60318 120.48289,165.04602 120.56652,166.7426 C 120.49879,168.4567 121.29165,171.37375 122.95166,172.17983 C 127.40375,175.17486 139.76348,172.19006 136.34841,168.01242 z "
       id="path1649"
       sodipodi:nodetypes="ccccccccc" />
    <path
       style="fill:#9e6ea8;fill-opacity:1;fill-rule:evenodd;stroke:none;stroke-width:1px;stroke-linecap:butt;stroke-linejoin:miter;stroke-opacity:1"
       d="M 34.829047,10.505375 C 42.684362,11.098711 43.671126,11.932133 49.793879,14.946318 C 51.546919,15.71069 53.7221,17.198153 51.10141,21.522214 C 51.884733,28.132075 52.594495,30.857163 52.760229,42.377089 C 53.086706,79.752663 43.182958,138.81119 28.777173,157.33564 C 23.051639,165.71436 14.724687,177.40742 8.6047967,181.47855 C 5.3329331,183.61012 4.3394354,182.04415 8.6597507,175.66841 C 16.212883,164.27755 17.958762,159.61005 22.784089,149.34046 C 38.671318,113.17351 39.049595,74.343384 40.387123,49.111837 C 39.964432,29.224773 36.882486,20.690437 33.255066,15.414454 C 30.071809,12.532466 32.012286,10.360559 34.829047,10.505375 z "
       id="path1664"
       sodipodi:nodetypes="ccccccccccc" />
    <path
       style="fill:#9e6ea8;fill-opacity:1;fill-rule:evenodd;stroke:none;stroke-width:1px;stroke-linecap:butt;stroke-linejoin:miter;stroke-opacity:1"
       d="M 137.90625,14.875 C 135.91954,14.989825 134.14108,16.303822 134.03125,18.84375 C 131.52539,59.463368 136.1675,128.66135 147.84375,163.40625 C 151.43635,173.48703 158.68693,181.01571 168.34375,184.65625 C 172.58802,185.9758 177.31542,186.03844 178.53125,182.21875 C 178.80632,174.50181 180.51847,162.44226 181.9375,158.0625 C 183.0137,154.98338 183.20006,152.03087 183.09375,150.125 C 182.98356,149.97034 182.866,149.84818 182.75,149.75 C 182.67729,149.69074 182.57473,149.63267 182.5,149.59375 C 182.48502,149.58636 182.45256,149.56911 182.4375,149.5625 C 182.38466,149.54072 182.30371,149.51256 182.25,149.5 C 182.22693,149.49517 182.17947,149.47196 182.15625,149.46875 C 182.13298,149.46608 182.08591,149.46984 182.0625,149.46875 C 182.03904,149.46818 181.99235,149.46778 181.96875,149.46875 C 180.35311,149.5697 178.41803,153.20267 176.96875,155.09375 C 174.64432,157.93158 172.10564,161.13089 169.78125,163.96875 C 168.53004,165.41594 167.52005,165.03022 164.94392,163.36122 C 159.65975,158.25987 157.19846,152.43114 155.62868,148.13878 C 147.73769,126.67923 141.294,70.500669 143.34375,21.40625 C 143.93456,16.932414 140.71764,14.712512 137.90625,14.875 z "
       id="path3773"
       sodipodi:nodetypes="cccccccssssssscccccc" />
    <path
       sodipodi:nodetypes="cccccccccccc"
       id="path3816"
       d="M 59.053269,74.730518 C 68.007059,74.734798 68.394259,75.002516 81.823599,74.047496 C 90.661999,73.486893 100.62927,73.107922 109.38895,72.147247 C 116.99834,71.128234 115.89188,69.699561 121.07265,70.971261 C 124.94743,72.615339 127.18411,75.469316 129.20273,78.285316 C 131.19607,81.116426 128.28257,83.003113 122.79837,82.562773 C 115.13011,82.136763 114.60102,81.923551 106.93283,81.497541 C 95.955129,81.082603 93.405189,81.292821 84.386839,81.972551 C 77.156019,82.911613 76.156709,83.144829 71.904249,83.616531 C 68.901449,84.400191 66.622849,83.956209 63.597079,82.462461 C 59.975839,80.545396 60.392739,80.461408 58.183249,78.159303 C 56.506159,76.429571 56.629489,74.558168 59.053269,74.730518 z "
       style="fill:#9e6ea8;fill-opacity:1;fill-rule:evenodd;stroke:none;stroke-width:0.2;stroke-linecap:butt;stroke-linejoin:miter;stroke-miterlimit:4;stroke-dasharray:none;stroke-opacity:1" />
    <path
       style="fill:#9e6ea8;fill-opacity:1;fill-rule:evenodd;stroke:none;stroke-width:0.2;stroke-linecap:butt;stroke-linejoin:miter;stroke-miterlimit:4;stroke-dasharray:none;stroke-opacity:1"
       d="M 60.401731,119.22977 C 69.355521,119.23405 69.742721,119.50176 83.172061,118.54674 C 92.010461,117.98614 101.97773,117.60717 110.73741,116.6465 C 118.3468,115.62748 117.24034,114.19881 122.42111,115.47051 C 126.29589,117.11459 129.63103,127.50236 124.14683,127.06202 C 116.47857,126.63601 115.94948,126.4228 108.28129,125.99679 C 97.303591,125.58185 94.753651,125.79207 85.735301,126.4718 C 78.504481,127.41086 77.505171,127.64408 73.252711,128.11578 C 70.249911,128.89944 67.971311,128.45546 64.945541,126.96171 C 61.324301,125.04464 61.741201,124.96066 59.531711,122.65855 C 57.854621,120.92882 57.977951,119.05742 60.401731,119.22977 z "
       id="path3818"
       sodipodi:nodetypes="ccccccccccc" />
    <path
       sodipodi:nodetypes="ccccccccc"
       id="path3820"
       d="M 119.14071,73.72237 C 120.66828,72.339776 126.67232,75.334805 128.74249,77.669059 C 130.98073,79.946459 128.13205,84.040989 127.18252,94.247663 C 126.40864,116.16874 127.24478,107.8847 127.04685,121.39763 C 127.18265,129.21321 123.18314,135.95152 122.01241,136.08562 C 120.90299,134.57878 117.55206,129.20449 117.53425,121.84643 C 117.52346,110.80539 117.24382,108.65608 117.36866,101.57969 C 117.1874,96.423064 118.07145,81.244984 117.20052,78.858661 C 116.15064,76.90719 117.76442,76.283836 119.14071,73.72237 z "
       style="fill:#9e6ea8;fill-opacity:1;fill-rule:evenodd;stroke:#9e6ea8;stroke-width:0.36850408px;stroke-linecap:butt;stroke-linejoin:miter;stroke-opacity:1" />
    <path
       style="fill:#9e6ea8;fill-opacity:1;fill-rule:evenodd;stroke:#9e6ea8;stroke-width:0.38552728px;stroke-linecap:butt;stroke-linejoin:miter;stroke-opacity:1"
       d="M 58.131356,75.070832 C 59.803322,73.688238 64.3749,76.683267 66.640747,79.017521 C 69.090558,81.294921 67.972609,85.389451 66.933323,95.596125 C 66.086294,117.5172 67.001468,111.23316 66.784828,124.74609 C 66.933461,132.56167 62.555904,135.29998 61.274508,135.43408 C 60.060216,133.92724 56.392543,132.55295 56.373055,125.19489 C 56.361245,114.15385 58.307236,98.593627 56.896748,89.223618 C 56.611632,86.919883 55.509945,84.616139 54.55669,82.229816 C 53.407561,80.278345 56.624979,77.632298 58.131356,75.070832 z "
       id="path3822"
       sodipodi:nodetypes="ccccccccc" />
  </g>
</svg>
