<?xml version="1.0" encoding="utf-8"?>
<!-- Generator: Adobe Illustrator 24.1.2, SVG Export Plug-In . SVG Version: 6.00 Build 0)  -->
<svg version="1.1" id="Capa_1" xmlns="http://www.w3.org/2000/svg" xmlns:xlink="http://www.w3.org/1999/xlink" x="0px" y="0px"
     width="48.2px" height="48.2px" viewBox="0 0 48.2 48.2" style="enable-background:new 0 0 48.2 48.2;" xml:space="preserve">
<style type="text/css">
	.st0{fill:#030104;}
</style>
<g>
	<g>
		<path class="st0" d="M43,40c-0.9-7.2-2.3-13.9-5.7-20.2c-1-1.9-2.6-3.5-3.8-5.3c-0.2-0.3-0.5-0.7-0.7-1.1c0.7-0.6,1.4-1.3,2.1-2
			c0.8-0.8,1.5-1.5,2.1-2.3c0.7-0.8,1.2-1.5,1.7-2.1c1-1.3,1.5-2.3,1.5-2.3s-1,0.5-2.3,1.5c-0.7,0.5-1.4,1.1-2.1,1.7
			c-0.8,0.7-1.5,1.4-2.3,2.1c-0.4,0.4-0.9,0.9-1.3,1.4c-0.7-3.4-3.5-6.2-7-6.6c-3.7-0.5-7.6,1.7-8.5,5.4c-0.1,0.5-0.3,1-0.4,1.4
			c-0.5-0.5-1-1-1.5-1.5C14,9.3,13.2,8.6,12.5,8c-0.8-0.7-1.5-1.2-2.1-1.7C9,5.3,8,4.8,8,4.8s0.5,1,1.5,2.3c0.5,0.7,1.1,1.4,1.7,2.1
			c0.7,0.8,1.4,1.5,2.1,2.3c0.7,0.7,1.4,1.3,2.1,1.9c-0.7,1.2-1.5,2.3-2.5,3.4c-0.3,0.3-0.5,0.7-0.8,1c-4.4,7-6,14.9-6.9,23
			c0,0.4,0.3,1.1,0.5,1.1c3,0.5,5.9,0.9,8.9,1.3c1.1,0.2,2,0.2,2.1,0.1c0.1-0.1-0.8-0.5-1.6-1.2c-1.2-1.2-1.4-2.8-1.5-4.6
			c-0.1-1.7-0.2-3.3-0.5-4.9c-0.3-1.4,0.3-1.9,1.5-2c2.6-0.4,5.3-0.7,8-1.1c0.4-0.1,0.8-0.2,1.2-0.4c0.7-0.3,1.4,0.3,2.2,0.5
			c0.5,0.1,1,0,1.4-0.2c0.4-0.2,0.8-0.6,1.1-1.1c0.5-0.7,0.7-0.3,1.3,0.6c0.5,0.9,1.6,1.2,3,1.4c2.9,0.4,2.8,0.6,2.5,3.5
			c0,0.5,0,1-0.1,1.4c-0.5,2.3,0.1,5.1-1.8,6.9c-0.8,0.7-1.6,1.1-1.5,1.2c0.1,0.1,1.1,0,2.1-0.1c2.4-0.3,4.9-0.7,7.4-1
			C42.3,42.1,43.1,41.1,43,40z M21.3,8.2C20.2,9,19.2,9.3,19,9s0.4-1.2,1.5-1.9c1-0.7,2.1-1.1,2.3-0.7C23,6.6,22.3,7.5,21.3,8.2z"/>
		<path class="st0" d="M32,35.9c0-0.2-0.9-0.2-1.9-0.1c-1,0.1-1.8,0.4-1.8,0.7c0,0.2,0.9,0.3,1.9,0.1C31.3,36.4,32,36.1,32,35.9z"/>
		<path class="st0" d="M18.2,35.8c-0.9-0.2-1.7-0.1-1.8,0.1c0,0.2,0.7,0.5,1.6,0.7c0.9,0.2,1.7,0.1,1.8-0.1
			C19.9,36.3,19.2,36,18.2,35.8z"/>
		<path class="st0" d="M25.3,40.3c-0.1,0-0.3,0-0.5-0.1c-0.1,0-0.2-0.1-0.3-0.1c-0.1,0-0.2,0-0.2-0.1c-0.1,0-0.3-0.1-0.4,0
			c-0.1,0-0.3,0-0.4,0c-0.1,0-0.2,0.1-0.2,0.1c-0.1,0-0.2,0.1-0.2,0.1c-0.2,0.1-0.4,0-0.5,0.1c-0.1,0-0.2,0.1-0.2,0.1s0,0.1,0,0.3
			c0,0.2,0,0.3,0.1,0.6c0.1,0.1,0.1,0.2,0.3,0.3c0.1,0.1,0.2,0.2,0.4,0.3c0.1,0.1,0.3,0.2,0.4,0.2c0.2,0,0.3,0.1,0.5,0.1
			c0.2,0,0.3,0,0.5-0.1c0.2,0,0.3-0.1,0.4-0.2c0.3-0.1,0.5-0.4,0.6-0.6c0.1-0.2,0.2-0.4,0.2-0.6c0-0.2,0-0.2,0-0.2
			S25.4,40.3,25.3,40.3z"/>
	</g>
</g>
</svg>
