<?xml version="1.0" encoding="utf-8"?>
<!-- Generator: Adobe Illustrator 24.1.2, SVG Export Plug-In . SVG Version: 6.00 Build 0)  -->
<svg version="1.1" id="Capa_1" xmlns="http://www.w3.org/2000/svg" xmlns:xlink="http://www.w3.org/1999/xlink" x="0px" y="0px"
     width="48.2px" height="48.2px" viewBox="0 0 48.2 48.2" style="enable-background:new 0 0 48.2 48.2;" xml:space="preserve">
<style type="text/css">
	.st0{fill:#010002;}
</style>
<g>
	<g>
		<path class="st0" d="M41.6,41.2c-2.1-1.5-3.2-2.3-5.1-3.9c-0.3,0.5-0.7,0.9-1.1,1.3c-0.3,0.3-0.6,0.5-0.9,0.7
			c-0.2,0.2-0.5,0.3-0.7,0.4c2.2,1.8,3.3,2.7,5.7,4.4c0.9,0.6,2.1,0.4,2.7-0.5C42.7,42.9,42.5,41.8,41.6,41.2z"/>
		<path class="st0" d="M35.5,36.2c0-0.1,0.1-0.1,0.1-0.2c0.3-0.4,0.5-0.8,0.6-1.2c0.2-0.4,0.3-0.8,0.3-1.1c0.1-0.3,0.1-0.5,0.1-0.5
			s-0.2,0-0.5,0.1c-0.3,0.1-0.7,0.2-1.1,0.3c-0.5,0.2-1.1,0.5-1.6,0.9c-0.2-0.1-0.3-0.2-0.5-0.4c-2-1.5-3.9-3.2-5.8-4.9
			c-0.7,0.8-1.5,1.5-2.3,2.3c2,1.9,4.1,3.6,6.4,5.2c-0.3,0.5-0.6,1-0.8,1.4c-0.2,0.4-0.3,0.8-0.3,1.1C30,39.7,30,39.9,30,39.9
			s0.2,0,0.5-0.1c0.3-0.1,0.7-0.2,1.1-0.3c0.4-0.1,0.8-0.4,1.2-0.6c0.2-0.1,0.4-0.3,0.7-0.4c0.3-0.2,0.6-0.5,0.9-0.8
			C34.8,37.2,35.2,36.7,35.5,36.2z"/>
		<path class="st0" d="M8.4,11.3c0.2,0.3,0.4,0.5,0.5,0.8c3.6,5.5,7.7,10.9,12.2,15.8c0.8-0.7,1.5-1.5,2.3-2.2
			c-3.5-3.7-6.7-7.6-9.6-11.7c-0.9-1.2-1.6-2.4-2.3-3.5c-1.3-1.7-2.7-3.4-4.1-5C7,5.2,5.9,4.3,5.8,3.8c0,0,0.2,0.9,0.6,2.4
			C6.9,7.8,7.3,9.9,8.4,11.3z"/>
		<polygon class="st0" points="42,3.7 41.9,3.7 42.4,3.8 		"/>
		<path class="st0" d="M12.9,38.7c-0.4-0.4-0.8-0.9-1.1-1.3c-2,1.6-3,2.4-5.1,3.9c-0.9,0.6-1.1,1.7-0.5,2.5c0.4,0.5,1,0.8,1.6,0.8
			c0.4,0,0.8-0.1,1.1-0.3c2.4-1.7,3.5-2.6,5.7-4.4c-0.2-0.1-0.5-0.3-0.7-0.4C13.5,39.2,13.2,39,12.9,38.7z"/>
		<path class="st0" d="M26.4,28.6c4.9-5,9.1-10.7,12.9-16.5c0.2-0.3,0.4-0.5,0.5-0.8c1-1.4,1.5-3.5,2-5.1c0.5-1.5,0.6-2.4,0.6-2.4
			c-0.1,0.5-1.2,1.4-1.5,1.7c-1.5,1.6-2.8,3.3-4.1,5c-0.7,1.1-1.5,2.3-2.3,3.5c-3.2,4.4-6.6,8.6-10.3,12.4c-0.7,0.8-1.5,1.5-2.3,2.2
			c-2.1,2-4.2,3.8-6.5,5.6c-0.2,0.1-0.3,0.2-0.5,0.4c-0.5-0.4-1.1-0.7-1.6-0.9c-0.4-0.2-0.8-0.3-1.1-0.3c-0.3-0.1-0.5-0.1-0.5-0.1
			s0,0.2,0.1,0.5c0.1,0.3,0.2,0.7,0.3,1.1c0.1,0.4,0.4,0.8,0.6,1.2c0,0.1,0.1,0.1,0.1,0.2c0.3,0.5,0.7,1,1.1,1.4
			c0.3,0.3,0.6,0.5,0.9,0.8c0.2,0.2,0.4,0.3,0.7,0.4c0.4,0.2,0.8,0.5,1.2,0.6c0.4,0.2,0.8,0.3,1.1,0.3c0.3,0.1,0.5,0.1,0.5,0.1
			s0-0.2-0.1-0.5c-0.1-0.3-0.2-0.7-0.3-1.1c-0.2-0.5-0.4-0.9-0.8-1.4c2.5-1.8,4.9-3.8,7.1-5.9C24.9,30.2,25.6,29.4,26.4,28.6z"/>
	</g>
</g>
</svg>
