<?xml version="1.0" encoding="utf-8"?>
<!-- Generator: Adobe Illustrator 24.1.2, SVG Export Plug-In . SVG Version: 6.00 Build 0)  -->
<svg version="1.1" id="Capa_1" xmlns="http://www.w3.org/2000/svg" xmlns:xlink="http://www.w3.org/1999/xlink" x="0px" y="0px"
     width="48.2px" height="48.2px" viewBox="0 0 48.2 48.2" style="enable-background:new 0 0 48.2 48.2;" xml:space="preserve">
<style type="text/css">
	.st0{fill:#010002;}
</style>
<g>
	<g>
		<path class="st0" d="M40.2,5.7L26.1,7.2c-1.1,0.1-2.9,0.1-4,0L8,5.7C6.9,5.6,6,6.3,6,7.5v1.7c0,1.1,0.9,2,2,2h6.7
			c1.2,1.1,2.6,1.9,4.1,2.5c-4.2,2-7.2,6.4-7.2,11.4c0,3,1,5.7,2.7,7.8c0.3-0.3,0.5-0.7,0.8-1.1c0.7-1,1.4-2.1,2.1-3.4
			c0.4-0.6,0.7-1.3,1-2c0.3-0.7,0.6-1.4,0.9-2.1c0-0.1,0.1-0.2,0.1-0.3c0.2-0.5-0.9-0.7-1.1-0.8c-0.2-0.1-0.2-0.2,0-0.3
			c0.3-0.1,1.6-0.4,1.7-0.7c0,0,0,0,0-0.1c0.1-0.4,0.1-0.7,0.2-1c0.1-0.6-0.4-1.1-1.2-1.1c-0.5,0-1-0.1-1.4-0.1
			c-1.1-0.1-1.9-0.2-2.6-0.4c-0.2,0-0.4-0.1-0.5-0.1c-0.3-0.1-0.3-0.2,0-0.3c0.1,0,0.3-0.1,0.5-0.2c0.6-0.2,1.5-0.5,2.5-0.7
			c0.5-0.1,1.1-0.3,1.7-0.4c0.9-0.2,1.7-0.6,1.8-1c0-0.2,0.1-0.5,0.1-0.7C21,15.5,21,15,21,14.5c0-0.1,0-0.1,0-0.2
			c0-0.4,0-0.7,0.1-1c0,0,0,0,0-0.1c0-0.2,0-0.3,0-0.5c-0.3,0.1-0.7,0.2-1,0.3c-1.4-0.4-2.7-1.1-3.8-1.9h15.6
			c-1.1,0.8-2.4,1.5-3.7,1.9c-1.3-0.4-2.6-0.6-4-0.6c-0.8,0-1.7,0.1-2.5,0.2c0.1,0.1,0.1,0.3,0.2,0.4c0.1,0.1,0.1,0.3,0.2,0.5
			c0.1,0.2,0.2,0.5,0.3,0.8c0,0.1,0.1,0.2,0.1,0.3c0.1,0.4,0.3,0.9,0.3,1.5c0,0.2,0.1,0.4,0.1,0.6c0,0.3,0.5,0.5,1,0.5
			c0.3,0,0.6-0.1,0.9-0.1c2.8-0.2,5.6-0.2,7.7,0c0.6,0.1,1.2,0.1,1.7,0.2c-1.2-1.6-2.8-2.9-4.6-3.7c1.4-0.6,2.7-1.4,3.9-2.4h6.7
			c1.1,0,2-0.9,2-2V7.5C42.2,6.3,41.3,5.5,40.2,5.7z"/>
		<path class="st0" d="M40.2,37.1l-14.1,1.6c-1.1,0.1-2.9,0.1-4,0L8,37.1c-1.1-0.1-2,0.7-2,1.8v1.7c0,1.1,0.9,2,2,2h32.2
			c1.1,0,2-0.9,2-2v-1.7C42.2,37.8,41.3,37,40.2,37.1z"/>
		<path class="st0" d="M8.2,35.8c0.6,0,1-0.4,1.1-0.8l0.8-10c0-0.5,0-1.2,0-1.7l-1-10c0-0.5-0.5-0.8-1.1-0.8c-0.6,0-1,0.4-1.1,0.8
			l-0.8,10c0,0.5,0,1.2,0,1.7l1,10C7.1,35.4,7.6,35.8,8.2,35.8z"/>
		<path class="st0" d="M40.3,35.7c0.6,0,1-0.4,1.1-0.8l0.8-10c0-0.5,0-1.2,0-1.7l-1-10c0-0.5-0.5-0.8-1.1-0.8c-0.6,0-1,0.4-1.1,0.8
			l-0.8,10c0,0.5,0,1.2,0,1.7l1,10C39.3,35.3,39.7,35.7,40.3,35.7z"/>
		<path class="st0" d="M21.3,24.7c-0.1,0.2-0.2,0.4-0.3,0.6c-0.4,0.8-0.8,1.5-1.2,2.2c-0.4,0.7-0.9,1.3-1.3,1.9
			c-0.9,1.2-1.9,2.2-2.7,3.1c-0.4,0.4-0.7,0.7-1,0.9c0.6,0.6,1.2,1.2,1.8,1.7c3.1-1.3,6-3.5,8.1-6c0,0,0.1-0.1,0.1-0.1
			c0-0.1-0.1-0.3-0.4-0.6c-0.2-0.1-0.3-0.3-0.5-0.5c-0.8-0.8-1.3-1.4-1.3-1.3c0,0-0.2,0-0.6-0.1c-0.2,0-0.5-0.1-0.7-0.1
			c-0.1,0-0.1-0.1-0.1-0.2c0-0.1,0.1-0.1,0.1-0.1c0.5-0.1,0.9-0.2,1.4-0.2c0,0,0.1,0,0.1,0l0.1,0c0.5,0.3,0.9,0.6,1.4,0.9
			c0.8,0.5,1.5,0.8,1.5,0.8c0,0,0.1-0.1,0.1-0.1c0.5-0.5,0.8-1,1.2-1.4c0.4-0.4,0.8-0.9,1.1-1.3c0.3-0.4,0.7-0.7,1-1.1
			c0,0,0.1-0.1,0.1-0.1c0.1-0.1-0.9,0.2-2.2,0.4c-1.1,0.2-2.1,0.1-3.3,0C23.2,24.1,21.7,23.9,21.3,24.7z"/>
		<path class="st0" d="M33.6,33.6c2.1-2.3,3.4-5.3,3.4-8.6c0-2.6-0.8-4.9-2.1-6.9c-0.6,0.2-1.3,0.4-2.2,0.6c-2.1,0.5-4.8,1-7.6,1.2
			c-0.4,0-0.7,0-1.1,0.1c-0.6,0-1.1,0.2-1.1,0.3c0,0.1,0,0.2,0,0.3c0,0.2-0.1,0.3-0.1,0.5c-0.1,0.3,0.3,0.4,1,0.4
			c0.4,0,0.7-0.1,1.1-0.1c1.7,0,3.5,0.2,4.8,0.5c0.2,0.1,0.4,0.1,0.6,0.2c0.3,0.1,0.6,0.2,0.6,0.2c0.1-0.1,0.2-0.1,0.2,0
			c0,0,0,0,0,0.1c0,0,0,0.1,0.1,0.1c0,0,0.1,0,0.1,0c0.1,0,0.2,0.1,0.3,0.1c0.2,0.1,0.2,0.2,0,0.3c-0.1,0-0.2,0.1-0.3,0.1
			c0,0-0.1,0-0.1,0.1c-0.1,0-0.1,0.1-0.2,0.2c0,0.1,0,0.1,0,0.2c-0.4,2-1.2,3.7-2.3,5.4c0,0.1-0.1,0.2-0.2,0.2
			c-0.1,0.1,0.1,0.4,0.4,0.6c0.2,0.1,0.4,0.3,0.6,0.4c0.5,0.3,1.1,0.6,1.6,1c0.5,0.4,1,0.8,1.4,1.2C32.8,32.7,33.2,33.1,33.6,33.6z"
			/>
		<path class="st0" d="M28.1,32.1c-0.2-0.2-0.5-0.4-0.7-0.7c-0.4-0.4-0.8-0.5-0.9-0.4c-0.1,0.1-0.2,0.1-0.3,0.2
			c-2.8,2-5.5,3.7-8.7,4.6c1.9,1.2,4.2,1.9,6.7,1.9c2.9,0,5.6-1,7.7-2.6c-0.3-0.2-0.6-0.3-0.9-0.5c-0.5-0.3-1.1-0.7-1.5-1.1
			C29,33,28.6,32.5,28.1,32.1z"/>
	</g>
</g>
</svg>
