<?xml version="1.0" encoding="utf-8"?>
<!-- Generator: Adobe Illustrator 24.1.2, SVG Export Plug-In . SVG Version: 6.00 Build 0)  -->
<svg version="1.1" id="Capa_1" xmlns="http://www.w3.org/2000/svg" xmlns:xlink="http://www.w3.org/1999/xlink" x="0px" y="0px"
     width="48.2px" height="48.2px" viewBox="0 0 48.2 48.2" style="enable-background:new 0 0 48.2 48.2;" xml:space="preserve">
<style type="text/css">
	.st0{fill:#010002;}
</style>
<g>
	<g>
		<path class="st0" d="M34.4,17.4c0.3,0.2,0.6,0.3,1,0.3c1,0,1.9-0.8,1.9-1.9v-1.3c0-0.4,0.1-0.9,0.2-1.3c0.1-0.2,0.1-0.4,0.1-0.6
			l0-0.1c0-0.2,0-0.3,0.1-0.4c0,0,0-0.1,0.1-0.1c0.1,0,0.1,0.1,0.2,0.1c0.3,0.2,0.6,0.3,1,0.3c0.3,0,0.5-0.1,0.8-0.3
			c0.1-0.1,0.2-0.2,0.2-0.4v-1.8c0-0.1-0.1-0.3-0.2-0.4c-0.2-0.2-0.5-0.3-0.8-0.3c-0.4,0-0.7,0.2-1,0.3c-0.1,0-0.2,0.1-0.2,0.1
			c0,0,0,0,0-0.1c0-0.1-0.1-0.3-0.1-0.4l0-0.1c0-0.2-0.1-0.4-0.1-0.6c-0.1-0.4-0.2-0.8-0.2-1.1V6.3c0-1-0.8-1.9-1.9-1.9
			c-0.9,0-1.6,0.6-1.8,1.5c-0.3,0-0.8,0-1.5,0H16.1c-0.7,0-1.2,0-1.5,0c-0.2-0.8-0.9-1.5-1.8-1.5c-1,0-1.9,0.8-1.9,1.9v1.2
			c0,0.4-0.1,0.9-0.2,1.3c0,0.2-0.1,0.4-0.1,0.5l0,0.1c0,0.2,0,0.3-0.1,0.4c0,0,0,0.1-0.1,0.1c-0.1,0-0.1-0.1-0.2-0.1
			c-0.3-0.2-0.6-0.3-1-0.3C9,9.4,8.7,9.5,8.5,9.7c-0.1,0.1-0.2,0.2-0.2,0.4v1.8c0,0.1,0.1,0.3,0.2,0.4c0.2,0.2,0.5,0.3,0.8,0.3
			c0.4,0,0.7-0.2,1-0.3c0.1,0,0.2-0.1,0.2-0.1c0,0,0,0,0,0.1c0,0.1,0.1,0.3,0.1,0.4l0,0.1c0,0.1,0,0.3,0.1,0.5
			c0.1,0.3,0.1,0.7,0.2,1.1c0,0.1,0,0.2,0,0.3v1.3c0,0.6,0.3,1.2,0.8,1.5c0.3,0.2,0.6,0.3,0.9,0.3c0,0,0.1,0,0.1,0
			c0.5,0,1-0.2,1.3-0.5c0,0.2,0,0.3,0,0.5v13.3c-0.3-0.3-0.8-0.5-1.3-0.5c0,0-0.1,0-0.1,0c-0.3,0-0.7,0.1-0.9,0.3
			c-0.5,0.3-0.8,0.9-0.8,1.5v1.3c0,0.1,0,0.2,0,0.3c0,0.4-0.1,0.7-0.2,1.1c0,0.2-0.1,0.4-0.1,0.5l0,0.1c0,0.2,0,0.3-0.1,0.4
			c0,0,0,0.1-0.1,0.1c-0.1,0-0.1-0.1-0.2-0.1c-0.3-0.2-0.6-0.3-1-0.3c-0.3,0-0.5,0.1-0.8,0.3c-0.1,0.1-0.2,0.2-0.2,0.4v1.8
			c0,0.1,0.1,0.3,0.2,0.4c0.2,0.2,0.5,0.3,0.8,0.3c0.4,0,0.7-0.2,1-0.3c0.1,0,0.2-0.1,0.2-0.1c0,0,0,0,0,0.1c0,0.1,0.1,0.3,0.1,0.4
			l0,0.1c0,0.1,0,0.3,0.1,0.5c0.1,0.4,0.2,0.9,0.2,1.3V42c0,1,0.8,1.9,1.9,1.9s1.9-0.8,1.9-1.9v-1.6c0-0.5,0.4-0.9,1-1
			c0.1,0,0.3-0.1,0.5-0.1H32c0.2,0,0.3,0,0.5,0.1c0.6,0.1,1,0.6,1,1V42c0,1,0.8,1.9,1.9,1.9c1,0,1.9-0.8,1.9-1.9v-1.3
			c0-0.4,0.1-0.8,0.2-1.2c0.1-0.2,0.1-0.4,0.1-0.6l0-0.1c0-0.2,0-0.3,0.1-0.4c0,0,0-0.1,0.1-0.1c0.1,0,0.1,0.1,0.2,0.1
			c0.3,0.2,0.6,0.3,1,0.3c0.3,0,0.5-0.1,0.8-0.3c0.1-0.1,0.2-0.2,0.2-0.4v-1.8c0-0.1-0.1-0.3-0.2-0.4c-0.2-0.2-0.5-0.3-0.8-0.3
			c-0.4,0-0.7,0.2-1,0.3c-0.1,0-0.1,0.1-0.2,0.1c0,0,0,0,0-0.1c0-0.1-0.1-0.3-0.1-0.4l0-0.1c0-0.2-0.1-0.4-0.1-0.6
			c-0.1-0.4-0.2-0.8-0.2-1.2v-1.3c0-1-0.8-1.9-1.9-1.9c-0.4,0-0.7,0.1-1,0.3V17.7C34.4,17.6,34.4,17.5,34.4,17.4z M33.5,37.1
			c-0.2,0.1-0.7,0.3-1.5,0.3H16.1c-0.6,0-1.1-0.1-1.3-0.2c0.3-0.1,0.7-0.2,1.3-0.2c4.5,0,15,0,17.4,0V37.1z M16,33.5V33V17.7
			c0-0.8,0.7-1.5,1.5-1.5H31c0.8,0,1.5,0.7,1.5,1.5v13.4v2.3c0,0.1,0,0.3-0.1,0.4c0,0,0,0.1,0,0.1c-0.2,0.6-0.7,1-1.3,1
			c0,0-0.1,0-0.1,0H17.5c-0.1,0-0.2,0-0.4,0c-0.5-0.1-0.9-0.5-1-0.9c0,0,0-0.1,0-0.1C16,33.8,16,33.7,16,33.5z M33.5,11.4v1.4
			c0,0.7-0.4,1.2-1,1.4c-0.2,0.1-0.3,0.1-0.5,0.1H16.1c-0.2,0-0.5-0.1-0.6-0.2c-0.5-0.2-0.9-0.8-0.9-1.3v-1.4V9.3
			c0-0.2,0-0.3,0.1-0.5c0.2-0.6,0.8-1,1.4-1H32c0.7,0,1.2,0.4,1.4,1c0,0.1,0.1,0.3,0.1,0.5V11.4z"/>
		<path class="st0" d="M17.1,32.2c0,0,0.8-0.5,1.9-1.6c0.5-0.5,1.1-1.2,1.7-1.9c0.3-0.4,0.6-0.8,0.8-1.2c0.3-0.4,0.5-0.9,0.8-1.4
			c0.1-0.1,0.1-0.3,0.2-0.4c0.2-0.5,1.2-0.4,1.6-0.4c0.7,0,1.4,0.1,2.1,0c0.8-0.1,1.4-0.3,1.4-0.2c0,0,0,0-0.1,0.1
			c-0.2,0.2-0.4,0.4-0.6,0.7c-0.2,0.3-0.4,0.5-0.7,0.8c-0.3,0.3-0.5,0.6-0.8,0.9c0,0,0,0,0,0.1c0,0-0.4-0.2-0.9-0.5
			c-0.3-0.2-0.6-0.4-0.9-0.5l0,0c0,0,0,0-0.1,0c-0.3,0-0.6,0.1-0.9,0.1c0,0-0.1,0-0.1,0.1c0,0,0,0.1,0.1,0.1c0.1,0,0.3,0,0.4,0.1
			c0.2,0,0.4,0.1,0.4,0c0,0,0.3,0.4,0.8,0.8c0.1,0.1,0.2,0.2,0.3,0.3c0.2,0.2,0.3,0.3,0.2,0.4c0,0,0,0-0.1,0.1
			c-1.7,2-4.3,3.8-6.9,4.4c0,0,0,0,0,0.1c0,0,0,0,0,0c0,0,0,0.1,0.1,0.1c0,0,0.2,0,0.6,0c0.2,0,0.4-0.1,0.6-0.1
			c2.5-0.4,4.6-1.7,6.7-3.1c0.1,0,0.1-0.1,0.2-0.1c0.1-0.1,0.4,0,0.6,0.3c0.1,0.1,0.3,0.3,0.4,0.4c0.3,0.3,0.6,0.6,0.9,0.9
			c0.3,0.3,0.6,0.5,1,0.7c0.3,0.2,0.7,0.4,1.1,0.5c0.2,0.1,0.4,0.1,0.6,0.2c0.2,0.1,0.4,0.1,0.6,0.1c0,0,0,0,0,0c0,0,0.1-0.1,0-0.1
			c-0.1-0.2-0.2-0.4-0.3-0.6c-0.1-0.2-0.2-0.4-0.4-0.5c-0.2-0.4-0.5-0.7-0.8-1c-0.3-0.3-0.6-0.6-0.9-0.8c-0.3-0.2-0.7-0.4-1-0.6
			c-0.1-0.1-0.3-0.2-0.4-0.2c-0.2-0.1-0.3-0.3-0.3-0.4c0,0,0.1-0.1,0.1-0.2c0.7-1.1,1.2-2.1,1.4-3.4c0,0,0-0.1,0-0.1
			c0-0.1,0.1-0.1,0.1-0.1c0,0,0.1,0,0.1,0c0.1,0,0.1-0.1,0.2-0.1c0.1-0.1,0.1-0.1,0-0.2c-0.1,0-0.1-0.1-0.2-0.1c0,0,0,0,0,0
			c0,0,0,0-0.1-0.1c0,0,0,0,0,0c0,0-0.1,0-0.1,0c0,0-0.2,0-0.4-0.1c-0.1,0-0.2-0.1-0.4-0.1c-0.8-0.2-1.9-0.3-3-0.3
			c-0.2,0-0.5,0-0.7,0c-0.4,0-0.6-0.1-0.6-0.2c0-0.1,0.1-0.2,0.1-0.3c0-0.1,0-0.1,0-0.2c0-0.1,0.3-0.2,0.7-0.2c0.2,0,0.5,0,0.7,0
			c1.8-0.1,3.5-0.4,4.8-0.7c0.7-0.2,1.2-0.3,1.6-0.5c0.1,0,0.2-0.1,0.3-0.1c0.2-0.1,0.2-0.2,0-0.2c-0.1,0-0.2,0-0.3-0.1
			c-0.4-0.1-0.9-0.2-1.6-0.2c-1.3-0.1-3.1-0.2-4.8,0c-0.2,0-0.4,0-0.6,0c-0.3,0-0.6-0.1-0.6-0.3c0-0.1,0-0.2-0.1-0.4
			c-0.1-0.4-0.2-0.8-0.3-1.1c-0.1-0.3-0.2-0.6-0.3-0.8c-0.2-0.4-0.4-0.6-0.4-0.6c0,0,0,0-0.1,0c0,0-0.1,0-0.1,0.1c0,0,0,0.3,0,0.7
			c0,0.2,0,0.5,0,0.8c0,0.3,0,0.6-0.1,1c0,0.1,0,0.3-0.1,0.4c0,0.2-0.5,0.5-1.1,0.6c-0.4,0.1-0.7,0.2-1.1,0.2
			c-0.7,0.2-1.2,0.3-1.6,0.5c-0.1,0-0.2,0.1-0.3,0.1c-0.2,0.1-0.2,0.2,0,0.2c0.1,0,0.2,0,0.3,0.1c0.4,0.1,0.9,0.2,1.6,0.2
			c0.3,0,0.6,0.1,0.9,0.1c0.5,0,0.8,0.3,0.8,0.7c0,0.2-0.1,0.4-0.1,0.7c0,0,0,0,0,0c-0.1,0.2-0.9,0.4-1,0.4c-0.1,0-0.1,0.1,0,0.2
			c0.2,0.1,0.8,0.2,0.7,0.5c0,0.1,0,0.1-0.1,0.2c-0.2,0.5-0.4,0.9-0.6,1.3c-0.2,0.4-0.4,0.9-0.6,1.3c-0.5,0.8-0.9,1.5-1.4,2.1
			c-0.9,1.2-1.5,1.9-1.5,1.9c0,0,0,0.1,0,0.1C17,32.3,17,32.3,17.1,32.2z"/>
	</g>
</g>
</svg>
