<?xml version="1.0" encoding="utf-8"?>
<!-- Generator: Adobe Illustrator 24.1.2, SVG Export Plug-In . SVG Version: 6.00 Build 0)  -->
<svg version="1.1" id="Capa_1" xmlns="http://www.w3.org/2000/svg" xmlns:xlink="http://www.w3.org/1999/xlink" x="0px" y="0px"
     width="48.2px" height="48.2px" viewBox="0 0 48.2 48.2" style="enable-background:new 0 0 48.2 48.2;" xml:space="preserve">
<style type="text/css">
	.st0{fill:#030104;}
</style>
<g>
	<g>
		<path class="st0" d="M40.3,24.8c-0.4-0.3-0.9-0.6-1.3-0.8c-0.7-0.4-1.4-0.7-1.4-0.7c0,0-0.1,0.1-0.3,0.1c-0.1,0-0.1,0.1-0.2,0.1
			c-0.3,0.1-0.7,0.3-1.2,0.5c-0.5,0.2-1.1,0.4-1.7,0.5c-0.3,0.1-0.6,0.1-1,0.2c-0.3,0.1-0.7,0.1-1,0.2c-0.7,0.1-1.3,0.2-2,0.2
			c-0.3,0-0.6,0-0.9,0c-0.3,0-0.6,0-0.8,0c-0.3,0-0.6-0.1-0.8-0.1c-0.5,0-0.5-0.1,0-0.1c0.2,0,0.5,0,0.8,0c0.2,0,0.5,0,0.8-0.1
			c0.3,0,0.6-0.1,0.9-0.1c0.6-0.1,1.3-0.2,1.9-0.4c0.3-0.1,0.6-0.1,0.9-0.3c0.3-0.1,0.6-0.2,0.9-0.3c0.6-0.2,1.1-0.5,1.5-0.7
			c0.1-0.1,0.2-0.1,0.3-0.2c0.2-0.1,0-0.3-0.4-0.5C35,22.1,34.7,22,34.8,22h0.6c0.5,0,1-0.4,1-1s-0.4-1-1-1h-4.9h-8.1h-4.9
			c-0.5,0-1,0.4-1,1s0.4,1,1,1c0,0,0.1,0,0.3,0c0.2,0-0.3,0.1-0.9,0.4c-0.4,0.2-0.8,0.5-1.1,0.7c-1.1,0.6-4.6,2.8-5.8,1.4
			c-0.3-0.4-0.7-0.8-1.2-1.3c-0.8-0.8-2.7-0.9-4.2-0.2S3.1,24.9,4,25.5c1.1,0.7,1.8,1.3,2.5,1.9c1.3,1.2,1.8,2.7,1.7,3.3
			c-0.1,0.3-0.1,0.7-0.1,1c0,5.9,8.2,10.6,18.4,10.6c10.1,0,18.4-4.7,18.4-10.6C44.8,29.1,43.1,26.6,40.3,24.8z M5.8,24.5
			c-0.8,0.4-1.6,0.4-1.7,0.1c-0.1-0.3,0.4-0.7,1.2-1.1s1.4-0.5,1.5-0.2C7,23.5,6.6,24.1,5.8,24.5z"/>
		<path class="st0" d="M25.7,15.7c-0.6,0-1.9,1.3-1.9,3c0,0.1,0,0.3,0,0.4c0,0.2,0.7,0.4,1.5,0.4h2.3c0.8,0,1.5-0.2,1.5-0.4
			c0-0.1,0-0.3,0-0.4c0-1.6-1.2-3-1.9-3C27.3,15.7,25.7,15.7,25.7,15.7z M27.6,17.2c0,0.4-0.2,0.7-0.5,0.7h-1.3
			c-0.3,0-0.5-0.3-0.5-0.7c0-0.4,0.2-0.7,0.5-0.7h1.3C27.4,16.5,27.6,16.8,27.6,17.2z"/>
		<path class="st0" d="M11.4,17.8c0,0.3,0.1,0.6,0.2,0.9c0.4,1.1,1,2,1.7,2.8c0.2,0.2,0.4,0.4,0.6,0.6c0.3,0.3,0.9,0.4,1.1,0.3
			c0.3-0.1-0.3-0.9-1.1-1.9c-0.4-0.6-0.8-1.3-0.9-2.1c-0.1-0.2-0.1-0.4-0.1-0.7c0-0.4,0-0.9,0-1.1c0-0.2,0.1-0.5,0.1-0.7l0.1-0.3
			c0.3-0.9,0.8-1.8,1.5-2.5c1.4-1.5,3.3-2.5,5.4-3.2c2-0.7,4.3-1,6.4-1c2.2,0,4.4,0.3,6.5,1c2,0.7,4,1.7,5.3,3.2
			c0.7,0.7,1.2,1.6,1.5,2.5c0.3,0.9,0.3,1.9,0.1,2.8c-0.2,0.8-0.5,1.4-0.9,2c-0.7,1-1.3,1.8-1,1.9c0.3,0.1,0.8,0,1.1-0.3
			c0.2-0.2,0.4-0.4,0.6-0.6c0.7-0.7,1.3-1.6,1.7-2.8c0.3-1.1,0.5-2.3,0.2-3.6c-0.3-1.2-0.9-2.4-1.7-3.4c-1.6-2-3.7-3.4-6-4.3
			c-1.2-0.4-2.4-0.8-3.6-1c-0.6-0.1-1.3-0.2-1.9-0.3C27.6,6,27.1,6,26.5,5.9c-1.4,0-2.5,0.1-3.8,0.4c-1.2,0.2-2.4,0.5-3.6,1
			c-1.1,0.5-2.3,1-3.3,1.7c-1,0.7-2,1.6-2.7,2.6c-0.8,1-1.4,2.2-1.7,3.4c0,0.2-0.1,0.3-0.1,0.5c0,0.3-0.1,0.7-0.1,0.9l0,0.4
			C11.3,17.2,11.4,17.4,11.4,17.8z"/>
	</g>
</g>
</svg>
