<?xml version="1.0" encoding="utf-8"?>
<!-- Generator: Adobe Illustrator 24.1.2, SVG Export Plug-In . SVG Version: 6.00 Build 0)  -->
<svg version="1.1" id="Capa_1" xmlns="http://www.w3.org/2000/svg" xmlns:xlink="http://www.w3.org/1999/xlink" x="0px" y="0px"
     width="48.2px" height="48.2px" viewBox="0 0 48.2 48.2" style="enable-background:new 0 0 48.2 48.2;" xml:space="preserve">
<style type="text/css">
	.st0{fill:#030104;}
</style>
<g>
	<g>
		<path class="st0" d="M46.7,1.6c-0.8-0.8-2.7-1.5-3.4-0.7L40.6,5l-3.4-3.4c-0.4-0.4-1-0.4-1.4,0c-0.4,0.4-0.4,1,0,1.4l3.4,3.4
			L37.5,8c0,0-0.1,0-0.1,0.1c0,0,0,0.1-0.1,0.1L20.8,24.7c0.2,0.2,0.4,0.4,0.6,0.6l16-15.8l1.4-1.4l1-1l1.4-1.4l1.2-1.2
			c0-0.1,0.1-0.1,0.1-0.2l1.9-1.9c0.4-0.4,1-0.4,1.4,0c0.4,0.4,0.4,1,0,1.4L44,5.6c-0.1,0.1-0.2,0.2-0.4,0.2L42.5,7l-1.4,1.4l-1,1
			l-1.4,1.4L23,26.8c0.2,0.2,0.4,0.4,0.5,0.6l16-16l3.4,3.4c0.2,0.2,0.5,0.3,0.7,0.3s0.5-0.1,0.7-0.3c0.4-0.4,0.4-1,0-1.4l-3.4-3.4
			l1-1l3.4,3.4c0.2,0.2,0.5,0.3,0.7,0.3s0.5-0.1,0.7-0.3c0.4-0.4,0.4-1,0-1.4l-3.4-3.4L47.4,5C48.1,4.2,47.4,2.3,46.7,1.6z"/>
		<path class="st0" d="M39.7,8.9l-1.4,1.4L22.4,26.2c0.1,0.1,0.2,0.2,0.2,0.3l15.8-16L39.8,9l1-1l1.4-1.4l0.8-0.8
			c0,0-0.1-0.1-0.1-0.1l-0.7,0.7l-1.4,1.4L39.7,8.9z"/>
		<path class="st0" d="M41.6,6.1l-1.4,1.4l-1,1l-1.4,1.4l-16,15.8c0.1,0.1,0.2,0.2,0.2,0.2L37.9,10l1.4-1.4l1-1l1.4-1.4l0.7-0.7
			c0,0-0.1-0.1-0.1-0.1L41.6,6.1z"/>
		<path class="st0" d="M22.2,27.6l-1.5,1.5l-9.5,9.6l1.7,1.7c0.3,0.3,0.3,0.8,0,1.2s-0.8,0.3-1.2,0L10,39.7l-0.2-0.2l0,0l-0.3-0.3
			l-0.4-0.4l-0.3-0.3l0,0l-0.2-0.2l-1.8-1.8c-0.3-0.3-0.3-0.8,0-1.2c0.3-0.3,0.8-0.3,1.2,0L9.6,37l9.6-9.5l1.5-1.5
			c-0.2-0.2-0.4-0.4-0.6-0.6c-2.2-1.9-4.6-3.3-6.4-3.3c-0.1,0-0.2,0-0.4,0c-0.9,0.1-2,0.5-3.1,1.1c0,0,0.1,0.1,0.1,0.1
			c0.5,0.8,0.2,1.9-0.6,2.6c-2.1,1.7-3,2.7-4.8,4.8c-0.5,0.5-1.1,0.9-1.7,0.9c-0.3,0-0.6-0.1-0.9-0.2C2.1,31.2,2,31,1.9,30.9
			c-0.9,1.4-1.4,2.9-1.3,4C1,39.4,8.8,47.7,13.3,47.7c0,0,0,0,0,0c4.5,0,12.8-8.3,12.8-12.8c0-1.8-1.4-4.4-3.3-6.7
			C22.6,28,22.4,27.8,22.2,27.6z"/>
		<path class="st0" d="M19.9,28.7L10.6,38l0.3,0.3l9.3-9.4l1.7-1.7c-0.1-0.1-0.2-0.2-0.2-0.3L19.9,28.7z"/>
		<path class="st0" d="M19.4,28L10,37.3l0.3,0.3l9.3-9.3l1.8-1.8c-0.1-0.1-0.2-0.2-0.2-0.2L19.4,28z"/>
		<path class="st0" d="M2.9,30.5c0.1,0.1,0.2,0.1,0.3,0.1c0.3,0,0.7-0.2,1-0.5C6,27.9,6.9,27,9,25.2c0.4-0.4,0.6-1,0.4-1.3
			c0-0.1-0.1-0.1-0.2-0.1c-0.1-0.1-0.2-0.1-0.3-0.1c-0.2,0-0.5,0.1-0.8,0.3c-2.3,1.9-3.3,3-5.2,5.2c-0.1,0.2-0.2,0.3-0.3,0.5
			C2.6,30,2.6,30.3,2.9,30.5z"/>
	</g>
</g>
</svg>
