<?xml version="1.0" encoding="utf-8"?>
<!-- Generator: Adobe Illustrator 24.1.2, SVG Export Plug-In . SVG Version: 6.00 Build 0)  -->
<svg version="1.1" id="Capa_1" xmlns="http://www.w3.org/2000/svg" xmlns:xlink="http://www.w3.org/1999/xlink" x="0px" y="0px"
     width="48.2px" height="48.2px" viewBox="0 0 48.2 48.2" style="enable-background:new 0 0 48.2 48.2;" xml:space="preserve">
<style type="text/css">
	.st0{fill:#1D1C1A;}
</style>
<g>
	<path class="st0" d="M48.7,4.8c0,0-0.1,0-0.2,0.1c-0.9,0.6-4.4,2-9.3,3.1c-4.6,1-10.8,1.8-16.7,2.3c-6.2,0.6-14.9,0.8-21.3-0.5
		c-0.5-0.1-0.9,0.1-0.8,0.4c0,0.3,0.1,0.5,0.3,0.5c0.3,0.1,0.4,0.4,0.3,0.7c-0.2,0.6-0.9,0.9-1.3,1.4c-0.4,0.4,1.9,1,3,0.8
		c1.3-0.2-0.4,0.8,1.6,0.8c1.2,0,0.4,2.1,1.3,2.2c0.2,0,2.1-0.1,5-0.3c0.6,0,1,0.2,1,0.6s0.1,0.6,0.3,0.7c0.2,0,0.3,0.3,0.4,0.5
		s-0.3,0.6-0.6,0.7c-0.4,0.2-0.6,0.5-0.6,0.7c0.1,0.2-0.3,0.3-0.9,0.3l-3.9-0.1c-0.6,0-0.9,0.4-0.8,1l0.1,0.4c0.1,0.5,0.6,1,1.2,1
		l4.4,0c0.6,0,1,0.4,1,1l-0.3,5.7c0,0.6-0.5,1-1,1l-1.1,0c-0.6,0-1.1-0.2-1.3-0.4c-0.2-0.2-0.3-0.7-0.3-0.9s0.2-0.5,0.5-0.6
		c0.3,0,0.5-0.2,0.5-0.4s0.2-0.3,0.4-0.3s0.4-0.1,0.4-0.3c0-0.2-0.4-0.4-1-0.5l-1.1-0.2c-0.5-0.1-1.4-0.1-2,0l-1,0.2
		c-0.5,0.1-1,0.3-1,0.4S3.8,27,4,27s0.4,0.2,0.4,0.3s0.3,0.3,0.7,0.4s0.7,0.3,0.7,0.6s-0.2,0.8-0.4,1.1c-0.2,0.3-0.4,0.9-0.4,1.4
		s0.1,0.9,0.3,0.9c0.2,0,0.3,0.5,0.3,1.1l0.1,3.9c0,0.6-0.1,1.2-0.3,1.5S5,38.9,5,39.3c0,0.4,0.2,0.8,0.3,0.8s0.3,0.4,0.3,1l0,1.3
		c0,0.6,0.4,1,1,1l0.4,0c0.6,0,1-0.4,1-1v-1.1c0-0.6,0.4-1,1-1l1,0c0.6,0,1,0.4,1,1l0,0.9c0,0.6,0.5,1,1,1l1.8,0c0.6,0,1-0.5,1-1
		l0-1.1c0-0.6,0.4-1,0.9-1c0.5,0,0.8,0.4,0.8,1v0.6c0,0.6,0.4,1,1,1l0.4,0c0.6,0,1-0.4,1-1l0-0.7c0-0.6,0.1-1,0.2-1s0.2-0.4,0.2-0.9
		s-0.2-1.1-0.3-1.4c-0.1-0.3-0.2-0.9-0.2-1.5L18.7,33c0-0.6,0.1-1,0.2-1s0.2-0.4,0.2-0.9s-0.1-1.1-0.2-1.2s-0.2-0.6-0.2-0.9
		s0.2-0.6,0.4-0.6s0.5-0.1,0.5-0.3c0-0.2,0.2-0.3,0.5-0.4s0.5-0.1,0.5-0.3c0-0.1-0.4-0.3-1-0.5l-1.1-0.3c-0.5-0.2-1.4-0.2-1.9,0
		l-0.6,0.2c-0.5,0.1-1,0.4-1,0.5s0.1,0.3,0.3,0.4s0.3,0.2,0.3,0.4c0,0.1,0.2,0.3,0.4,0.3c0.2,0,0.4,0.4,0.4,0.8s-0.5,0.7-1,0.7l0,0
		c-0.6,0-1-0.5-1-1.1V23c0-0.6,0.4-1,1-1.1l15-0.8c0.6,0,1,0.4,1,0.9L31,28.2c0,0.6-0.4,1-0.7,1s-0.7-0.1-0.7-0.3l0-0.4
		c0,0,0-0.3,0-0.7c0-0.4,0.1-0.7,0.4-0.7s0.5-0.2,0.5-0.4c0-0.2,0.2-0.4,0.4-0.4S31,26.2,31,26s-0.4-0.4-1-0.6l-0.8-0.2
		c-0.5-0.1-1.4-0.1-1.9,0l-1.4,0.3c-0.5,0.1-1,0.4-1,0.5s0.2,0.3,0.5,0.2c0.3,0,0.5,0.1,0.5,0.3s0.2,0.4,0.4,0.5s0.4,0.4,0.5,0.7
		c0,0.3,0,0.8-0.1,1.1c-0.1,0.3-0.2,0.9-0.2,1.5s0.1,1.1,0.2,1.2c0.1,0.1,0.1,0.7,0.1,1.3l0.1,3.7c0,0.6-0.1,1.2-0.2,1.5
		c-0.1,0.3-0.2,0.9-0.2,1.4c0,0.5,0.1,1,0.2,1c0.1,0,0.1,0.5,0.1,1l0,0.4c-0.1,0.5,0.3,1,0.9,1h1.1c0.6,0,1-0.4,1-1v-0.3
		c0-0.6,0.4-1,0.8-1s0.8,0.5,0.8,1v0.2c0,0.6,0.4,1,1,1h2.3c0.6,0,1-0.4,0.9-1l0-0.6c0-0.6,0.3-1,0.7-1s0.8,0.5,0.8,1l0,0.3
		c0,0.6,0.5,1,1,1h0.7c0.6,0,1-0.4,0.9-1l0-0.6c0-0.6,0-1,0-1c0.1,0,0.1-0.4,0.2-0.9c0-0.5-0.1-1.1-0.2-1.4c-0.1-0.3-0.3-1-0.2-1.5
		l0.1-7c0-0.6,0.2-1.1,0.4-1.2c0.2-0.1,0.4-0.3,0.4-0.5s0.1-0.4,0.3-0.4c0.2,0,0.3-0.2,0.3-0.4c0-0.2-0.4-0.5-1-0.6l-0.6-0.1
		c-0.5-0.1-1.4-0.1-1.9,0l-1.2,0.3c-0.5,0.1-0.9,0.3-0.9,0.4s0.2,0.2,0.5,0.3c0.2,0,0.4,0.2,0.4,0.4c0,0.2,0.3,0.4,0.6,0.5
		s0.5,0.3,0.5,0.6s-0.2,0.6-0.3,0.8c-0.1,0.2-0.6,0.4-1,0.4s-0.9-0.4-1.1-0.9l-0.7-3c-0.1-0.5-0.2-1.4-0.2-2l0-1.6
		c0-0.6,0.4-1,1-1.1l6.4-0.4c0.6,0,1-0.5,1-1.1l0-1.2c0-0.6-0.4-0.9-1-0.9l-4.7,0.6c-0.5,0.1-1.4-0.1-1.8-0.4l-0.4-0.2
		c-0.5-0.3-0.8-0.7-0.8-1s0.2-0.5,0.4-0.5c0.2,0,0.4-0.3,0.4-0.7c0-0.3,0.5-0.6,1-0.6c3.1-0.2,5.6-0.4,6.7-0.4c0.3,0,0.2-1,0.6-1.9
		s4-1.3,5-2c0.8-0.6-0.1-2.2-0.3-3.3c0-0.2,0.8-0.3,0.8-0.5C48.1,5.8,48.8,4.9,48.7,4.8z M10.7,37.7c-0.2,0.2-0.7,0.4-1.3,0.5
		l-0.1,0c-0.6,0-1.1-0.1-1.2-0.4c-0.1-0.2-0.2-0.9-0.3-1.4l-0.2-3.4c0-0.6,0.4-1,1-1l1.3,0c0.6,0,1,0.4,1,1v3.4h0
		C11,36.8,10.9,37.5,10.7,37.7z M15.1,32l0.3,0c0.6,0,1,0.4,1,1l0,3.2c0,0.6-0.1,1.2-0.1,1.4s-0.5,0.4-1,0.3s-0.9-0.2-1-0.4
		s-0.2-0.8-0.2-1.3V33C14.1,32.5,14.6,32,15.1,32z M19.6,19.4l-2.9,0.2c-0.6,0-1-0.1-1-0.3c0-0.2-0.3-0.5-0.6-0.7s-0.6-0.5-0.6-0.7
		s0.2-0.4,0.4-0.4s0.4-0.3,0.4-0.7c0-0.4,0.5-0.7,1-0.8c0.9-0.1,1.8-0.1,2.7-0.2c0.6,0,1.1,0.4,1.2,0.9l0.3,1.7
		C20.5,18.9,20.1,19.4,19.6,19.4z M30.4,38.1c-0.3,0-0.6-0.2-0.7-0.4c-0.1-0.2-0.1-0.8-0.1-1.3l-0.1-3.8c0-0.6,0.3-1,0.7-0.9
		s0.7,0.5,0.7,1l0,4.5C31,37.8,30.7,38.2,30.4,38.1z M30.5,17.8L30.5,17.8c-0.5,0.2-0.9,0.5-0.9,0.7c0,0.2-0.4,0.4-0.9,0.4l-3,0.2
		c-0.6,0-0.9-0.4-0.8-0.9l0.4-1.8c0.1-0.5,0.7-1,1.2-1c1.1-0.1,2.1-0.1,3.1-0.2c0.6,0,1,0.2,1.1,0.6c0,0.4,0.2,0.6,0.4,0.6
		s0.3,0.2,0.4,0.5S31,17.6,30.5,17.8z M36.1,31.7c0.5,0,0.9,0.4,0.9,0.9l0.1,3.8c0,0.6-0.1,1.2-0.2,1.4c-0.1,0.2-0.5,0.4-0.9,0.3
		s-0.6-0.5-0.6-1.1l-0.1-4.3C35.2,32.2,35.6,31.8,36.1,31.7z"/>
</g>
</svg>
