<?xml version="1.0" encoding="utf-8"?>
<!-- Generator: Adobe Illustrator 24.1.2, SVG Export Plug-In . SVG Version: 6.00 Build 0)  -->
<svg version="1.1" id="Capa_1" xmlns="http://www.w3.org/2000/svg" xmlns:xlink="http://www.w3.org/1999/xlink" x="0px" y="0px"
     width="48.2px" height="48.2px" viewBox="0 0 48.2 48.2" style="enable-background:new 0 0 48.2 48.2;" xml:space="preserve">
<style type="text/css">
	.st0{fill:#010002;}
</style>
<g>
	<g>
		<path class="st0" d="M41.1,16.2c0.9-2,1.7-4.5,2-7.6c-0.9-0.1-1.7-0.1-2.5-0.2c0,2.8-0.5,5.2-1.4,7.3
			C39.8,15.9,40.4,16.1,41.1,16.2z"/>
		<path class="st0" d="M32.5,9.2c0,0.2,0.1,0.4,0.1,0.5c0.2,1.5,0.2,3-0.1,4.5c-0.1,0.7-0.3,1.4-0.6,2.1c1.4-0.5,2.9-0.8,4.6-0.8
			c0.5,0,1,0,1.6,0.1c0.8-1.9,1.4-4.3,1.4-7.2c0-0.2,0-0.4,0-0.5c0-0.2,0-0.4,0-0.5c0-0.8-0.1-1.6-0.2-2.5c-3,0.3-5.4,1-7.4,1.9
			c0.2,0.6,0.4,1.2,0.5,1.9C32.4,8.9,32.5,9,32.5,9.2z"/>
		<path class="st0" d="M16.3,6.8c-2-0.9-4.4-1.6-7.4-1.9C8.8,5.8,8.8,6.6,8.8,7.4c2.6,0,5,0.5,7.1,1.3C15.9,8.1,16.1,7.5,16.3,6.8z"
			/>
		<path class="st0" d="M9.1,15.8c0.2,0,0.4-0.1,0.6-0.1c0.2,0,0.4-0.1,0.5-0.1c0.5-0.1,1.1-0.1,1.6-0.1c1.7,0,3.2,0.3,4.6,0.8
			c-0.2-0.7-0.4-1.3-0.6-2.1c-0.3-1.5-0.3-2.9-0.1-4.5C13.8,9,11.5,8.5,8.8,8.5c-0.1,0-0.2,0-0.3,0c-0.1,0-0.2,0-0.3,0
			c-0.2,0-0.4,0-0.5,0c-0.8,0-1.6,0.1-2.5,0.2c0.3,3.1,1,5.6,2,7.6C7.8,16.1,8.4,15.9,9.1,15.8z"/>
		<path class="st0" d="M7.1,32.1c-0.9,2-1.6,4.5-2,7.5c0.9,0.1,1.7,0.1,2.5,0.2c0-2.7,0.5-5.1,1.3-7.2C8.4,32.4,7.8,32.2,7.1,32.1z"
			/>
		<path class="st0" d="M15.7,39c0-0.2-0.1-0.4-0.1-0.5c-0.2-1.5-0.2-3,0.1-4.5c0.1-0.7,0.3-1.4,0.5-2c-1.4,0.5-2.9,0.8-4.6,0.8
			c-0.5,0-1.1,0-1.6-0.1c-0.8,1.9-1.3,4.2-1.4,7.1c0,0.2,0,0.4,0,0.5c0,0.2,0,0.4,0,0.5c0,0.8,0.1,1.6,0.2,2.5c3-0.3,5.4-1,7.4-1.9
			c-0.2-0.6-0.4-1.2-0.5-1.9C15.8,39.4,15.8,39.2,15.7,39z"/>
		<path class="st0" d="M31.9,41.4c2,0.9,4.4,1.6,7.4,1.9c0.1-0.9,0.1-1.7,0.2-2.5c-2.6,0-5-0.5-7.1-1.3
			C32.3,40.2,32.1,40.8,31.9,41.4z"/>
		<path class="st0" d="M39.2,32.5c-0.2,0-0.4,0.1-0.6,0.1c-0.2,0-0.4,0.1-0.5,0.1c-0.5,0.1-1.1,0.1-1.6,0.1c-1.7,0-3.2-0.3-4.6-0.8
			c0.2,0.6,0.4,1.3,0.5,2c0.3,1.5,0.3,2.9,0.1,4.5c1.9,0.8,4.1,1.3,6.9,1.3c0.1,0,0.2,0,0.3,0c0.1,0,0.2,0,0.2,0c0.2,0,0.4,0,0.5,0
			c0.8,0,1.6-0.1,2.5-0.2c-0.3-3-1-5.5-2-7.5C40.5,32.2,39.8,32.4,39.2,32.5z"/>
		<path class="st0" d="M29.1,7.8c0.1,0.2,0.1,0.3,0.2,0.5c0.2,0.6,0.4,1.1,0.5,1.7c0,0.2,0.1,0.4,0.1,0.6c0,0.2,0.1,0.4,0.1,0.6
			c0.1,0.5,0.1,1,0.1,1.5c0.1,1.7-0.2,3.4-0.7,4.8c0.3-0.2,0.7-0.4,1-0.5c0.8-1.9,1.3-4.1,1-6.7c0-0.2-0.1-0.4-0.1-0.6
			c0-0.2-0.1-0.4-0.1-0.6c-0.1-0.6-0.3-1.2-0.5-1.8c-0.1-0.2-0.1-0.3-0.2-0.5c-0.1-0.2-0.1-0.3-0.2-0.5c-0.8-1.9-2-4-3.8-6.3
			c-0.7,0.6-1.3,1.1-1.9,1.7c1.8,1.8,3.1,3.7,4,5.6C28.9,7.4,29,7.6,29.1,7.8z"/>
		<path class="st0" d="M18.7,17.4c0.3,0.1,0.5,0.3,0.7,0.4c0.3,0.2,0.5,0.4,0.8,0.6c0.1,0,0.1,0.1,0.2,0.1c0.7-0.5,1.5-0.8,2.3-1
			c0.1,0,0.2,0,0.3,0c0.1,0,0.2,0,0.3,0c0.1,0,0.2,0,0.3,0c0.1,0,0.2,0,0.3,0c0.1,0,0.2,0,0.3,0c0,0,0,0,0,0c0,0,0,0,0,0
			c0.1,0,0.2,0,0.3,0c0.1,0,0.2,0,0.3,0c0.1,0,0.2,0,0.3,0c0.1,0,0.2,0,0.3,0c0.1,0,0.2,0,0.3,0c0.8,0.2,1.6,0.5,2.3,1
			c0.1,0,0.1-0.1,0.2-0.1c0.8-1.8,1.3-4.1,1.1-6.5c0-0.2-0.1-0.4-0.1-0.7c0-0.2-0.1-0.4-0.1-0.6c-0.1-0.6-0.3-1.1-0.5-1.7
			c-0.1-0.2-0.1-0.4-0.2-0.5c-0.1-0.2-0.1-0.3-0.2-0.5c-0.8-1.8-2-3.6-3.9-5.5C24,2.3,23.9,2.2,23.7,2c-0.1-0.1-0.3-0.2-0.4-0.4
			c-0.6-0.5-1.2-1.1-1.9-1.7c-1.8,2.2-3,4.3-3.8,6.3c-0.1,0.2-0.1,0.3-0.2,0.5c-0.1,0.2-0.1,0.3-0.2,0.5c-0.2,0.6-0.4,1.2-0.5,1.8
			c0,0.2-0.1,0.4-0.1,0.6c0,0.2-0.1,0.4-0.1,0.6c-0.3,2.5,0.2,4.8,1,6.6C18.1,17.1,18.4,17.3,18.7,17.4z"/>
		<path class="st0" d="M19.2,40.4c-0.1-0.2-0.1-0.3-0.2-0.5c-0.2-0.6-0.4-1.1-0.5-1.7c0-0.2-0.1-0.4-0.1-0.6c0-0.2-0.1-0.4-0.1-0.6
			c-0.1-0.5-0.1-1-0.1-1.5c-0.1-1.7,0.2-3.3,0.6-4.7c-0.3,0.2-0.7,0.4-1,0.5c-0.8,1.9-1.3,4.1-1,6.6c0,0.2,0.1,0.4,0.1,0.6
			c0,0.2,0.1,0.4,0.1,0.6c0.1,0.6,0.3,1.2,0.5,1.8c0.1,0.2,0.1,0.3,0.2,0.5c0.1,0.2,0.1,0.3,0.2,0.5c0.8,1.9,2,4,3.8,6.3
			c0.7-0.6,1.3-1.1,1.9-1.7c-1.8-1.8-3.1-3.7-4-5.6C19.3,40.8,19.2,40.6,19.2,40.4z"/>
		<path class="st0" d="M29.5,30.9c-0.2-0.1-0.5-0.3-0.7-0.4c-0.3-0.2-0.5-0.4-0.8-0.5c-0.1-0.1-0.2-0.1-0.3-0.2
			c-0.7,0.4-1.4,0.8-2.2,0.9c-0.1,0-0.2,0-0.3,0c-0.1,0-0.2,0-0.3,0c-0.1,0-0.2,0-0.3,0c-0.1,0-0.2,0-0.3,0c-0.1,0-0.2,0-0.3,0
			c0,0,0,0,0,0c0,0,0,0,0,0c-0.1,0-0.2,0-0.3,0c-0.1,0-0.2,0-0.3,0c-0.1,0-0.2,0-0.3,0c-0.1,0-0.2,0-0.3,0c-0.1,0-0.2,0-0.3,0
			c-0.8-0.2-1.6-0.5-2.2-0.9c-0.1,0.1-0.2,0.1-0.3,0.2c-0.7,1.8-1.2,4-1,6.4c0,0.2,0.1,0.4,0.1,0.7c0,0.2,0.1,0.4,0.1,0.6
			c0.1,0.6,0.3,1.1,0.5,1.7c0.1,0.2,0.1,0.4,0.2,0.5c0.1,0.2,0.1,0.3,0.2,0.5c0.8,1.8,2,3.6,3.9,5.5c0.1,0.1,0.3,0.2,0.4,0.4
			c0.1,0.1,0.3,0.2,0.4,0.4c0.6,0.5,1.2,1.1,1.9,1.7c1.8-2.2,3-4.3,3.8-6.3c0.1-0.2,0.1-0.3,0.2-0.5c0.1-0.2,0.1-0.4,0.2-0.5
			c0.2-0.6,0.4-1.2,0.5-1.8c0-0.2,0.1-0.4,0.1-0.6c0-0.2,0.1-0.4,0.1-0.6c0.3-2.5-0.2-4.7-1-6.5C30.2,31.3,29.9,31.1,29.5,30.9z"/>
		<path class="st0" d="M7.6,19.2C7.8,19.2,8,19.1,8.1,19c0.2-0.1,0.4-0.1,0.5-0.2c0.6-0.2,1.2-0.4,1.7-0.5c0.2,0,0.4-0.1,0.6-0.1
			c0.2,0,0.4-0.1,0.6-0.1c0.5-0.1,1-0.1,1.5-0.1h0c1.6,0,3,0.3,4.3,0.7c0.3,0.1,0.5,0.2,0.8,0.3c0.3,0.1,0.6,0.2,0.9,0.4
			c0.1,0,0.1,0.1,0.2,0.1c0,0,0.1-0.1,0.1-0.1c0,0,0.1,0,0.1-0.1c-0.1,0-0.1-0.1-0.2-0.1c-0.2-0.2-0.5-0.3-0.8-0.5
			c-0.3-0.2-0.6-0.4-0.9-0.5c-0.3-0.1-0.5-0.3-0.8-0.4c-1.5-0.7-3.2-1.1-5.2-1.1c-0.3,0-0.7,0-1.1,0.1c-0.2,0-0.4,0-0.6,0.1
			c-0.2,0-0.4,0.1-0.6,0.1c-0.6,0.1-1.2,0.2-1.8,0.4c-0.2,0.1-0.4,0.1-0.5,0.2c-0.2,0.1-0.4,0.1-0.5,0.2c-2,0.8-4.2,2-6.6,3.9
			c0.5,0.7,1.1,1.3,1.6,1.9C3.5,21.5,5.5,20.1,7.6,19.2z"/>
		<path class="st0" d="M7.1,30.9c0.2,0.1,0.4,0.1,0.5,0.2c0.6,0.2,1.2,0.3,1.8,0.4c0.2,0,0.4,0.1,0.6,0.1c0.2,0,0.4,0.1,0.6,0.1
			c0.4,0,0.7,0.1,1.1,0.1c1.9,0,3.6-0.4,5.1-1.1c0.3-0.1,0.5-0.3,0.8-0.4c0.3-0.2,0.6-0.3,0.9-0.5c0.3-0.2,0.5-0.3,0.8-0.5
			c0.1-0.1,0.2-0.1,0.3-0.2c0,0-0.1-0.1-0.1-0.1c0,0-0.1-0.1-0.1-0.1c0,0-0.1-0.1-0.1-0.1c-0.1-0.1-0.2-0.2-0.3-0.3
			c0,0-0.1-0.1-0.1-0.1c-0.1-0.1-0.2-0.2-0.2-0.3c0,0-0.1-0.1-0.1-0.1c-0.4-0.7-0.7-1.4-0.9-2.2c0-0.1-0.1-0.3-0.1-0.4
			c0-0.1,0-0.1,0-0.2c0-0.1,0-0.3,0-0.4c0-0.1,0-0.1,0-0.2c0-0.1,0-0.2,0-0.3c0,0,0,0,0-0.1c0,0,0,0,0,0c0-0.1,0-0.2,0-0.3
			c0,0,0-0.1,0-0.1c0-0.1,0-0.3,0-0.4c0,0,0-0.1,0-0.1c0-0.1,0-0.3,0.1-0.4c0.2-0.8,0.5-1.5,0.9-2.2c0,0,0-0.1,0.1-0.1
			c-0.1,0-0.1-0.1-0.2-0.1c-1.5-0.6-3.3-1.1-5.3-1.1c-0.2,0-0.4,0-0.7,0c-0.2,0-0.4,0-0.7,0.1c-0.2,0-0.4,0.1-0.6,0.1
			c-0.6,0.1-1.2,0.2-1.8,0.4c-0.2,0.1-0.4,0.1-0.6,0.2c-0.2,0.1-0.4,0.1-0.6,0.2c-1.9,0.8-3.9,2-5.9,4c-0.1,0.1-0.2,0.2-0.4,0.4
			c-0.1,0.1-0.3,0.3-0.4,0.4c-0.5,0.6-1.1,1.2-1.6,1.9c2.4,1.9,4.5,3.1,6.6,3.9C6.8,30.8,6.9,30.8,7.1,30.9z"/>
		<path class="st0" d="M29.7,29.7c0.3,0.2,0.6,0.4,0.9,0.5c0.3,0.1,0.5,0.3,0.8,0.4c1.5,0.7,3.2,1.1,5.1,1.1c0.4,0,0.7,0,1.1-0.1
			c0.2,0,0.4,0,0.6-0.1c0.2,0,0.4-0.1,0.6-0.1c0.6-0.1,1.2-0.2,1.8-0.4c0.2-0.1,0.4-0.1,0.5-0.2c0.2-0.1,0.4-0.1,0.5-0.2
			c2-0.8,4.2-2,6.6-3.9c-0.5-0.7-1.1-1.3-1.6-1.9c-1.9,1.9-3.9,3.2-5.9,4.1c-0.2,0.1-0.4,0.1-0.5,0.2c-0.2,0.1-0.4,0.1-0.5,0.2
			c-0.6,0.2-1.2,0.4-1.7,0.5c-0.2,0-0.4,0.1-0.6,0.1c-0.2,0-0.4,0.1-0.6,0.1c-0.5,0.1-1,0.1-1.6,0.1c-1.5,0-3-0.3-4.3-0.7
			c-0.3-0.1-0.5-0.2-0.8-0.3c-0.3-0.1-0.6-0.2-0.9-0.3c-0.1,0-0.2-0.1-0.3-0.1c0,0-0.1,0.1-0.1,0.1c0,0-0.1,0.1-0.1,0.1
			c0.1,0.1,0.2,0.1,0.2,0.2C29.1,29.3,29.4,29.5,29.7,29.7z"/>
		<path class="st0" d="M41.1,17.4c-0.2-0.1-0.4-0.1-0.5-0.2c-0.6-0.2-1.2-0.3-1.8-0.4c-0.2,0-0.4-0.1-0.6-0.1c-0.2,0-0.4,0-0.6-0.1
			c-0.4,0-0.7-0.1-1-0.1c-1.9,0-3.7,0.4-5.2,1.1c-0.3,0.1-0.6,0.3-0.8,0.4c-0.3,0.2-0.6,0.4-0.9,0.5c-0.3,0.2-0.5,0.3-0.7,0.5
			c-0.1,0-0.1,0.1-0.2,0.1c0,0,0.1,0,0.1,0.1c0,0,0.1,0.1,0.1,0.1c0,0,0,0.1,0.1,0.1c0.1,0.1,0.2,0.2,0.3,0.3c0,0,0,0.1,0.1,0.1
			c0.1,0.1,0.2,0.2,0.3,0.4c0,0,0,0.1,0.1,0.1c0.4,0.7,0.7,1.4,0.9,2.2c0,0.1,0.1,0.3,0.1,0.4c0,0.1,0,0.1,0,0.2c0,0.1,0,0.3,0,0.4
			c0,0.1,0,0.1,0,0.2c0,0.1,0,0.2,0,0.3c0,0,0,0,0,0.1c0,0,0,0,0,0c0,0.1,0,0.2,0,0.3c0,0,0,0.1,0,0.1c0,0.1,0,0.3,0,0.4
			c0,0,0,0.1,0,0.1c0,0.1,0,0.3-0.1,0.4c-0.2,0.8-0.5,1.5-0.9,2.2c0,0.1-0.1,0.1-0.1,0.1c0.1,0,0.2,0.1,0.3,0.1
			c1.5,0.6,3.3,1.1,5.2,1.1c0.2,0,0.5,0,0.7,0c0.2,0,0.4,0,0.7-0.1c0.2,0,0.4-0.1,0.6-0.1c0.6-0.1,1.2-0.2,1.8-0.4
			c0.2-0.1,0.4-0.1,0.6-0.2c0.2-0.1,0.4-0.1,0.6-0.2c1.9-0.8,3.8-2,5.9-4c0.1-0.1,0.2-0.2,0.4-0.4c0.1-0.1,0.3-0.3,0.4-0.4
			c0.5-0.6,1.1-1.2,1.6-1.9c-2.4-1.9-4.6-3.1-6.6-3.9C41.4,17.5,41.3,17.5,41.1,17.4z"/>
		<path class="st0" d="M18.6,24.2c0,0.2,0,0.3,0,0.5c0,0,0,0.1,0,0.1c0,0.1,0,0.3,0,0.4c0,0,0,0.1,0,0.1c0.1,0.5,0.3,1,0.6,1.5
			c0.1,0.2,0.2,0.3,0.3,0.5c0,0,0,0.1,0.1,0.1c0.1,0.1,0.2,0.2,0.3,0.3c0,0,0,0,0,0.1c0,0,0,0,0,0c0.1,0.1,0.2,0.2,0.4,0.4
			c0,0,0,0,0,0c0,0,0,0,0.1,0c0.1,0.1,0.2,0.2,0.3,0.3c0,0,0.1,0.1,0.1,0.1c0.2,0.1,0.3,0.2,0.5,0.3c0.4,0.2,0.8,0.4,1.2,0.5
			c0.2,0.1,0.4,0.1,0.5,0.1c0.1,0,0.1,0,0.2,0c0.1,0,0.3,0,0.4,0c0,0,0,0,0,0c0.1,0,0.1,0,0.2,0c0.1,0,0.1,0,0.2,0
			c0.1,0,0.1,0,0.2,0c0.1,0,0.1,0,0.2,0c0,0,0,0,0,0c0.1,0,0.3,0,0.4,0c0.1,0,0.1,0,0.2,0c0.2,0,0.4-0.1,0.5-0.1
			c0.4-0.1,0.8-0.3,1.2-0.5c0.2-0.1,0.3-0.2,0.5-0.3c0,0,0.1,0,0.1-0.1c0.1-0.1,0.2-0.2,0.4-0.3c0,0,0,0,0,0c0,0,0,0,0,0
			c0.1-0.1,0.3-0.2,0.4-0.4c0,0,0,0,0,0c0,0,0,0,0-0.1c0.1-0.1,0.2-0.2,0.3-0.3c0,0,0.1-0.1,0.1-0.1c0.1-0.2,0.2-0.3,0.3-0.5
			c0.3-0.5,0.5-1,0.6-1.5c0,0,0-0.1,0-0.1c0-0.2,0-0.3,0-0.5c0,0,0-0.1,0-0.1c0-0.2,0-0.3,0-0.5c0,0,0-0.1,0-0.1c0,0,0,0,0,0
			c0,0,0,0,0,0c0,0,0-0.1,0-0.1c0-0.2,0-0.3,0-0.5c0,0,0-0.1,0-0.1c0-0.1,0-0.3,0-0.4c0,0,0-0.1,0-0.1c-0.1-0.5-0.3-1-0.6-1.5
			c-0.1-0.2-0.2-0.3-0.3-0.5c0,0,0,0,0,0c-0.1-0.1-0.2-0.3-0.3-0.4c0,0,0,0,0,0c0,0,0,0,0,0c-0.1-0.1-0.2-0.3-0.4-0.4c0,0,0,0,0,0
			c0,0,0,0,0,0c-0.1-0.1-0.3-0.2-0.4-0.3c0,0,0,0,0,0c-0.2-0.1-0.3-0.2-0.5-0.3c-0.4-0.2-0.8-0.4-1.3-0.5c-0.2-0.1-0.4-0.1-0.5-0.1
			c-0.1,0-0.1,0-0.2,0c-0.1,0-0.3,0-0.4,0c0,0,0,0,0,0c-0.1,0-0.1,0-0.2,0c-0.1,0-0.1,0-0.2,0c-0.1,0-0.1,0-0.2,0
			c-0.1,0-0.1,0-0.2,0c0,0,0,0,0,0c-0.1,0-0.3,0-0.4,0c-0.1,0-0.1,0-0.2,0c-0.2,0-0.4,0.1-0.5,0.1c-0.4,0.1-0.9,0.3-1.3,0.5
			c-0.2,0.1-0.3,0.2-0.5,0.3c0,0,0,0,0,0c-0.1,0.1-0.3,0.2-0.4,0.3c0,0,0,0,0,0c0,0,0,0,0,0c-0.1,0.1-0.3,0.3-0.4,0.4c0,0,0,0,0,0
			c0,0,0,0,0,0c-0.1,0.1-0.2,0.3-0.3,0.4c0,0,0,0,0,0c-0.1,0.2-0.2,0.3-0.3,0.5c-0.3,0.5-0.5,1-0.6,1.5c0,0,0,0.1,0,0.1
			c0,0.1,0,0.3,0,0.5c0,0,0,0.1,0,0.1c0,0.2,0,0.3,0,0.5c0,0,0,0.1,0,0.1C18.6,24.1,18.6,24.1,18.6,24.2
			C18.6,24.1,18.6,24.1,18.6,24.2C18.6,24.2,18.6,24.2,18.6,24.2z"/>
	</g>
</g>
</svg>
