<?xml version="1.0" encoding="utf-8"?>
<!-- Generator: Adobe Illustrator 24.1.2, SVG Export Plug-In . SVG Version: 6.00 Build 0)  -->
<svg version="1.1" id="Layer_1" xmlns="http://www.w3.org/2000/svg" xmlns:xlink="http://www.w3.org/1999/xlink" x="0px" y="0px"
	 width="512px" height="512px" viewBox="0 0 512 512" style="enable-background:new 0 0 512 512;" xml:space="preserve">
<style type="text/css">
	.st0{fill:#EBC7A4;}
	.st1{fill:#FFE8D1;}
	.st2{fill:#362928;}
	.st3{fill:#2E2322;}
	.st4{fill:#2B2121;}
</style>
<path class="st0" d="M77,321.6c0,0,0.3,56.5,42.7,55.8h14.1l-5.2-66.3C128.6,311.1,79.3,287.3,77,321.6z"/>
<g>
	<path class="st1" d="M435,321.6c0,0-0.3,56.5-42.7,55.8h-14.1l5.2-66.3C383.4,311.1,432.7,287.3,435,321.6z"/>
	<path class="st1" d="M395.5,345.6c-4,32.7-3.1,66.5-17.9,92.5c-15.4,27.2-48.2,45.8-121.6,45.8c-143.8,0-131.4-71.5-139.5-138.3
		c-8.7-70.9-4.9-120.1,19.8-150.5c21.8-26.9,59.8-39.3,119.7-39.3C383.9,155.8,411.9,211.8,395.5,345.6z"/>
</g>
<g>
	<path class="st0" d="M134.6,345.6c-8.7-70.9-4.9-120.1,19.8-150.5c20.7-25.5,55.9-37.9,110.7-39.2c-2.9-0.1-6-0.1-9-0.1
		c-60,0-98,12.4-119.7,39.3c-24.7,30.4-28.5,79.6-19.8,150.5c8.1,66.9-4.3,138.3,139.5,138.3c3.1,0,6.1,0,9-0.1
		C130.8,480.8,142.5,411,134.6,345.6z"/>
	<path class="st0" d="M227.2,321.6c0,0,16.3,1.2,16.7,30s0,38.3,0,38.3s-16.3-13.4-16.7-29.7C226.7,343.8,227.2,321.6,227.2,321.6z"
		/>
</g>
<path class="st2" d="M315.1,72.4c0,4.5-0.9,9-2.7,13.2c-7.5,18.1-29.9,31.2-56.4,31.2s-49-13.1-56.4-31.2c-1.7-4.2-2.7-8.5-2.7-13.2
	c0-24.5,26.4-44.3,59.1-44.3S315.1,48,315.1,72.4z"/>
<path class="st3" d="M216.8,85.6c-1.7-4.2-2.7-8.5-2.7-13.2c0-22.3,21.9-40.7,50.5-43.9c-2.8-0.3-5.7-0.4-8.6-0.4
	c-32.7,0-59.1,19.9-59.1,44.3c0,4.5,0.9,9,2.7,13.2c7.5,18.1,29.9,31.2,56.4,31.2c2.9,0,5.8-0.2,8.6-0.4
	C241.9,113.8,223.4,101.6,216.8,85.6z"/>
<path class="st2" d="M395.8,321.6h-4.1c-2,0-3.7-1.6-3.8-3.6c-1.3-23.4-13.3-151.1-112.4-106.3c-5,2.2-10.4,3.5-15.8,3.6
	c-5.2,0.1-10.3-0.8-15.2-2.8C136.5,169.1,125.1,294.8,124,318c-0.1,2-1.8,3.6-3.8,3.6h-8c3.2-61.1-70.4-144.9-27.5-169.5
	c8.5-4.9,21.6-7.4,40.8-6.9c23.2-45.4,75.2-68.5,130.4-68.5l0,0c55.2,0,107.3,23.1,130.5,68.5c113.9-2.6,13.2,99.6,13.2,172.6
	C399.7,319.9,398,321.6,395.8,321.6z"/>
<g>
	<path class="st3" d="M376.4,152.1c0,0-53.1,8.1-75.8,33.8c0,0,29.7-7.7,51.8-14.9C374.5,163.9,376.4,152.1,376.4,152.1z"/>
	<path class="st3" d="M135.9,152.1c0,0,53.1,8.1,75.8,33.8c0,0-29.7-7.7-51.8-14.9C137.9,163.9,135.9,152.1,135.9,152.1z"/>
	<path class="st3" d="M102,152.1c8.5-4.9,21.6-7.4,40.8-6.9c22-43,69.9-66.1,121.9-68.4c-2.8-0.1-5.8-0.2-8.6-0.2l0,0
		c-55.2,0-107.2,23.1-130.4,68.5c-19.1-0.4-32.3,2.1-40.8,6.9c-42.9,24.6,30.6,108.3,27.5,169.5h8c2,0,3.7-1.6,3.8-3.6
		c0.3-4.6,0.9-13.4,2.6-24C113.8,237.5,65.3,173.1,102,152.1z"/>
	<path class="st3" d="M322.2,202.9c56.5,8,64.6,96.1,65.7,115.2c0.1,2,1.8,3.6,3.8,3.6h4.1c2.1,0,3.8-1.7,3.8-3.8
		c0-7.7,1.1-15.6,2.9-23.7C396.6,256.8,378.4,195.6,322.2,202.9z"/>
</g>
<g>
	<path class="st4" d="M202.4,318.6c-4.6,0-10-0.4-15.6-1.3c-15.7-2.8-26.5-13.1-27-13.5c-2.8-2.8-2.9-7.3-0.2-10.1
		c2.8-2.8,7.3-2.9,10.1-0.2c0.2,0.2,8.3,7.7,19.4,9.7c13.9,2.5,26,0.1,26.1,0c3.9-0.8,7.7,1.7,8.5,5.6s-1.7,7.7-5.6,8.5
		C218,317.3,211.5,318.6,202.4,318.6z"/>
	<path class="st4" d="M309.6,318.6c-9.1,0-15.5-1.2-15.9-1.3c-3.9-0.8-6.4-4.6-5.6-8.5s4.6-6.4,8.5-5.6c0.1,0,12.4,2.4,26.1,0
		c11.2-2,19.3-9.6,19.4-9.7c2.8-2.8,7.4-2.7,10.1,0.2s2.7,7.4-0.2,10.1c-0.4,0.4-11.2,10.8-27,13.5
		C319.5,318.3,314.2,318.6,309.6,318.6z"/>
</g>
</svg>
