<?xml version="1.0" encoding="utf-8"?>
<!-- Generator: Adobe Illustrator 24.1.2, SVG Export Plug-In . SVG Version: 6.00 Build 0)  -->
<svg version="1.1" id="Layer_1" xmlns="http://www.w3.org/2000/svg" xmlns:xlink="http://www.w3.org/1999/xlink" x="0px" y="0px"
	 width="512px" height="512px" viewBox="0 0 512 512" style="enable-background:new 0 0 512 512;" xml:space="preserve">
<style type="text/css">
	.st0{fill:#009966;}
	.st1{fill:#00CC99;}
	.st2{fill:#660050;}
	.st3{fill:#F7EDE3;}
</style>
<path class="st0" d="M371.8,195.5c-13.7,8.6-27.2,11.1-38.7,8.7c-11.3-2.4-20.9-9.5-26.5-19.6c-5.5-9.5-6.6-20.9-3-31.2
	c2.4-6.1,6.4-11.4,11.7-15.2c-15.5-4.1-35-6.2-58.8-6.2c-24,0-43.4,2.1-59,6.2c5.3,3.9,9.4,9.1,11.8,15.2
	c3.8,10.4,2.3,21.9-2.9,31.2c-5.6,10-15.3,17.2-26.6,19.6c-11.4,2.4-24.9-0.1-38.8-8.7c-2.4,11.2-3.5,24.3-3.5,39.5
	c0,47.2,6.1,69.5,12.5,86.9c5.1,14.6,11.1,26.9,12.9,45.6l0.6,9v2.5c0,5.9,1.9,12.6,5,19.7l24.6,37.5l22.9,29.3
	c5,7.7,22.4,14.4,40.5,14.4s35.5-6.6,40.5-14.1c6.1-9.1,14.5-19.1,22.8-29.6l24.7-37.5c3.1-7.1,5-13.8,5-19.7v-2.5l0.6-9
	c1.7-18.7,7.7-31,12.9-45.6c6.3-17.4,12.5-39.7,12.5-86.9C375.5,219.8,374.3,206.7,371.8,195.5z"/>
<g id="Calque_2_1_">
	<path class="st1" d="M256.5,132c-24,0-43.4,2.1-59,6.2c5.3,3.9,9.4,9.1,11.8,15.2c3.8,10.4,2.3,21.9-2.9,31.2
		c-5.6,10-15.3,17.2-26.6,19.6c-11.4,2.4-24.9-0.1-38.8-8.7c-2.4,11.2-3.5,24.3-3.5,39.5c0,47.2,6.1,69.5,12.5,86.9
		c5.1,14.6,11.1,26.9,12.9,45.6l45.2,7.9c-2.1-2-4.1-4-6.1-6l-2.5-2.7V363c-0.1-5.3,1.5-10.5,4.5-14.8c3-3.6,7.1-6.3,11.6-7.7
		c5.3-1.8,10.5-2.2,15.9-2.4v-16.3c-1.7,1.9-3.6,3.6-5.6,5.2c-4.8,3.8-10.4,7-17.4,7c-19.5,0-31.5-12.9-36.4-24.3
		c-2.4-6.2-4-12.7-4.6-19.4c-3.7-1.7-7.5-3.4-11-5.2l8-16.2c15.5,7.8,34.9,15.4,51,17.2c8,0.8,15.1,0.3,20.5-1.8s9.4-5.2,12.4-11.3
		l8.1-16.1l8.1,16.1c3,6.1,6.9,9.3,12.2,11.3c5.5,2.1,12.7,2.6,20.7,1.8c16.1-1.8,35.5-9.4,51-17.2l8,16.2
		c-3.5,1.8-7.4,3.5-11.2,5.2c-0.4,6.7-1.9,13.2-4.5,19.4c-5,11.4-16.8,24.3-36.3,24.3c-7,0-12.7-3.2-17.4-7c-2-1.6-3.9-3.3-5.6-5.2
		v16.3c5.3,0.2,10.6,0.6,15.8,2.4c4.5,1.3,8.5,4,11.5,7.7c3.2,4.3,4.8,9.5,4.7,14.8v3.7l-2.7,2.7l-6,6l45.3-7.9
		c1.7-18.7,7.7-31,12.9-45.6c6.3-17.4,12.5-39.7,12.5-86.9c0-15.2-1.2-28.3-3.7-39.5c-13.7,8.6-27.2,11.1-38.7,8.7
		c-11.3-2.4-20.9-9.5-26.5-19.6c-5.5-9.5-6.6-20.9-3-31.2c2.4-6.1,6.4-11.4,11.7-15.2C299.8,134.1,280.3,132,256.5,132L256.5,132z
		 M231.4,153.7l17.9,2.6c-4.6,30.1-16.6,52.9-34.4,66.5c-18,13.5-41,17.2-64.9,10.9l4.7-17.4c19.5,5.1,36.1,2.2,49.2-7.8
		C217.3,198.4,227.4,180.5,231.4,153.7z M281.3,153.7c4,26.8,14.3,44.7,27.5,54.8c13.2,10.1,29.8,12.9,49.3,7.8l4.7,17.4
		c-23.8,6.3-47,2.6-64.8-10.9s-29.9-36.4-34.4-66.5L281.3,153.7z M344.5,398.7c3.1-7.1,5-13.8,5-19.7v-2.5l-9.2,12.5l-29.7,40
		l-22.3,30l-5.7-1.2c0,0-17-3.3-26.1-3.3s-26.2,3.3-26.2,3.3l-5.7,1.2l-22.2-30l-29.8-40l-3.3-4.6l-5.8-7.9v2.5
		c0,5.9,1.9,12.6,5,19.7l24.6,37.5c8.4,10.4,16.8,20.3,22.8,29.1l0.1,0.1v0.1c5,7.7,22.4,14.4,40.5,14.4c18.1,0,35.5-6.6,40.5-14.1
		c6.1-9.1,14.5-19.1,22.8-29.6L344.5,398.7z"/>
</g>
<g id="Calque_1-2">
	<path class="st2" d="M194.4,300.1c0.3,8.3,3.8,14.9,8,14.9c3.5,0,6.6-4.9,7.6-11.5C204.8,302.7,199.6,301.6,194.4,300.1z"/>
	<path class="st2" d="M318.5,300.1c-5.2,1.5-10.4,2.6-15.7,3.4c1,6.6,4,11.5,7.7,11.5C314.5,315,318,308.4,318.5,300.1z"/>
	<path class="st3" d="M483.5,32.9c-18.8,26.8-35,48.4-53.5,65.9c-24.3,23.1-52.8,38.7-94.5,49.3c-9.3,2.4-13.3,6.8-15,11.6
		c-1.8,5.4-1.2,11.2,1.7,16.1c3,5.5,8.3,9.5,14.5,10.8c6.8,1.4,15.5,0.2,26.7-7.1c35.3-23.3,66.8-48.4,88.8-77.3
		C468,81.4,479,58.8,483.5,32.9L483.5,32.9z"/>
	<path class="st3" d="M29.4,33c4.5,25.8,15.4,48.5,31.2,69.2c22,28.9,53.3,54,88.8,77.3c11,7.3,19.9,8.5,26.5,7.1
		c6.2-1.3,11.6-5.2,14.6-10.8c2.8-4.9,3.5-10.7,1.8-16.1c-1.9-4.8-5.8-9.2-15.1-11.6c-41.7-10.6-70.2-26.2-94.4-49.3
		C64.3,81.3,48.1,59.8,29.4,33z"/>
	<path class="st3" d="M314,393c-3.7,0.1-7.2,1.6-9.8,4.1c8.7,10.6,22,22.7,37.8,32.5c3,1.9,6.2,3.5,9.2,5.2c0-0.1-0.2-0.3-0.5-0.4
		c-12.5-11.5-23.2-24.7-27.7-40c-2.6-0.8-5.3-1.3-8-1.4L314,393z"/>
	<path class="st0" d="M89.3,213.1c-0.1,12.3-0.3,23.9,0.8,33.6c1.5,12.5,4.8,22.1,12.6,29.9c6.1,6.2,9,14.2,11.7,23
		s4.7,18.5,6.7,27.4s4,17.2,6.1,22.4c0.5,1.6,1.3,3.1,2.3,4.4c4.1-0.4,8-1.9,11.3-4.5c-2.1-6.6-4.9-13-7.9-21.2
		c-6.6-18.1-13.2-43.1-13.6-89.6c-3.2-3.8-6.3-7.6-9.4-11C103.3,220.5,97.3,215.3,89.3,213.1L89.3,213.1z"/>
	<path class="st0" d="M423.5,213.1c-8.1,2.2-14.1,7.4-20.8,14.4c-3,3.4-6.2,7.2-9.3,11c-0.4,46.5-7,71.5-13.5,89.6
		c-3,8.2-5.9,14.6-7.9,21.2c3.2,2.5,7.1,4.1,11.2,4.5c1-1.4,1.7-2.8,2.3-4.4c2-5.2,4-13.4,6-22.4s4-18.5,6.7-27.4s5.7-16.8,11.8-23
		c7.9-7.8,11.2-17.4,12.7-29.9C423.8,237,423.5,225.4,423.5,213.1L423.5,213.1z"/>
	<path class="st3" d="M230.8,397.6l-3,4.3c-2.4,3.3-9.6,8.5-8,10.1c11.1-4.7,58.9-2.6,73.2,0c1.3-1.3-5.8-6.8-8-10.1l-3-4.3
		l-6.3,1.1c-6,3.2-12.3,5.3-19.3,5.3c-6.8-0.1-13.5-1.9-19.5-5.3L230.8,397.6z"/>
	<path class="st3" d="M225.4,430c-0.5,0.6,6.9,9.1,6.9,9.1c7.9-1.6,16-2.4,24.1-2.6c8.1,0.2,16.2,1,24.1,2.6c0,0,7.4-8.2,6.7-9.1
		C280,423.8,231.1,423.4,225.4,430z"/>
	<path class="st1" d="M256.5,291.9c-2.1,2.1-4.5,4.1-7,5.7V356h-9c-8,0-15.5,0.3-19.2,1.5c-1.8,0.7-2.7,1.3-2.9,1.8
		c-0.2,0.1-0.3,0.3-0.4,0.5c6.9,6.8,13.6,13.3,19.9,18c7.1,5.4,13.6,8.2,18.6,8.2s11.3-2.8,18.6-8.2c6.2-4.7,13-11.2,19.7-18
		c0-0.2-0.2-0.4-0.2-0.5c-0.3-0.5-1.1-1.1-3-1.8c-3.8-1.2-11.1-1.5-19.1-1.5h-9v-58.4C260.8,296,258.5,294.1,256.5,291.9z"/>
	<path class="st3" d="M197.8,393c-2.7,0.1-5.3,0.6-7.9,1.4c-4.5,15.3-15.4,28.5-27.9,40c-0.1,0.1-0.4,0.3-0.5,0.4
		c3.1-1.7,6.4-3.3,9.4-5.2c15.6-9.8,29.1-21.9,37.7-32.5c-2.6-2.5-6.1-4-9.7-4.1L197.8,393z"/>
</g>
</svg>
