<?xml version="1.0" encoding="utf-8"?>
<!-- Generator: Adobe Illustrator 24.1.2, SVG Export Plug-In . SVG Version: 6.00 Build 0)  -->
<svg version="1.1" id="Capa_1" xmlns="http://www.w3.org/2000/svg" xmlns:xlink="http://www.w3.org/1999/xlink" x="0px" y="0px"
     width="43.4px" height="43.4px" viewBox="0 0 43.4 43.4" style="enable-background:new 0 0 43.4 43.4;" xml:space="preserve">
<style type="text/css">
	.st0{fill:#FFFFFF;}
</style>
<path class="st0" d="M3,28.6c0,0-0.3-0.7-0.7-1.7c-0.2-0.6-0.4-1.2-0.5-1.7c-1-3.8-0.9-7.6,0.3-11.2C4,8.2,7.7,4.4,13,2.7
	c1.5-0.5,3-0.8,4.6-0.5C21,2.7,23.7,5.9,24,9.7c0.3,4-1.8,7.5-5.2,8.6c-4,1.2-8-1.3-9.3-5.6c0-0.1,0-0.1,0-0.2c0-0.1-1.7,0.5-3.3,2
	c-1.2,1.2-2.2,2.6-2.9,4.4s-1,3.6-0.9,5.4C2.4,26.7,3,28.6,3,28.6z"/>
<path class="st0" d="M24,2c0,0,0.8,0.1,1.8,0.3c0.6,0.1,1.2,0.2,1.8,0.4c3.7,1,7,3,9.6,5.8c4.1,4.5,5.6,9.5,4.4,15
	c-0.3,1.5-0.8,3-1.8,4.3c-2.2,2.7-6.3,3.5-9.8,1.8c-3.6-1.7-5.6-5.3-4.9-8.7c0.9-4,5.1-6.3,9.5-5.3c0.1,0,0.1,0,0.2,0.1
	s0.4-1.7-0.1-3.9c-0.4-1.7-1.2-3.2-2.4-4.7c-1.2-1.5-2.6-2.7-4.2-3.5C26,2.4,24,2,24,2z"/>
<path class="st0" d="M36.3,34.6c0,0-0.5,0.6-1.3,1.4c-0.4,0.5-0.9,0.9-1.3,1.2c-3,2.5-6.4,4.1-10.2,4.6c-6,0.8-11-0.8-14.9-4.8
	c-1.1-1.1-2.1-2.3-2.5-3.9c-1-3.3,0.7-7.2,4-9.1c3.5-2,7.5-1.6,10,0.9c2.8,3,2.4,7.8-1,10.8c-0.1,0-0.1,0-0.1,0.1
	c-0.1,0,1.2,1.3,3.2,2.1c1.6,0.6,3.3,0.9,5.3,0.7c1.9-0.2,3.7-0.7,5.3-1.5C34.8,36,36.3,34.6,36.3,34.6z"/>
</svg>
