<?xml version="1.0" encoding="utf-8"?>
<!-- Generator: Adobe Illustrator 24.1.2, SVG Export Plug-In . SVG Version: 6.00 Build 0)  -->
<svg version="1.1" id="Calque_1" xmlns="http://www.w3.org/2000/svg" xmlns:xlink="http://www.w3.org/1999/xlink" x="0px" y="0px"
	 width="512px" height="512px" viewBox="0 0 512 512" style="enable-background:new 0 0 512 512;" xml:space="preserve">
<path d="M115.6,20c-23.7,3.2-45.2,30.9-45.2,66.8c0,19.7,6.9,37.4,17,49.4l11.9,14.4l-18.4,3.4c-13.1,2.5-22.5,9.4-30.7,20.5
	c-8.2,11.3-14.4,26.9-18.8,44.9c-8.1,32.6-9.8,72.5-10.1,107.7h43.5l11.9,159.6c30.2,6.9,62.4,6.6,91.6,0l10.6-159.6H220
	c0-35.7-0.5-76.1-7.7-109.1c-4-18-9.9-33.7-18.2-44.8c-8.3-11.1-18.3-17.9-33-20.1l-18.8-3l11.9-14.8c9.7-12.1,16-29.4,16-48.6
	c0-38.3-24-66.7-50-66.7C120.3,20.1,115.6,20,115.6,20z"/>
<g transform="translate(0,0)">
	<path d="M467.9,266.6c-5-4.2-11.8-2-20.5,5.5c-36.1,31-96.1,84.9-133.9,127.5l10,10C362.5,368.3,419.9,312.2,467.9,266.6
		L467.9,266.6z M307.5,405.7l-8.1,8.1l10.6,10.6c2.5-2.8,5.1-5.6,7.8-8.4L307.5,405.7z M280.6,405.7l-6,6l37.5,37.5l6-6L280.6,405.7
		z M281.9,431.4L253.3,460c0.2,5.4,5.1,10.6,10.7,10.7l28.7-28.7l-3.9-3.9c1.3,2,1.3,4.1,0.2,5.3c-1.5,1.5-4.5,0.8-6.8-1.4
		c2.3,2.3,2.9,5.3,1.4,6.8c-1.5,1.5-4.5,0.8-6.8-1.4c2.3,2.3,2.9,5.3,1.4,6.8c-1.5,1.5-4.5,0.8-6.8-1.4c2.3,2.3,2.9,5.3,1.4,6.8
		c-1.5,1.5-4.5,0.8-6.8-1.4c2.3,2.3,2.9,5.3,1.4,6.8c-1.5,1.5-4.5,0.8-6.8-1.4c-2.3-2.3-2.9-5.3-1.4-6.8c1.5-1.5,4.5-0.8,6.8,1.4
		c-2.3-2.3-2.9-5.3-1.4-6.8c1.5-1.5,4.5-0.8,6.8,1.4c-2.3-2.3-2.9-5.3-1.4-6.8c1.5-1.5,4.5-0.8,6.8,1.4c-2.3-2.3-2.9-5.3-1.4-6.8
		c1.5-1.5,4.5-0.8,6.8,1.4c-2.3-2.3-2.9-5.3-1.4-6.8c1.1-1.1,3.2-1,5.3,0.2L281.9,431.4z"/>
</g>
</svg>
