<?xml version="1.0" encoding="utf-8"?>
<!-- Generator: Adobe Illustrator 24.1.2, SVG Export Plug-In . SVG Version: 6.00 Build 0)  -->
<svg version="1.1" id="Calque_1" xmlns="http://www.w3.org/2000/svg" xmlns:xlink="http://www.w3.org/1999/xlink" x="0px" y="0px"
	 width="512px" height="512px" viewBox="0 0 512 512" style="enable-background:new 0 0 512 512;" xml:space="preserve">
<g>
	<path d="M284.4,473.6c0-2.8,0-4.6,0-6.4c0-67.8,0.1-135.7-0.1-203.5c0-4.9,1.3-7.3,6.2-8.9c23.3-7.5,46.4-15.5,69.7-23
		c4.9-1.6,6.6-3.9,6.3-8.9c-0.4-5.5-0.3-11,0-16.5c0.2-4.2-1.2-6.4-5.7-5.9c-0.7,0.1-1.3,0-2,0c-68.5,0-137,0-205.5,0
		c-7.8,0-7.8,0-7.8,7.6c0,5.3,0.3,10.7-0.1,16c-0.3,4.1,1.5,5.9,5.2,7.1c23.6,7.7,47,15.7,70.6,23.3c4.7,1.5,6.4,3.6,6.4,8.7
		c-0.2,68-0.1,136-0.1,204c0,1.7,0,3.5,0,6.3c-8.6-4.1-16.3-7.7-23.9-11.4C163.5,442.7,123.2,423,83,403.4
		c-15.4-7.5-20.1-18-15.9-34.8c6-23.9,12.4-47.7,17.7-71.7c5.1-23.3,8-46.9,7.7-70.8c-0.5-30.2,9.3-56.8,27-80.9
		c20.7-28.1,46.6-50.8,75.4-70.1c18.2-12.2,37.5-22.8,56.3-34.2c3.3-2,6.2-2,9.7-0.1c38.6,20.1,74.6,44,105.9,74.5
		c20.9,20.4,39,43.1,47.6,71.7c3,10.1,5,20.9,5.1,31.4c0.2,41.3,7.2,81.4,17.8,121.1c2.9,10.9,6.1,21.8,8.6,32.8
		c3,13-2,23.7-13.8,29.6c-36.6,18-73.3,35.9-110,53.8c-10.6,5.2-21.3,10.3-31.9,15.5C288.6,471.7,287.1,472.4,284.4,473.6z"/>
</g>
</svg>
