<?xml version="1.0" encoding="utf-8"?>
<!-- Generator: Adobe Illustrator 24.1.2, SVG Export Plug-In . SVG Version: 6.00 Build 0)  -->
<svg version="1.1" id="Capa_1" xmlns="http://www.w3.org/2000/svg" xmlns:xlink="http://www.w3.org/1999/xlink" x="0px" y="0px"
     width="49px" height="49px" viewBox="0 0 49 49" style="enable-background:new 0 0 49 49;" xml:space="preserve">
<style type="text/css">
	.st0{fill:#FCE770;}
	.st1{fill:#3F342F;}
	.st2{fill:#FFFCE1;}
</style>
<path class="st0" d="M28.1,38.7l5,3.1c-3.4,3.7-8.1,6-13.4,6c-10.1,0-18.2-8.2-18.2-18.2c0-7.2,4.2-13.5,10.3-16.4l8.8-12l-6.3,11
	c1.7-0.6,3.6-0.9,5.5-0.9c2.1,0,4.1,0.4,6.1,1.1L20.9,0.9l7,12.4c5.9,3,9.9,9.2,9.9,16.2c0,2.7-0.6,5.2-1.6,7.5l-5-3.1
	c0.5-1.3,0.8-2.9,0.8-4.4c0-6.8-5.6-12.4-12.4-12.4S7.3,22.7,7.3,29.5s5.6,12.4,12.4,12.4C23,41.9,25.9,40.8,28.1,38.7z M21.3,27.1
	c0.6,0,1.1,0.2,1.5,0.4l1.4,0.9c-0.5-2-2.4-3.6-4.6-3.6c-2.6,0-4.7,2.1-4.7,4.7c0,2.2,1.4,4,3.5,4.5c-1.3-1.1-1.6-3.2-0.6-4.9
	C18.6,27.9,20,27.1,21.3,27.1z M30.1,33.2c0.4-1.2,0.6-2.3,0.6-3.7c0-6.1-4.9-11-11-11s-11,4.9-11,11s4.9,11,11,11
	c2.7,0,5.2-1,7.1-2.6l-0.4-0.3c-1.8,1.5-4.1,2.4-6.7,2.4c-5.8,0-10.5-4.7-10.5-10.5S13.9,19,19.7,19s10.5,4.7,10.5,10.5
	c0,1.2-0.2,2.3-0.6,3.4L30.1,33.2z M29.1,32.6c0.3-1,0.5-1.9,0.5-3c0-5.5-4.4-9.9-9.9-9.9s-9.9,4.4-9.9,9.9s4.4,9.8,9.9,9.8
	c2.3,0,4.4-0.8,6.1-2.1L25.3,37c-1.5,1.2-3.6,1.9-5.7,1.9c-5.2,0-9.4-4.2-9.4-9.4s4.2-9.4,9.4-9.4s9.4,4.2,9.4,9.4
	c0,1-0.2,1.9-0.4,2.8L29.1,32.6z M28.2,31.9c0.2-0.8,0.4-1.5,0.4-2.4c0-4.8-3.9-8.8-8.8-8.8S11,24.7,11,29.5s3.9,8.8,8.8,8.8
	c1.9,0,3.7-0.6,5.1-1.6l-0.5-0.3c-1.3,0.9-2.9,1.4-4.6,1.4c-4.6,0-8.3-3.8-8.3-8.3s3.8-8.3,8.3-8.3c4.6,0,8.3,3.8,8.3,8.3
	c0,0.8-0.1,1.4-0.3,2.1L28.2,31.9z M26.8,31.1l0.2,0.1c0.1-0.6,0.2-1.2,0.2-1.7c0-4.1-3.4-7.6-7.6-7.6c-4.1,0-7.6,3.4-7.6,7.6
	c0,4.1,3.4,7.6,7.6,7.6c1.3,0,2.4-0.3,3.5-0.9c-0.1,0-0.2,0-0.3,0c-0.3,0-0.5,0-0.7-0.1c-0.8,0.3-1.5,0.5-2.4,0.5
	c-3.9,0-7.1-3.2-7.1-7.1s3.2-7.1,7.1-7.1s7.1,3.2,7.1,7.1c0,0.4,0,0.8-0.1,1.2C26.7,30.8,26.8,31,26.8,31.1z"/>
<path class="st1" d="M46.7,44.5l-10.8-6.6L31,34.8L29.7,34l-0.4-0.3l-0.6-0.4l-0.4-0.3l-0.6-0.4l-0.4-0.3L26.7,32l-0.4-0.3l-0.4,0
	c-0.1-0.8-0.4-1.5-1.1-1.9l-0.4-0.3l-2.1-1.3c-0.3-0.2-0.7-0.3-1.1-0.3c-1,0-2,0.6-2.6,1.6c-0.9,1.4-0.6,3.2,0.6,3.9l1.2,0.7
	l1.3,0.8c0.3,0.2,0.7,0.3,1.1,0.3s0.8-0.1,1.2-0.3l0.1,0.1l0.5,0.3l0.7,0.4l0.4,0.3l0.6,0.4l0.4,0.3l0.6,0.4l0.4,0.3l1.3,0.8l5,3.1
	l10.9,6.7c0.3,0.2,0.6,0.3,0.9,0.3c0,0,0.1,0,0.2,0c0.7,0,1.3-0.3,1.6-0.9C47.8,46.3,47.5,45.1,46.7,44.5z"/>
<g>
	<path class="st2" d="M22.9,34.7c-0.3,0-0.6-0.1-0.8-0.2l-1.4-0.8L19.6,33c-0.4-0.2-0.6-0.6-0.8-1.1c-0.2-0.7,0-1.4,0.4-2.1
		c0.5-0.9,1.3-1.4,2.2-1.4c0.3,0,0.6,0.1,0.8,0.2l2.1,1.3l0.3,0.3c0.5,0.3,0.8,0.9,0.8,1.4l-1.8,2.9C23.4,34.6,23.1,34.7,22.9,34.7z
		"/>
	<path class="st1" d="M21.3,29c0.2,0,0.4,0.1,0.5,0.1l0,0l0,0l2.1,1.2l0.3,0.3l0,0l0.1,0c0.3,0.2,0.4,0.5,0.5,0.9l-1.6,2.6
		c-0.2,0.1-0.3,0.1-0.5,0.1c-0.2,0-0.4-0.1-0.5-0.1l0,0l0,0L21,33.3l-1.2-0.7c-0.3-0.2-0.5-0.5-0.5-0.8c-0.1-0.5,0-1.2,0.3-1.8
		C20,29.3,20.8,29,21.3,29 M21.3,28c-1,0-2,0.6-2.6,1.6c-0.9,1.4-0.6,3.2,0.6,3.9l1.2,0.7l1.3,0.8c0.3,0.2,0.7,0.3,1.1,0.3
		c0.4,0,0.8-0.1,1.2-0.3l1.9-3.2c-0.1-0.8-0.4-1.5-1.1-1.9l-0.4-0.3l-2.1-1.3C22.1,28.1,21.7,28,21.3,28L21.3,28z"/>
</g>
</svg>
