<?xml version="1.0" encoding="utf-8"?>
<!-- Generator: Adobe Illustrator 24.1.2, SVG Export Plug-In . SVG Version: 6.00 Build 0)  -->
<svg version="1.1" id="Capa_1" xmlns="http://www.w3.org/2000/svg" xmlns:xlink="http://www.w3.org/1999/xlink" x="0px" y="0px"
     width="45.9px" height="45.9px" viewBox="0 0 45.9 45.9" style="enable-background:new 0 0 45.9 45.9;" xml:space="preserve">
<style type="text/css">
	.st0{fill:#2D2121;}
	.st1{fill:#4C1F1F;}
	.st2{fill:#FFFF99;}
</style>
<g>
	<g>
		<path class="st0" d="M35.9,37.8c-0.2-0.2-0.3-0.5-0.3-0.7L35,34.6c-0.2-0.6-0.3-1.5-0.3-2.1c-0.1-0.9-0.4-1.8-0.8-2.6l-0.1-0.1
			H12.2l-0.1,0.1c-0.4,0.8-0.7,1.7-0.8,2.6c-0.1,0.6-0.2,1.5-0.3,2.1l-0.6,2.5c-0.1,0.3-0.2,0.5-0.3,0.7c-0.4,0.6-1.1,1-1.9,1H7.6
			c3.8,3.4,9.3,5.4,15.3,5.4s11.5-2,15.3-5.4h-0.3C37.1,38.8,36.4,38.4,35.9,37.8z"/>
		<path class="st1" d="M45.3,17.6c-1.8-1-2.8-1.4-4.8-2.2c-0.8-0.3-1.8-0.1-2.2,0.4c-0.8,1.1-1.4,2-2,2.9l3.4,7.5
			c1.6-2.9,3-4.6,6-7.2C46.1,18.7,46,18,45.3,17.6z M42.8,18.9c-0.5,0.5-1.4,0.6-2.2,0.3c-0.8-0.3-1.1-1-0.7-1.5
			c0.4-0.5,1.5-0.7,2.3-0.4C43,17.6,43.2,18.4,42.8,18.9z"/>
		<path class="st0" d="M33.1,28.8c-1-1.3-2.4-2-3.9-2H16.8c-1.5,0-2.9,0.8-3.9,2c-0.1,0.2-0.2,0.3-0.4,0.5c0,0,0,0.1-0.1,0.1h21
			c0,0,0-0.1-0.1-0.1C33.3,29.1,33.2,28.9,33.1,28.8z"/>
		<path class="st1" d="M9.4,36.9l0.6-2.5l0,0c0.1-0.5,0.2-1.4,0.3-2c0,0,0,0,0-0.1s0-0.1,0-0.2c0-0.3,0.1-0.5,0.1-0.7
			c0-0.1,0.1-0.2,0.1-0.3c0.1-0.2,0.1-0.4,0.2-0.6c0-0.1,0-0.1,0.1-0.2l0,0h-0.5H6H5.6l-1.8,4c0,0.1-0.1,0.2-0.1,0.3
			c0.5,1,1.1,1.9,1.8,2.8c0.1,0.2,0.3,0.3,0.4,0.5h2.4C8.7,37.8,9.3,37.4,9.4,36.9z"/>
		<path class="st1" d="M40,30.3L40,30.3h-4.4h-0.5l0,0c0,0.1,0,0.1,0.1,0.2c0.1,0.2,0.1,0.4,0.2,0.6c0,0.1,0.1,0.2,0.1,0.3
			c0.1,0.2,0.1,0.5,0.1,0.8c0,0.1,0,0.1,0,0.2c0,0,0,0,0,0.1c0.1,0.5,0.2,1.4,0.3,2l0.3,1.2l0.3,1.2c0.1,0.5,0.7,1,1.3,1h2
			c0.1-0.2,0.3-0.3,0.4-0.5c0.8-1,1.5-2,2-3.1l-1.8-3.9H40V30.3z"/>
		<path class="st1" d="M9.7,18.9c-0.6-0.9-1.2-1.9-2-3c-0.4-0.5-1.4-0.7-2.2-0.4c-2,0.7-3,1.1-4.8,2.2c-0.7,0.3-0.9,1-0.4,1.4
			c3,2.6,4.4,4.3,6,7.3L9.7,18.9z M5.4,19.2c-0.8,0.3-1.8,0.2-2.2-0.3c-0.5-0.5-0.2-1.2,0.6-1.6s1.9-0.2,2.3,0.4
			C6.5,18.2,6.2,18.9,5.4,19.2z"/>
		<path class="st1" d="M19.8,16.2c0.1,0.1,0.1,0.1,0.2,0.1c1.8,1.4,2.6,1.8,2.9,1.9c0.1-0.1,0.3-0.1,0.4-0.2c2.4-1.3,4.7-2.9,6-5.5
			c-1.9-1-4.1-1.5-6.3-1.5s-4.3,0.5-6.3,1.5c0,0.1,0,0.1,0.1,0.2C17.4,14,18.4,15.2,19.8,16.2z"/>
		<path class="st1" d="M34.3,28.8L34.3,28.8c0.1,0.2,0.2,0.3,0.3,0.5h0.6H40l-0.2-0.5l-0.2-0.5l-0.4-0.9l-3.4-7.5L35.3,19
			c-0.2-0.4-0.4-0.7-0.5-1.1c-1.6,2.2-3.8,3.9-6.5,4.7c-1.5,0.5-3.4,0.8-5.3,0.8c-0.4,0-0.8,0-1.2,0c-3.6-0.2-7.4-2-9.9-4.7
			c-0.2-0.2-0.4-0.5-0.6-0.7c-0.2,0.3-0.3,0.6-0.5,1l-0.5,1l-3.4,7.5l-0.4,0.8l-0.2,0.5L6,29.3h4.8h0.6c0.1-0.2,0.2-0.3,0.3-0.5
			s0.2-0.3,0.4-0.5c0.3-0.4,0.6-0.7,1-1.1l0,0c0.2-0.2,0.4-0.3,0.6-0.5c0,0,0.1,0,0.1-0.1c0.2-0.1,0.4-0.3,0.6-0.4
			c0.1,0,0.1-0.1,0.2-0.1c0.2-0.1,0.4-0.2,0.6-0.2c0.1,0,0.3-0.1,0.4-0.1c0.1,0,0.3-0.1,0.4-0.1c0.3,0,0.6-0.1,0.8-0.1h12.4
			c0.3,0,0.6,0,0.9,0.1c0.1,0,0.3,0.1,0.4,0.1s0.3,0.1,0.4,0.1c0.2,0.1,0.4,0.1,0.6,0.2c0.1,0,0.1,0.1,0.2,0.1
			c0.2,0.1,0.4,0.2,0.6,0.4c0,0,0.1,0,0.1,0.1c0.2,0.2,0.4,0.3,0.7,0.5l0,0c0.4,0.3,0.7,0.7,1,1.1C34.1,28.4,34.2,28.6,34.3,28.8z"
			/>
		<path class="st2" d="M9.8,6.8c-0.5,3.1-0.1,6.7,1.4,9.4c0.1,0.2,0.2,0.3,0.3,0.5c0.1,0.1,0.2,0.3,0.3,0.4c0.2,0.3,0.5,0.6,0.8,0.9
			c2.3,2.4,5.9,4.1,9.3,4.4c0.4,0,0.7,0,1.1,0c1.7,0,3.5-0.2,5-0.7c2.6-0.9,4.8-2.5,6.2-4.7c0.1-0.1,0.2-0.3,0.3-0.4
			c0.1-0.2,0.2-0.3,0.3-0.5c0.4-0.7,0.7-1.4,1-2.1c0.6-1.8,0.9-3.6,0.6-5.5c-0.3-2.1-0.6-4.3,0.9-5.6c0.3-0.3,0.7-0.5,1.1-0.7
			c0,0-0.5-0.3-1.5-0.3c-0.5,0-1.1,0-1.8,0.3S33.6,3,33.1,4c-1.4,2.5-1.3,5.7-2.4,8.4c0,0.1,0,0.1-0.1,0.2c0,0.1-0.1,0.2-0.1,0.3
			c-0.1,0.1-0.1,0.3-0.2,0.4c-1.4,2.7-3.8,4.4-6.5,5.9c-0.2,0.1-0.4,0.2-0.7,0.3H23c-0.8,0-3.2-2-3.7-2.3c-1.3-1-2.5-2.2-3.2-3.7
			c0,0,0-0.1-0.1-0.1c-0.1-0.1-0.1-0.3-0.2-0.5c-0.1-0.2-0.1-0.3-0.2-0.5C14.5,9.5,14.7,6,13,3.8c-0.5-0.9-1.3-1.5-2-1.8
			S9.7,1.7,9.2,1.7H9.1c-0.5,0-1,0.2-1.4,0.3C9.6,3.1,10.1,4.6,9.8,6.8z"/>
	</g>
</g>
</svg>
