<?xml version="1.0" encoding="utf-8"?>
<!-- Generator: Adobe Illustrator 24.1.2, SVG Export Plug-In . SVG Version: 6.00 Build 0)  -->
<svg version="1.1" id="Capa_1" xmlns="http://www.w3.org/2000/svg" xmlns:xlink="http://www.w3.org/1999/xlink" x="0px" y="0px"
     width="239.5px" height="239.5px" viewBox="0 0 239.5 239.5" style="enable-background:new 0 0 239.5 239.5;" xml:space="preserve">
<style type="text/css">
	.st0{fill:#FFFFCC;}
</style>
<g>
	<g>
		<path class="st0" d="M173.2,103.1c0.8-4.9,1.4-9.8,1.4-14.9c0-48.2-39.1-87.3-87.3-87.3C39.1,0.9,0,40,0,88.2s39.1,87.3,87.3,87.3
			c5.7,0,11.3-0.6,16.7-1.6c0-0.1,0-0.2,0-0.3c0-7.6,1.2-14.9,3.5-21.7c-6.4,2-13.1,3.1-20.1,3.1c-36.8,0-66.7-29.9-66.7-66.7
			s29.9-66.7,66.7-66.7s66.7,29.9,66.7,66.7c0,6.5-1,12.9-2.8,18.8C158.2,104.6,165.5,103.2,173.2,103.1z"/>
		<path class="st0" d="M87.3,26.8c-33.8,0-61.4,27.5-61.4,61.4c0,33.8,27.5,61.4,61.4,61.4c8,0,15.7-1.6,22.7-4.4
			c6.9-15.6,19.3-28.2,34.7-35.4c2.5-6.7,4-13.9,4-21.5C148.6,54.3,121.1,26.8,87.3,26.8z M110.6,101.7c0,5.4-4.4,9.8-9.8,9.8H73.7
			c-5.4,0-9.8-4.4-9.8-9.8v-27c0-5.4,4.4-9.8,9.8-9.8h27.1c5.4,0,9.8,4.4,9.8,9.8V101.7z"/>
		<path class="st0" d="M174.4,108.4c-0.8,0-1.6,0.1-2.4,0.1c-8.2,0.3-16,2-23.1,5.1c-1.3,0.5-2.5,1.2-3.8,1.8
			c-1.4,0.7-2.8,1.5-4.2,2.3c-9.5,5.7-17.5,13.8-23.1,23.5c-0.8,1.4-1.5,2.8-2.2,4.3c-0.6,1.2-1.2,2.5-1.7,3.8
			c-2.9,7.2-4.6,15-4.7,23.2c0,0.3,0,0.7,0,1c0,35.9,29.2,65.1,65.1,65.1s65.1-29.2,65.1-65.1C239.5,137.6,210.3,108.4,174.4,108.4z
			 M174.4,226c-28.9,0-52.4-23.5-52.4-52.4c0-1.8,0.1-3.6,0.3-5.4c2.5-24.2,21.6-43.6,45.7-46.6c2.1-0.3,4.3-0.4,6.5-0.4
			c28.9,0,52.4,23.5,52.4,52.4C226.9,202.4,203.3,226,174.4,226z"/>
		<path class="st0" d="M174.4,126.5c-3.2,0-6.2,0.3-9.2,0.9c-18.9,3.8-33.7,18.9-37.1,37.9c-0.5,2.7-0.8,5.4-0.8,8.2
			c0,26,21.1,47.1,47.1,47.1s47.1-21.1,47.1-47.1S200.4,126.5,174.4,126.5z M192.6,184c0,4.2-3.4,7.6-7.6,7.6h-21
			c-4.2,0-7.6-3.4-7.6-7.6v-21c0-4.2,3.4-7.6,7.6-7.6h21c4.2,0,7.6,3.4,7.6,7.6V184z"/>
	</g>
</g>
</svg>
