<?xml version="1.0" encoding="utf-8"?>
<!-- Generator: Adobe Illustrator 24.1.2, SVG Export Plug-In . SVG Version: 6.00 Build 0)  -->
<svg version="1.1" id="Calque_1" xmlns="http://www.w3.org/2000/svg" xmlns:xlink="http://www.w3.org/1999/xlink" x="0px" y="0px"
	 width="500px" height="500px" viewBox="0 0 500 500" style="enable-background:new 0 0 500 500;" xml:space="preserve">
<style type="text/css">
	.st0{fill:#575757;}
	.st1{fill:#8A714C;}
	.st2{fill:#3D3737;}
	.st3{fill:#807C7A;}
	.st4{fill:#FFCC07;}
	.st5{fill:#EC681C;}
</style>
<g>
	<path class="st0" d="M104.9,248.4h88.9l233.6,9.4c0,0,31.4,6.8,59.3,31.9c0,0-32,28.9-59.3,36.7l-233.6-3.8
		C193.8,322.7,132.5,310.9,104.9,248.4z"/>
	<path class="st1" d="M13.5,213.5c0.4,12.5,4.1,22.2,12.6,27.9l177.8-80.1l-12.6-27.8L13.5,213.5z"/>
	<path class="st2" d="M191.3,133.5l-16.9-55.7l32-14.4l55.8,54.8l21.3,70.3l-49.3,22.2l-30.4-49.5
		C196.8,151.2,192.8,142,191.3,133.5z"/>
	<path class="st0" d="M452.8,452c0,0-68.9-39.3-89-96.3H252.4c-26.7,62.9-83.9,96.3-83.9,96.3"/>
	<rect x="168.5" y="433.3" class="st3" width="284.3" height="18.7"/>
	<rect x="193.8" y="228.1" class="st3" width="233.6" height="127.6"/>
	<polygon class="st4" points="409.6,31.2 388.1,126.8 461.6,87.5 413.8,156.2 484.6,158.2 357.6,209.1 357.4,179.7 294.7,209.1 
		324.9,120.1 333.2,152.8 	"/>
	<polygon class="st5" points="304.1,198 323.8,136.1 329,169.9 380.8,100.7 363.2,159.2 427.4,117.3 383,166.8 440.7,166.9 
		362.2,204.7 360.9,173.3 	"/>
</g>
</svg>
