<?xml version="1.0" encoding="utf-8"?>
<!-- Generator: Adobe Illustrator 24.1.2, SVG Export Plug-In . SVG Version: 6.00 Build 0)  -->
<svg version="1.1" id="Capa_1" xmlns="http://www.w3.org/2000/svg" xmlns:xlink="http://www.w3.org/1999/xlink" x="0px" y="0px"
     width="41.4px" height="41.4px" viewBox="0 0 41.4 41.4" style="enable-background:new 0 0 41.4 41.4;" xml:space="preserve">
<style type="text/css">
	.st0{fill:#444351;}
	.st1{fill:#B7B3AE;}
</style>
<g>
	<g>
		<path class="st0" d="M35.8,21.4c-0.4-0.3-0.8-0.6-1.2-0.7c-0.7-0.4-1.3-0.7-1.3-0.7s-0.1,0-0.3,0c-0.1,0-0.1,0.1-0.2,0.1
			c-0.3,0.1-0.7,0.3-1.1,0.5c-0.5,0.2-1,0.4-1.6,0.5c-0.3,0.1-0.6,0.1-0.9,0.2s-0.7,0.1-0.9,0.2c-0.7,0.1-1.2,0.2-1.9,0.2
			c-0.3,0-0.6,0-0.8,0s-0.6,0-0.7,0c-0.3,0-0.6-0.1-0.7-0.1c-0.5,0-0.5-0.1,0-0.1c0.2,0,0.5,0,0.7,0s0.5,0,0.7-0.1
			c0.3,0,0.6-0.1,0.8-0.1c0.6-0.1,1.2-0.2,1.8-0.4c0.3-0.1,0.6-0.1,0.8-0.3c0.3-0.1,0.6-0.2,0.8-0.3c0.6-0.2,1-0.5,1.4-0.7
			c0.1-0.1,0.2-0.1,0.3-0.2c0.2-0.1,0-0.3-0.4-0.5c-0.5-0.2-0.7-0.3-0.6-0.3h0.7c0.5,0,0.9-0.4,0.9-0.9s-0.4-0.9-0.9-0.9h-4.6h-7.5
			h-4.6c-0.5,0-0.9,0.4-0.9,0.9s0.4,0.9,0.9,0.9c0,0,0.1,0,0.3,0S14.5,18.7,14,19c-0.4,0.2-0.7,0.5-1,0.7c-1,0.6-4.3,2.6-5.4,1.3
			c-0.3-0.4-0.7-0.7-1.1-1.2C5.8,19.1,4,19,2.6,19.6S1,21.4,1.9,22c1,0.7,1.8,1.1,2.3,1.8c1.2,1.1,1.7,2.5,1.6,3.1
			c-0.1,0.3-0.1,0.7-0.1,0.9c0,5.5,7.6,9.9,17.1,9.9c9.4,0,17.1-4.4,17.1-9.9C40,25.3,38.4,23,35.8,21.4z M3.7,21.1
			c-0.7,0.4-1.5,0.4-1.6,0.1s0.4-0.7,1.1-1s1.3-0.5,1.4-0.2C4.8,20.1,4.4,20.7,3.7,21.1z"/>
		<path class="st0" d="M22.1,12.9c-0.6,0-1.8,1.2-1.8,2.8c0,0.1,0,0.3,0,0.4c0,0.2,0.7,0.4,1.4,0.4h2.1c0.7,0,1.4-0.2,1.4-0.4
			c0-0.1,0-0.3,0-0.4c0-1.5-1.1-2.8-1.8-2.8C23.6,12.9,22.1,12.9,22.1,12.9z M24,14.3c0,0.4-0.2,0.7-0.5,0.7h-1.2
			c-0.3,0-0.5-0.3-0.5-0.7s0.2-0.7,0.5-0.7h1.2C23.8,13.6,24,13.9,24,14.3z"/>
		<path class="st1" d="M8.9,14.8c0,0.3,0.1,0.6,0.2,0.8c0.4,1,0.9,1.9,1.6,2.6c0.2,0.2,0.4,0.4,0.6,0.6c0.3,0.3,0.8,0.4,1,0.3
			c0.3-0.1-0.3-0.8-1-1.8c-0.4-0.6-0.7-1.2-0.8-2c-0.1-0.2-0.1-0.4-0.1-0.7c0-0.4,0-0.8,0-1s0.1-0.5,0.1-0.7l0.1-0.3
			c0.3-0.8,0.7-1.7,1.4-2.3c1.3-1.4,3.1-2.3,5-3s4-0.9,6-0.9s4.1,0.3,6.1,0.9c1.9,0.7,3.7,1.6,4.9,3c0.7,0.7,1.1,1.5,1.4,2.3
			c0.3,0.8,0.3,1.8,0.1,2.6c-0.2,0.7-0.5,1.3-0.8,1.9c-0.7,0.9-1.2,1.7-0.9,1.8c0.3,0.1,0.7,0,1-0.3c0.2-0.2,0.4-0.4,0.6-0.6
			c0.7-0.7,1.2-1.5,1.6-2.6c0.3-1,0.5-2.1,0.2-3.4c-0.3-1.1-0.8-2.2-1.6-3.2c-1.5-1.9-3.4-3.2-5.6-4c-1.1-0.4-2.2-0.7-3.4-0.9
			c-0.6-0.1-1.2-0.2-1.8-0.3s-1-0.1-1.6-0.1c-1.3,0-2.3,0.1-3.5,0.4c-1.1,0.2-2.2,0.5-3.4,0.9c-1,0.5-2.1,0.9-3.1,1.6
			c-0.9,0.7-1.9,1.5-2.5,2.4c-0.7,0.9-1.3,2-1.6,3.2c0,0.2-0.1,0.3-0.1,0.5c0,0.3-0.1,0.7-0.1,0.8v0.4C8.8,14.3,8.8,14.5,8.9,14.8z"
			/>
	</g>
</g>
</svg>
