<?xml version="1.0" encoding="utf-8"?>
<!-- Generator: Adobe Illustrator 24.1.2, SVG Export Plug-In . SVG Version: 6.00 Build 0)  -->
<svg version="1.1" id="Calque_1" xmlns="http://www.w3.org/2000/svg" xmlns:xlink="http://www.w3.org/1999/xlink" x="0px" y="0px"
	 width="512px" height="512px" viewBox="0 0 512 512" style="enable-background:new 0 0 512 512;" xml:space="preserve">
<style type="text/css">
	.st0{fill:#8C8277;}
	.st1{fill:#FFF988;}
	.st2{fill:#726D68;}
</style>
<g transform="translate(0,0)">
	<path class="st0" d="M325.4,32.2L222.6,237.9h13.7l13.4-13.4l6.4-6.4l19.7,19.7H346L420.9,58c-8.1-5-24-11.7-41.3-16.4
		C360.6,36.4,340,32.9,325.4,32.2z M186.2,32.2c-14.6,0.8-35,4.2-53.8,9.4C115,46.3,99.2,53,91.1,58L166,237.9h36.4l38.7-77.4
		L186.2,32.2z M164.6,303.9l-26,165.2c114.2,14.3,120.7,14.3,234.9,0l-26-165.2h-75.9L256,327.1l-15.5-23.2H164.6z"/>
</g>
<polygon class="st1" points="256,243.6 235.6,264 256,294.7 276.4,264 "/>
<polygon class="st2" points="153,255.9 153,285.9 228.5,285.9 212.4,261.7 218.3,255.9 "/>
<polygon class="st2" points="293.7,255.9 299.6,261.7 283.5,285.9 359,285.9 359,255.9 "/>
<path class="st2" d="M215.5,54.8l36.3,84.6l42-84C266.7,61.1,242.6,60.9,215.5,54.8L215.5,54.8z"/>
<polygon class="st2" points="88.4,98.5 44.7,164 110.6,203.5 125.8,188.3 "/>
<polygon class="st2" points="423.6,98.5 386.2,188.3 401.4,203.5 467.3,164 "/>
</svg>
