<?xml version="1.0" encoding="utf-8"?>
<!-- Generator: Adobe Illustrator 24.1.2, SVG Export Plug-In . SVG Version: 6.00 Build 0)  -->
<svg version="1.1" id="Capa_1" xmlns="http://www.w3.org/2000/svg" xmlns:xlink="http://www.w3.org/1999/xlink" x="0px" y="0px"
     width="35.5px" height="35.5px" viewBox="0 0 35.3 35.3" style="enable-background:new 0 0 35.3 35.3;" xml:space="preserve">
<style type="text/css">
	.st0{fill:#FFFFFF;}
</style>
<g>
	<path class="st0" d="M23.8,21.1c0.8-0.4,4.1,0.7,9.2-13.7c-0.3,0.9-1.4,1.8-2.1,2.3c-1.9,1.6-4.1,2.8-6.6,3.2
		c0.4-1.3,0.6-2.8,0.6-4.1c0.1-1.1,0-2.2-0.2-3.3C24.6,4.8,24,4.1,24,3.3c0-0.7,0.2-1.7,0.4-2.4c-0.6,2-1.8,3.4-3.1,4.9
		c-1.5,1.7-2.1,3.4-2.9,5.5c-0.1-0.3-0.1-0.5-0.2-0.8c-0.1-0.4-0.3-0.9-0.4-1.3c-0.3-0.8-0.7-1.7-1.2-2.4C16,6,15.1,5.5,14.4,4.9
		c-0.9-0.8-1.1-1.6-1.5-2.6C12.6,1.5,12.3,0.7,12,0c0.2,0.4,0,1.2-0.1,1.6c0,1.1,0,2.2,0,3.4c0,2.5,0.1,5.1,0.8,7.5
		c-0.6-1.1-2.5-1.6-3.6-2C6.8,9.7,5.2,8.4,3.4,6.9C4.2,8,5.1,9.1,5.7,10.3c0.6,1.1,1,2.4,1.5,3.6c1.1,2.4,3,4,5.1,5.4
		c-1.3-0.8-3.3,0-4.7,0.2c-2,0.3-3.5-0.5-5.3-1.2c1,0.4,2,1.7,2.9,2.3c1.1,0.7,2.1,1.4,3.3,2c2.2,1.1,4.9,1.7,7.3,1.1
		c-0.8,0.2-1.6,0.7-2.2,1.2c-0.7,0.6-1.1,1.4-1.8,2c-0.6,0.5-1.3,0.9-2,1.3c1.6-0.2,3.2-0.6,4.7-1.1c1.3-0.5,2.9-1.2,3.9-2.3
		c0.1,0.2,0.2,0.5,0.2,0.7c0.1,0.5,0.3,0.9,0.5,1.4c0.4,1,0.8,2,1.4,3c0.3,0.5,0.5,1,0.9,1.5c0.3,0.5,0.6,0.9,1,1.3
		c0.4,0.4,0.7,0.8,1.1,1.1c0.3,0.3,0.7,0.6,1.1,0.9c0.4,0.2,0.7,0.4,1.1,0.5c0.3,0.1,0.6,0.1,0.9,0.2c0.2,0,0.4,0,0.6,0
		c0.1,0,0.2,0,0.2,0s-0.1,0-0.2,0c-0.1,0-0.3,0-0.5-0.1c-0.2-0.1-0.5-0.2-0.7-0.3c-0.3-0.2-0.5-0.4-0.8-0.7c-0.3-0.3-0.5-0.6-0.8-1
		c-0.3-0.4-0.5-0.8-0.7-1.2c-0.2-0.5-0.4-0.9-0.6-1.4c-0.2-0.5-0.3-1-0.5-1.5c-0.3-1-0.5-2-0.6-3c-0.1-0.5-0.2-0.9-0.2-1.4
		c0-0.3-0.1-0.6-0.1-0.9c1.9,1.2,4,1.5,6.2,0.9c1.3-0.3,2.9-0.8,4-1.6c-0.9-0.3-2,0-2.9-0.4C26.9,22,25.9,20.8,23.8,21.1z"/>
</g>
</svg>
