<?xml version="1.0" encoding="utf-8"?>
<!-- Generator: Adobe Illustrator 24.1.2, SVG Export Plug-In . SVG Version: 6.00 Build 0)  -->
<svg version="1.1" id="Capa_1" xmlns="http://www.w3.org/2000/svg" xmlns:xlink="http://www.w3.org/1999/xlink" x="0px" y="0px"
     width="47.8px" height="47.8px" viewBox="0 0 47.8 47.8" style="enable-background:new 0 0 47.8 47.8;" xml:space="preserve">
<style type="text/css">
	.st0{fill:#FFFFFF;}
</style>
<g>
	<path class="st0" d="M23.9,1.8c-12.2,0-22.1,9.9-22.1,22.1S11.7,46,23.9,46S46,36.1,46,23.9S36.1,1.8,23.9,1.8z M24.8,36.9
		c-0.2,0.1-0.3,0.1-0.5,0.1c-0.2,0-0.3,0.1-0.5,0.1c-1.5,0-2.8-1.2-2.8-2.8s1.2-2.8,2.8-2.8c0.2,0,0.3,0,0.5,0
		c0.2,0,0.3,0.1,0.5,0.1c1,0.4,1.9,1.4,1.9,2.6C26.7,35.4,25.8,36.5,24.8,36.9z M28.2,23c-0.4,0.2-0.6,0.4-1,0.6
		c-1-0.4-2.2-0.5-3.3-0.5c-6.2,0-11.3,5.1-11.3,11.3c0,3.9,2,7.4,5.1,9.4C9.3,41,3.2,33.2,3.2,23.9c0-11.5,9.3-20.7,20.7-20.7
		c5.7,0,10.4,4.6,10.4,10.4C34.3,17.7,31.8,21.3,28.2,23z M27.6,13.5c0,2-1.7,3.7-3.7,3.7s-3.7-1.7-3.7-3.7s1.7-3.7,3.7-3.7
		S27.6,11.5,27.6,13.5z"/>
</g>
</svg>
