<?xml version="1.0" encoding="utf-8"?>
<!-- Generator: Adobe Illustrator 24.1.2, SVG Export Plug-In . SVG Version: 6.00 Build 0)  -->
<svg version="1.1" id="Capa_1" xmlns="http://www.w3.org/2000/svg" xmlns:xlink="http://www.w3.org/1999/xlink" x="0px" y="0px"
     width="52.5px" height="52.5px" viewBox="0 0 52.5 52.5" style="enable-background:new 0 0 52.5 52.5;" xml:space="preserve">
<style type="text/css">
	.st0{fill:#336666;}
	.st1{fill:#FFFBB3;}
</style>
<g>
	<path class="st0" d="M26.3,44.9c-0.6,0-1.1-0.2-1.4-0.4c-0.6-0.5-0.9-1-0.9-1.3c0-0.3,0.2-1.7,1.7-8.6c0.3-1.2,0.5-2.3,0.7-3.1
		c0.2,0.8,0.4,1.9,0.7,3.1c1.4,6.5,1.7,8.3,1.7,8.6c0,0.3-0.3,0.8-0.9,1.3C27.4,44.8,26.8,44.9,26.3,44.9z M33.2,42.4
		c-1.2-0.1-2.7-0.4-2.8-0.8c-0.2-0.4-1-4.4-2.2-10.7l1.6,2.4c1.6,2.4,4,6.1,4.2,6.5C34.2,40.4,33.7,41.5,33.2,42.4z M19.3,42.4
		c-0.5-0.9-1-2.1-0.8-2.6c0.2-0.4,2.6-4.1,4.2-6.5c0.6-0.8,1.1-1.7,1.6-2.4c-1.2,6.3-2,10.2-2.2,10.7C22,42.1,20.6,42.4,19.3,42.4z
		 M38.4,39.7c-1.3,0-2.2-0.2-2.6-0.5c-0.5-0.5-4.2-6-6.8-10.1c1.4,0.9,3,2.1,4.7,3.2l0.3,0.2c2.2,1.5,4.9,3.3,5.2,3.6
		c0.4,0.4,0.3,2.2,0.1,3.7C39,39.7,38.7,39.7,38.4,39.7z M14.1,39.7c-0.3,0-0.6,0-0.9,0c-0.3-1.5-0.4-3.3,0.1-3.7
		c0.3-0.3,3.3-2.3,5.2-3.6l0.2-0.1c1.7-1.1,3.3-2.2,4.7-3.1c-2.6,4-6.3,9.6-6.8,10C16.4,39.5,15.4,39.7,14.1,39.7z M41.9,34.9
		c-0.4,0-0.8-0.1-1.1-0.2c-0.7-0.3-6.5-4.1-10-6.5c5.1,1,12.5,2.4,13.1,2.7c0.5,0.2,0.8,1.9,0.8,3.5C44.2,34.5,42.9,34.9,41.9,34.9z
		 M10.7,34.9c-1.1,0-2.3-0.4-2.9-0.6c0-1.5,0.2-3.2,0.8-3.5c0.6-0.3,7.9-1.7,13.1-2.7c-3.4,2.3-9.3,6.2-10,6.5
		C11.4,34.9,11.1,34.9,10.7,34.9z M48.5,29.3c-0.7,0-5.4-0.8-9.9-1.6L34.5,27c-1.5-0.3-2.9-0.5-3.8-0.7c0.9-0.2,2.3-0.5,3.8-0.7
		l3.8-0.7c4.7-0.8,9.5-1.7,10.2-1.7c0.2,0,0.8,0.1,2,1.3c0.4,0.4,0.7,1.1,0.7,1.8S51,27.6,50.5,28C49.3,29.3,48.7,29.3,48.5,29.3z
		 M4,29.3c-0.2,0-0.8-0.1-2-1.3c-0.4-0.4-0.7-1.1-0.7-1.8c0-0.7,0.2-1.3,0.7-1.8c1.3-1.2,1.9-1.3,2-1.3c0.7,0,5.5,0.8,10.1,1.7
		l3.9,0.7c1.5,0.3,2.9,0.5,3.8,0.7c-0.9,0.2-2.3,0.5-3.8,0.7l-3.7,0.7C9.8,28.4,4.7,29.3,4,29.3z M30.8,24.3c3.5-2.4,9.3-6.2,10-6.5
		c0.3-0.1,0.6-0.2,1-0.2c1.1,0,2.3,0.4,2.9,0.6c0,1.5-0.2,3.2-0.8,3.5C43.3,21.9,36.1,23.3,30.8,24.3z M21.7,24.3
		c-5.3-1-12.5-2.4-13.1-2.7c-0.5-0.2-0.8-1.9-0.8-3.5c0.6-0.2,1.8-0.6,2.9-0.6c0.4,0,0.8,0.1,1,0.2C12.4,18.1,18.2,22,21.7,24.3z
		 M29,23.5c2.6-4,6.4-9.6,6.8-10.1c0.3-0.3,1.3-0.5,2.6-0.5c0.3,0,0.6,0,0.9,0c0.3,1.5,0.4,3.3-0.1,3.7c-0.3,0.3-3.1,2.2-5.2,3.6
		l-0.1,0.1C32.2,21.4,30.4,22.5,29,23.5z M23.5,23.5c-1.4-1-3.2-2.2-4.9-3.3c-2.2-1.5-4.9-3.3-5.2-3.6c-0.4-0.4-0.4-2.2-0.1-3.7
		c0.2,0,0.5,0,0.9,0c1.3,0,2.2,0.2,2.6,0.5C17.1,13.9,20.9,19.5,23.5,23.5z M28.2,21.6c1.2-6.4,2-10.3,2.2-10.7
		c0.2-0.4,1.6-0.7,2.8-0.8c0.5,0.9,1,2.1,0.8,2.6c-0.2,0.4-2.6,4-4.1,6.4L28.2,21.6z M22.8,19.2c-1.6-2.4-4-6.1-4.2-6.5
		c-0.2-0.5,0.2-1.7,0.8-2.6c1.3,0.1,2.7,0.4,2.8,0.8c0.2,0.4,1,4.4,2.2,10.7C23.9,20.9,22.8,19.2,22.8,19.2z M26.3,21
		c-0.2-0.8-0.4-1.9-0.7-3.1c-1.5-6.9-1.7-8.3-1.7-8.6c0-0.3,0.3-0.8,0.9-1.3c0.3-0.3,0.9-0.4,1.4-0.4c0.6,0,1.1,0.2,1.4,0.4
		c0.6,0.5,0.9,1,0.9,1.3c0,0.3-0.3,2.1-1.7,8.6C26.7,19.2,26.4,20.2,26.3,21z"/>
	<path class="st1" d="M26.3,7.7c0.5,0,1,0.2,1.3,0.4c0.6,0.5,0.9,0.9,0.9,1.2c0,0.3-0.2,1.7-1.7,8.6c-0.2,0.9-0.4,1.8-0.6,2.6
		c-0.2-0.8-0.4-1.7-0.6-2.6C24.2,11,24,9.6,24,9.3c0-0.3,0.3-0.8,0.9-1.2C25.2,7.9,25.7,7.7,26.3,7.7 M19.4,10.3
		c1.4,0.1,2.5,0.4,2.6,0.7c0.1,0.3,0.7,3.1,2.1,10c-0.4-0.6-0.8-1.2-1.2-1.8l0-0.1c-1.5-2.3-4-6.1-4.2-6.5
		C18.5,12.2,18.9,11.1,19.4,10.3 M33.1,10.3c0.5,0.9,0.9,2,0.7,2.4c-0.2,0.4-2.5,4-4.1,6.3l-0.1,0.1c-0.4,0.6-0.8,1.3-1.2,1.9
		c1.1-5.9,1.9-9.6,2.1-10C30.6,10.6,31.8,10.3,33.1,10.3 M38.4,13c0.3,0,0.6,0,0.8,0c0.3,1.6,0.3,3.1,0,3.5
		c-0.3,0.3-3.2,2.2-5.2,3.5l-0.1,0.1c-1.5,1-3,2-4.3,2.9c2.7-4.2,6.1-9.1,6.5-9.5C36.2,13.2,36.9,13,38.4,13 M14.1,13
		c1.5,0,2.2,0.3,2.5,0.5c0.4,0.4,3.7,5.3,6.4,9.5c-1.4-0.9-3-2-4.4-3c-2.1-1.4-4.9-3.3-5.2-3.6c-0.3-0.3-0.4-1.9,0-3.5
		C13.6,13,13.8,13,14.1,13 M41.9,17.7c1,0,2.2,0.4,2.7,0.6c0,1.6-0.3,3.1-0.7,3.2c-0.5,0.2-6.7,1.5-12.5,2.5
		c3.5-2.4,8.8-5.9,9.5-6.2C41.1,17.8,41.4,17.7,41.9,17.7 M10.7,17.7c0.4,0,0.7,0.1,1,0.2c0.6,0.3,6,3.8,9.5,6.2
		c-5.8-1.1-12-2.3-12.5-2.5c-0.4-0.2-0.7-1.6-0.7-3.2C8.5,18.1,9.7,17.7,10.7,17.7 M48.5,23.3c0.1,0,0.7,0.1,1.9,1.3
		c0.4,0.4,0.6,1,0.6,1.7c0,0.7-0.2,1.3-0.6,1.7c-1.3,1.2-1.8,1.3-1.9,1.3c-0.7,0-5.4-0.8-9.9-1.6l-0.3-0.1l-3.7-0.7
		c-1.2-0.2-2.3-0.4-3.2-0.6c0.9-0.2,2-0.4,3.2-0.6l3.8-0.7l0.1,0C42.8,24.2,47.8,23.3,48.5,23.3 M4,23.3c0.7,0,5.6,0.9,10,1.6l0.2,0
		l3.8,0.7c1.2,0.2,2.4,0.4,3.2,0.6c-0.9,0.2-2,0.4-3.2,0.6l-3.7,0.7C10,28.3,4.7,29.2,4,29.2c-0.1,0-0.7-0.1-1.9-1.3
		c-0.4-0.4-0.6-1-0.6-1.7c0-0.7,0.2-1.3,0.6-1.7C3.3,23.4,3.9,23.3,4,23.3 M21.1,28.4c-3.5,2.3-8.8,5.9-9.5,6.2
		c-0.2,0.1-0.6,0.2-1,0.2c-1,0-2.2-0.4-2.7-0.6c0-1.6,0.3-3.1,0.7-3.2C9.1,30.8,15.3,29.5,21.1,28.4 M31.4,28.4
		c5.8,1.1,12,2.3,12.5,2.5c0.4,0.2,0.7,1.6,0.7,3.3c-0.6,0.2-1.7,0.6-2.7,0.6c-0.4,0-0.7-0.1-1-0.2C40.2,34.3,34.9,30.8,31.4,28.4
		 M29.5,29.5c1.3,0.9,2.8,1.9,4.3,2.9l0.1,0.1l0.1,0c2.2,1.4,4.9,3.2,5.1,3.5c0.3,0.3,0.4,1.9,0,3.5c-0.2,0-0.5,0-0.8,0
		c-1.5,0-2.2-0.3-2.5-0.5C35.5,38.7,32.3,33.8,29.5,29.5 M23,29.5c-2.6,4-6,9.1-6.5,9.5c-0.2,0.2-1,0.5-2.5,0.5c-0.3,0-0.6,0-0.8,0
		c-0.3-1.6-0.3-3.1,0-3.5c0.3-0.3,3.2-2.2,5.2-3.5l0.1,0C20.2,31.5,21.7,30.4,23,29.5 M28.4,31.6c0.3,0.5,0.7,1.1,1.1,1.6l0.2,0.2
		c1.6,2.4,4,6.1,4.2,6.5c0.2,0.4-0.2,1.5-0.7,2.4c-1.4-0.1-2.5-0.4-2.6-0.7C30.3,41.2,29.6,37.5,28.4,31.6 M24.1,31.6
		c-1.7,8.7-2,9.9-2.1,10c-0.1,0.3-1.3,0.6-2.6,0.7c-0.5-0.9-0.9-2-0.7-2.4c0.2-0.4,2.7-4.2,4.2-6.5C23.3,32.8,23.7,32.1,24.1,31.6
		 M26.3,32.1c0.2,0.8,0.4,1.6,0.6,2.6c1.5,6.9,1.7,8.3,1.7,8.6c0,0.3-0.3,0.7-0.9,1.2c-0.3,0.2-0.8,0.4-1.3,0.4
		c-0.6,0-1.1-0.1-1.3-0.4C24.4,44,24,43.5,24,43.2c0-0.2,0.2-1.7,1.7-8.6C25.9,33.7,26.1,32.9,26.3,32.1 M26.3,7.4
		c-0.6,0-1.2,0.2-1.5,0.5c-0.6,0.5-1,1-1,1.4c0,0.3,0.3,2.1,1.7,8.6c0.3,1.5,0.6,2.8,0.8,3.6c0.2-0.9,0.5-2.1,0.8-3.6
		c1.4-6.5,1.7-8.3,1.7-8.6c0-0.4-0.3-0.9-1-1.4C27.4,7.6,26.9,7.4,26.3,7.4L26.3,7.4z M33.3,10c-1.2,0-2.8,0.3-3,0.9
		c-0.2,0.4-1,4.6-2.3,11.3c0.6-0.8,1.2-1.9,1.9-2.9c1.7-2.6,4-6.1,4.2-6.5C34.3,12.1,33.7,10.7,33.3,10L33.3,10z M19.3,10
		c-0.5,0.8-1.1,2.1-0.8,2.7c0.2,0.4,2.5,4,4.2,6.5c0.7,1,1.4,2.1,1.9,2.9c-1.3-6.7-2.1-10.9-2.3-11.3C22,10.3,20.4,10,19.3,10
		L19.3,10z M38.4,12.7c-1.3,0-2.3,0.2-2.6,0.6c-0.5,0.5-4.4,6.3-7,10.4c0,0,0.1,0.1,0.1,0.1c1.5-1,3.4-2.3,5.2-3.5
		c2.3-1.5,5-3.3,5.2-3.6c0.5-0.5,0.4-2.5,0.1-3.9C39.1,12.8,38.8,12.7,38.4,12.7L38.4,12.7z M14.1,12.7c-0.4,0-0.7,0-1,0
		c-0.3,1.4-0.4,3.4,0.1,3.9c0.3,0.3,2.9,2,5.2,3.6c1.8,1.2,3.7,2.5,5.2,3.5c0,0,0.1-0.1,0.1-0.1c-2.6-4.1-6.5-9.9-7-10.4
		C16.4,12.9,15.5,12.7,14.1,12.7L14.1,12.7z M41.9,17.5c-0.5,0-0.8,0.1-1.1,0.2c-0.7,0.3-7.1,4.5-10.5,6.9c5.1-1,13.1-2.5,13.8-2.8
		c0.7-0.3,0.9-2.2,0.8-3.7C44.3,17.9,43,17.5,41.9,17.5L41.9,17.5z M10.7,17.5c-1.1,0-2.4,0.4-3,0.6c0,1.4,0.2,3.4,0.8,3.7
		c0.7,0.3,8.6,1.8,13.8,2.8c-3.4-2.3-9.8-6.5-10.5-6.9C11.5,17.6,11.1,17.5,10.7,17.5L10.7,17.5z M48.5,23.1
		c-0.7,0-5.6,0.9-10.2,1.7l-3.8,0.7c-2.1,0.4-3.6,0.7-4.3,0.9c0.8,0.2,2.3,0.5,4.3,0.9l3.7,0.7c4.7,0.8,9.6,1.7,10.3,1.7
		c0.2,0,0.8-0.1,2.1-1.4c0.5-0.4,0.7-1.1,0.7-1.8c0-0.7-0.3-1.4-0.7-1.8C49.4,23.2,48.7,23.1,48.5,23.1L48.5,23.1z M4,23.1
		c-0.2,0-0.8,0.1-2.1,1.4c-0.5,0.4-0.7,1.1-0.7,1.8c0,0.7,0.3,1.4,0.7,1.8c1.3,1.2,1.9,1.4,2.1,1.4c0.7,0,5.6-0.9,10.3-1.7l3.7-0.7
		c2.1-0.4,3.6-0.7,4.3-0.9c-0.8-0.2-2.3-0.5-4.3-0.9l-3.8-0.7C9.6,23.9,4.7,23.1,4,23.1L4,23.1z M22.3,28
		c-5.1,0.9-13.1,2.5-13.8,2.8C7.8,31,7.6,33,7.7,34.4c0.6,0.2,1.9,0.6,3,0.6c0.5,0,0.8-0.1,1.1-0.2C12.5,34.5,18.9,30.3,22.3,28
		L22.3,28z M30.3,28c3.4,2.3,9.8,6.5,10.5,6.9C41,35,41.4,35,41.9,35c1.1,0,2.4-0.4,3-0.6c0-1.4-0.2-3.4-0.8-3.7
		C43.3,30.5,35.4,28.9,30.3,28L30.3,28z M28.9,28.8C28.8,28.8,28.8,28.9,28.9,28.8c2.6,4.2,6.4,10,6.9,10.4c0.3,0.4,1.3,0.6,2.6,0.6
		c0.4,0,0.7,0,1,0c0.3-1.4,0.4-3.4-0.1-3.9c-0.3-0.3-2.9-2-5.2-3.6C32.2,31.1,30.3,29.8,28.9,28.8L28.9,28.8z M23.7,28.8
		c-1.5,1-3.4,2.3-5.2,3.5c-2.3,1.5-4.9,3.3-5.2,3.6c-0.5,0.5-0.4,2.5-0.1,3.9c0.2,0,0.6,0,1,0c1.3,0,2.3-0.2,2.6-0.6
		C17.2,38.8,21.1,33,23.7,28.8C23.7,28.9,23.7,28.8,23.7,28.8L23.7,28.8z M27.9,30.4c1.3,6.7,2.1,10.9,2.3,11.3
		c0.2,0.5,1.8,0.8,3,0.9c0.5-0.8,1.1-2.1,0.8-2.7c-0.2-0.4-2.5-4-4.2-6.5C29.2,32.2,28.5,31.2,27.9,30.4L27.9,30.4z M24.6,30.4
		c-0.6,0.8-1.2,1.9-1.9,2.9c-1.7,2.6-4,6.1-4.2,6.5c-0.3,0.6,0.4,2,0.8,2.7c1.2,0,2.8-0.3,3-0.9C22.4,41.2,23.3,37,24.6,30.4
		L24.6,30.4z M26.3,31c-0.2,0.9-0.5,2.1-0.8,3.6c-1.4,6.5-1.7,8.3-1.7,8.6c0,0.4,0.3,0.9,1,1.4c0.3,0.3,0.9,0.4,1.5,0.4
		s1.2-0.1,1.5-0.4c0.6-0.5,1-1,1-1.4c0-0.3-0.3-2.1-1.7-8.6C26.7,33.1,26.5,31.8,26.3,31L26.3,31z"/>
</g>
<g>
	<ellipse class="st1" cx="26.3" cy="26.3" rx="2.1" ry="2.2"/>
</g>
</svg>
