<?xml version="1.0" encoding="utf-8"?>
<!-- Generator: Adobe Illustrator 24.1.2, SVG Export Plug-In . SVG Version: 6.00 Build 0)  -->
<svg version="1.1" id="Calque_1" xmlns="http://www.w3.org/2000/svg" xmlns:xlink="http://www.w3.org/1999/xlink" x="0px" y="0px"
	 width="500px" height="500px" viewBox="0 0 500 500" style="enable-background:new 0 0 500 500;" xml:space="preserve">
<style type="text/css">
	.st0{fill:#C19B68;}
	.st1{fill:#B38F6A;}
	.st2{fill:#D8A467;}
	.st3{fill:#F3BB71;}
	.st4{fill:#AE473C;}
	.st5{fill:#4C3722;}
	.st6{fill:#EC6055;}
</style>
<g>
	<path class="st0" d="M299.5,103.8l10.3-15.2l1-2.4c0,0,0.7-3.9-2-9c-2.4-4.5-16.2-9.3-16.2-9.3l-3.7,31.3L299.5,103.8z"/>
	<g>
		<path class="st1" d="M185.9,85.9l-0.4-1.3c-1.1-7.4-4.1-45.9,46.8-50.8c46.1-4.4,70.8,13.9,72.8,31.6c0,0-0.1,1.1-0.6,2.4
			c-2.4,6.8-10.3,29.2-12.9,40.3c-4.4,18.7-6.7,34.3-26.3,34.5C203.8,143.3,185.9,85.9,185.9,85.9z"/>
		<path class="st0" d="M226.3,79.8l-1.2-9.2c0.6-4.8,2.1-10.6,5.1-13.1c14.6-11.7,40.4-8.1,40.4-8.1l3.5,43.1l-45.3-3.3L226.3,79.8z
			"/>
		<path class="st2" d="M224.7,130l0.3-59.4c0,0,3.1,21,41.7,19.1c34.1-1.7,38.3-24.3,38.3-24.3l-2.8,32.6L285,120L224.7,130z"/>
	</g>
	<path class="st3" d="M185.5,84.6c0,0,13.4,21.3,56.8,23.9c57.5,3.5,68.5-22.3,68.5-22.3s-30.1,92.5-26.1,161.7
		c4,69.2,35.8,171.1,35.8,171.1s-7.9,35.8-70.7,34.5c-57.1-1.2-61.1-31.5-61.1-31.5S217,330.9,217,260.9
		C217,206.7,185.5,84.6,185.5,84.6z"/>
	<path class="st4" d="M212.4,218.7c0,0,12.2,19.4,39.3,19.5c26.6,0,33.2-20.3,33.2-20.3l1.2,32.1c0,0-6.2,22.8-33.8,22.7
		c-27.6-0.1-36.8-19.8-36.8-19.8L212.4,218.7z"/>
	<g>
		<path class="st5" d="M239.8,260.5c-15.2-0.9-26.2-10.8-26.7-11.3c-0.7-0.6-0.7-1.7-0.1-2.4c0.6-0.7,1.7-0.7,2.4-0.1
			c0.2,0.2,14.2,12.8,31.5,10c32.5-5.1,37.5-29.2,37.5-29.5c0.2-0.9,1.1-1.5,2-1.4c0.9,0.2,1.5,1.1,1.4,2c-0.1,0.3-1.4,6.9-7,14.1
			c-5.2,6.7-15.2,15.2-33.3,18.1C244.8,260.5,242.2,260.6,239.8,260.5z"/>
	</g>
	<g>
		<path class="st5" d="M254.2,254.9c-5.9-0.3-12.2-1.4-18.5-3.6c-21-7.5-25.3-22.4-25.5-23c-0.3-0.9,0.3-1.9,1.2-2.1
			c0.9-0.3,1.9,0.3,2.1,1.2l0,0c0,0.1,4.1,13.8,23.3,20.7c23.7,8.4,48.4-1,48.6-1.1c0.9-0.3,1.9,0.1,2.2,1c0.3,0.9-0.1,1.9-1,2.2
			C286,250.4,271.8,255.9,254.2,254.9z"/>
	</g>
	<g>
		<path class="st5" d="M264.7,319.3c-0.3,0-0.6-0.1-0.9-0.3c-0.6-0.4-15.8-10.9-27-27.6c-11.2-16.7-17.1-37.3-17.3-38.2
			c-0.3-0.9,0.3-1.9,1.2-2.1c0.9-0.3,1.9,0.3,2.1,1.2c0.1,0.2,6,21,16.9,37.2c8.9,13.3,20.7,22.7,24.7,25.6
			c2.2-3.4,7.6-12.2,11.3-22.1c5.9-16.4,5.8-41.9,5.8-42.2c0-1,0.8-1.7,1.7-1.7c0.9,0,1.7,0.8,1.7,1.7c0,1.1,0.2,26.4-6,43.4
			c-4.7,13.1-12.3,23.9-12.6,24.4C265.9,319,265.3,319.3,264.7,319.3z"/>
	</g>
	<path class="st5" d="M288,336.8c-0.6,11.1-10.2,19.6-21.3,19c-11.1-0.6-19.6-10.2-19-21.3c0.6-11.1,10.1-19.6,21.3-19
		C280.1,316.2,288.6,325.7,288,336.8z"/>
	<path class="st4" d="M286.7,335.3c-0.6,11.1-10.2,19.6-21.3,19c-11.1-0.6-19.6-10.2-19-21.3c0.6-11.1,10.1-19.6,21.3-19
		C278.8,314.6,287.3,324.2,286.7,335.3z"/>
	<path class="st6" d="M281.1,332.3c0.7,10-7.6,16.1-16.6,15.6c-3.9-0.2-9.2-3.5-11.9-5.9c2.5,5.1,7.6,8.7,13.7,9
		c9.1,0.6,16.9-6.3,17.5-15.4c0.3-5.2-1.8-10-5.4-13.3C279.5,324.8,280.9,329.2,281.1,332.3z"/>
	<g>
		<path class="st5" d="M270,381.3c-0.7,0-1.2-0.5-1.4-1.2c0-0.2-1-5.4-1.2-10c-0.2-4.7,1.3-14.2,1.3-14.6c0.1-0.5,0.4-1,0.9-1.2
			c0.5-0.2,1.1-0.1,1.5,0.3c0.2,0.2,5.9,5.1,8.9,9.3c3.2,4.5,5.4,11.2,5.5,11.5c0.3,0.8-0.2,1.6-0.9,1.9c-0.8,0.3-1.6-0.2-1.9-0.9
			c0-0.1-2.2-6.6-5.1-10.7c-1.7-2.4-4.5-5.1-6.3-6.9c-0.4,3.2-1,8.4-0.9,11.3c0.2,4.4,1.1,9.6,1.2,9.6c0.1,0.8-0.4,1.6-1.2,1.7
			C270.2,381.3,270.1,381.3,270,381.3z"/>
	</g>
	<path class="st5" d="M253.3,337.6c-1.8-9.9,5.7-16.9,14.8-17.3c3.9-0.2,9.6,2.5,12.5,4.5c-3.1-4.7-8.6-7.8-14.6-7.5
		c-9.1,0.5-16.1,8.2-15.6,17.3c0.3,5.2,2.9,9.8,6.9,12.6C255.7,344.9,253.8,340.6,253.3,337.6z"/>
</g>
</svg>
