<?xml version="1.0" encoding="utf-8"?>
<!-- Generator: Adobe Illustrator 24.1.2, SVG Export Plug-In . SVG Version: 6.00 Build 0)  -->
<svg version="1.1" id="Capa_1" xmlns="http://www.w3.org/2000/svg" xmlns:xlink="http://www.w3.org/1999/xlink" x="0px" y="0px"
     width="36.2px" height="36.2px" viewBox="0 0 36.2 36.2" style="enable-background:new 0 0 36.2 36.2;" xml:space="preserve">
<style type="text/css">
	.st0{fill:#999999;}
	.st1{fill:#4F4A47;}
</style>
<g>
	<g>
		<path class="st0" d="M17.1,1.4l-3.7,2.7l2.4,3.1l3.7-2.7c0.9-0.7,1.1-1.8,0.4-2.7C19.3,0.9,18,0.7,17.1,1.4z"/>
		<path class="st1" d="M2.2,12.2c-0.9,0.7-1.1,1.8-0.4,2.7c0.3,0.4,0.8,0.7,1.3,0.8s1,0,1.5-0.4L14.7,8l-2.4-3.1L2.2,12.2z"/>
		<path class="st0" d="M33.8,14.6c0-0.1,0-0.2,0-0.2v-1c0-0.5-0.4-1-1-1c0.5,0,1-0.5,1-1v-1c0-0.5-0.4-1-1-1c0.5,0,1-0.5,0.9-1
			c0-0.4,0-0.7-0.1-1c0-0.5-0.5-0.9-1.1-0.9c0.7-0.3,1-0.8,0.9-1.2s-0.2-0.8-0.3-1c-0.2-0.5-0.8-0.8-1.3-0.6l0,0c0,0,0,0,0.1-0.1
			c0.4-0.4,0.4-1-0.1-1.3c-0.3-0.3-0.6-0.5-1-0.7c-0.5-0.3-1.1-0.1-1.4,0.4l0,0l0,0c0.1-0.5-0.3-1-0.8-1.1c-0.3,0.1-0.7,0.1-1.1,0
			c-0.5-0.1-1,0.3-1.1,0.9c0-0.5-0.4-1-1-1c-0.3,0-0.7,0-1,0c-0.5,0-1,0.4-1,0.9c0-0.5-0.5-1-1-1h-1l0,0c-0.6,0-1,0.4-1,1s0.4,1,1,1
			h1l0,0c0.5,0,1-0.4,1-0.9c0,0.5,0.4,0.9,1,1c0.3,0,0.7,0,1,0c0.5,0.1,1-0.4,1-0.9c0,0.5,0.4,0.9,0.9,1c0.3,0,0.6,0.1,0.9,0.1
			c0.5,0.1,0.9-0.2,1.1-0.6c-0.1,0.4,0.1,0.9,0.5,1c0.2,0.1,0.4,0.3,0.6,0.4c0.3,0.3,0.7,0.3,1.1,0.2c-0.3,0.3-0.4,0.7-0.3,1
			s0.2,0.5,0.2,0.8c0.1,0.5,0.5,0.8,1,0.8c-0.5,0.1-0.8,0.6-0.8,1c0,0.3,0,0.6,0.1,1c0,0.5,0.5,0.9,1,0.9c-0.5,0-0.9,0.5-0.9,1v1
			c0,0.5,0.4,1,1,1c-0.5,0-1,0.5-1,1v1c0,0.1,0,0.1,0,0.2c-0.5,0.2-0.9,0.7-1,1.2l-1.2,4.3l3.9,1l1.2-4.3
			C35,15.8,34.6,14.9,33.8,14.6z"/>
		<path class="st1" d="M26,32.9c-0.3,1,0.3,2.1,1.4,2.4c0.5,0.1,1.1,0.1,1.5-0.2s0.8-0.7,0.9-1.1l3.3-11.6l-3.9-1L26,32.9z"/>
	</g>
</g>
</svg>
